
<svg viewBox="0 0 48 48" xmlns="http://www.w3.org/2000/svg">
    <path d="M39.166 3.041C38.678 2.94 38.201 2.774 37.737 2.542 37.281 2.316 36.682 1.733 37.011 1.207 37.14 1.004 37.367.95 37.692 1.046 38.516 1.288 39.119 1.474 39.92 1.505 40.479 1.527 41.16 1.563 41.963 1.615 42.886 1.673 43.221 2.588 42.711 3.313 42.183 4.065 41.613 4.873 41.002 5.735 40.663 6.216 39.599 7.565 38.973 7.088 38.893 7.026 38.83 6.933 38.785 6.81 38.519 6.073 38.811 5.362 39.21 4.678 39.239 4.629 39.226 4.609 39.169 4.62 38.918 4.666 38.509 4.717 37.943 4.772 37.58 4.806 37.175 4.865 36.728 4.947 35.105 5.245 33.905 5.576 32.141 5.991 32.089 6.003 32.055 5.984 32.038 5.934 31.879 5.452 31.675 5.027 31.426 4.658 31.394 4.613 31.406 4.583 31.46 4.568 33.238 4.122 34.737 3.771 35.957 3.514 36.401 3.421 36.933 3.339 37.554 3.269 38.484 3.165 39.021 3.103 39.164 3.082 39.243 3.071 39.244 3.057 39.166 3.041ZM20.478 4.621C17.868 6.04 16.315 8.5 16.412 11.543 16.433 12.179 16.547 12.81 16.754 13.436 16.926 13.955 17.243 14.495 17.706 15.054 18.538 16.061 19.539 16.829 20.711 17.358 20.818 17.407 20.959 17.508 21.132 17.663 21.269 17.784 21.339 17.924 21.34 18.084 21.347 18.558 21.174 18.921 20.822 19.174 20.698 19.263 20.593 19.297 20.505 19.275 18.342 18.738 16.729 17.551 15.668 15.714 15.186 14.881 14.821 14.001 14.572 13.075 13.491 9.054 15.655 4.56 19.414 2.755 23.197.939 27.601 1.855 30.189 5.174 31.463 6.809 32.029 8.694 31.889 10.829 31.822 11.833 31.647 12.701 31.362 13.434 31.256 13.706 31.068 13.949 30.867 14.152 30.76 14.26 30.645 14.269 30.522 14.181 30.275 14.001 30.126 13.775 30.074 13.503 30.046 13.362 30.084 13.116 30.186 12.766 30.419 11.96 30.542 11.428 30.557 11.17 30.646 9.511 30.265 8.033 29.414 6.734 28.023 4.614 25.722 3.618 23.191 3.812 22.24 3.885 21.336 4.155 20.478 4.621ZM31.109 19.973C31.922 19.249 32.867 18.997 33.946 19.216 34.255 19.279 34.609 19.506 35.007 19.896 35.036 19.924 35.062 19.922 35.083 19.887 35.803 18.782 37.075 18.321 38.211 19.184 38.248 19.212 38.283 19.21 38.317 19.178 39.074 18.468 39.967 18.164 40.997 18.265 42.416 18.401 43.489 19.49 44.047 20.768 44.409 21.594 44.669 22.62 44.939 23.388 45.367 24.592 45.572 25.412 45.646 26.673 45.667 27.022 45.673 28.074 45.665 29.829 45.659 30.935 45.501 32.234 45.472 33.474 45.467 33.727 45.474 33.994 45.558 34.232 45.699 34.63 45.83 35.042 45.95 35.467 46.159 36.212 46.377 37.315 45.538 37.694 45.298 37.804 45.03 37.785 44.736 37.637 44.356 37.447 44.103 37.231 43.978 36.989 43.522 36.112 43.222 35.198 43.077 34.246 43.03 33.934 43.004 33.329 43 32.431 42.998 32.021 43.006 31.72 43.024 31.526 43.108 30.664 42.969 29.819 42.886 28.953 42.868 28.763 42.846 28.25 42.821 27.415 42.802 26.805 42.728 26.296 42.598 25.888 42.228 24.728 41.881 23.543 41.558 22.333 41.522 22.199 41.406 21.936 41.209 21.545 41.008 21.143 40.7 20.907 40.286 20.838 40.173 20.818 40.062 20.886 40.028 20.995 39.796 21.738 39.559 22.478 38.768 22.653 38.383 22.739 38.043 22.678 37.748 22.471 37.379 22.212 37.133 21.87 37.01 21.443 36.962 21.281 36.924 21.283 36.896 21.449 36.857 21.673 36.844 21.977 36.857 22.361 36.874 22.828 36.863 23.132 36.825 23.272 36.514 24.394 35.116 24.453 34.546 23.498 34.204 22.926 33.863 22.354 33.522 21.783 33.349 21.493 33.119 21.444 32.832 21.637 32.683 21.738 32.549 21.999 32.43 22.421 32.366 22.653 32.343 23.034 32.362 23.565 32.4 24.661 31.228 25.416 30.35 24.591 30.155 24.409 30.008 24.153 29.908 23.824 29.466 22.367 29.023 20.942 28.582 19.548 28.167 18.239 27.637 16.995 27.067 15.596 26.588 14.421 26.026 13.299 25.381 12.23 25.359 12.192 25.191 11.987 24.878 11.615 24.713 11.418 24.534 11.316 24.34 11.31 24.011 11.298 23.767 11.405 23.607 11.629 23.509 11.767 23.456 11.997 23.449 12.318 23.431 13.254 23.448 13.944 23.499 14.389 23.54 14.751 23.805 15.14 23.892 15.53 24.115 16.533 24.293 17.193 24.427 17.511 25.251 19.462 25.738 20.688 25.887 21.188 26.097 21.898 26.453 23.004 26.954 24.507 27.812 27.078 28.43 29.452 28.808 31.627 28.885 32.072 28.431 32.459 27.989 32.325 27.368 32.136 27.071 31.231 26.937 30.644 26.801 30.042 26.687 29.521 26.597 29.082 26.541 28.812 26.382 28.305 26.12 27.563 25.801 26.666 25.52 25.798 25.276 24.96 25.234 24.814 25.175 24.807 25.099 24.94 24.997 25.12 24.853 25.335 24.669 25.587 24.13 26.319 23.847 27.385 23.707 28.306 23.501 29.653 23.527 30.964 23.786 32.24 23.888 32.745 24.059 33.264 24.299 33.796 24.819 34.951 25.617 35.78 26.692 36.284 27.323 36.579 27.643 36.729 27.651 36.734 28.115 36.972 28.572 37.19 29.023 37.387 29.67 37.668 30.122 37.896 30.377 38.07 31.378 38.753 32.118 39.479 32.596 40.251 33.561 41.809 34.068 42.629 34.117 42.71 34.429 43.221 34.746 43.815 35.069 44.492 35.408 45.203 35.786 46.635 34.686 46.96 34.048 47.147 33.518 46.643 33.194 46.118 32.607 45.165 32.219 44.4 31.578 43.434 31.295 43.008 30.926 42.433 30.471 41.71 30.086 41.099 29.696 40.589 29.301 40.179 29.05 39.918 28.767 39.712 28.453 39.562 27.849 39.273 27.235 38.952 26.611 38.599 26.208 38.372 25.836 38.177 25.495 38.013 24.887 37.721 24.393 37.348 24.011 36.894 23.36 36.118 22.877 35.282 22.562 34.384 22.03 32.872 21.772 31.361 21.788 29.85 21.805 28.185 22.124 26.832 22.804 25.393 23.046 24.877 23.462 24.452 24.051 24.117 24.317 23.965 24.561 23.906 24.784 23.94 24.828 23.946 24.843 23.928 24.83 23.886 24.153 21.792 23.441 19.8 22.696 17.91 22.474 17.352 22.297 16.8 22.163 16.254 22.032 15.721 21.944 15.38 21.896 15.231 21.758 14.796 21.57 14.306 21.526 13.886 21.412 12.793 21.342 11.595 21.97 10.644 22.57 9.739 23.473 9.311 24.682 9.36 26.516 9.436 27.472 11.509 28.186 12.9 28.767 14.035 29.176 15.03 29.817 16.441 30.094 17.051 30.324 17.64 30.51 18.208 30.572 18.397 30.754 18.981 31.054 19.957 31.064 19.991 31.083 19.997 31.109 19.973ZM5.832 16.074C6.503 16.164 7.29 16.545 7.03 17.355 6.849 17.925 6.135 18.132 5.594 18.151 4.499 18.189 3.607 18.227 2.918 18.267 2.624 18.284 2.355 18.17 2.113 17.925 1.911 17.721 1.829 17.435 1.869 17.066 1.885 16.921 2.006 16.675 2.233 16.33 2.66 15.681 3.075 14.877 3.477 13.919 3.507 13.844 3.601 13.686 3.757 13.443 4.011 13.049 4.662 13.094 4.887 13.522 5.061 13.854 4.911 14.318 4.785 14.714 4.766 14.77 4.783 14.784 4.836 14.758 9.104 12.621 11.307 11.519 11.446 11.449 11.991 11.174 12.417 10.967 12.723 10.829 12.727 10.827 12.732 10.826 12.737 10.825 12.771 10.819 12.804 10.843 12.81 10.877 12.811 10.882 12.811 10.887 12.811 10.892 12.776 11.372 12.795 11.873 12.869 12.395 12.875 12.437 12.859 12.468 12.821 12.488L5.821 16.002C5.746 16.04 5.75 16.064 5.832 16.074Z"/>
</svg>