
<svg viewBox="0 0 640 640" xmlns="http://www.w3.org/2000/svg">
    <path d="M176 24C176 10.7 165.3 0 152 0 138.7 0 128 10.7 128 24V224H48V184C48 170.7 37.3 160 24 160 10.7 160 0 170.7 0 184V440C0 479.8 32.2 512 72 512H568C607.8 512 640 479.8 640 440V184C640 170.7 629.3 160 616 160 602.7 160 592 170.7 592 184V224H512V24C512 10.7 501.3 0 488 0 474.7 0 464 10.7 464 24V64H400V24C400 10.7 389.3 0 376 0 362.7 0 352 10.7 352 24V64H288V24C288 10.7 277.3 0 264 0 250.7 0 240 10.7 240 24V64H176V24ZM176 112H464V224H176V112ZM48 272H592V440C592 453.3 581.3 464 568 464H384V384C384 348.7 355.3 320 320 320 284.7 320 256 348.7 256 384V464H72C58.7 464 48 453.3 48 440V272Z"/>
</svg>