<svg viewBox="0 0 320 320" xmlns="http://www.w3.org/2000/svg">
    <path d="M198.634,184.14c-1.086,7.887 -1.64,18.257 -1.66,31.11c-0.006,7.487 0.247,12.4 0.76,14.74c0.12,0.574 0.16,1.36 0.12,2.36c-0.11,2.35 -1.88,3.33 -4.04,2.52c-2.366,-0.893 -5.316,-1.59 -8.85,-2.09c-0.373,-0.053 -0.556,0.107 -0.55,0.48c0.1,4.54 0.13,9.39 -0.29,14.66c-0.553,7.014 -0.646,14.047 -0.28,21.1c0.24,4.6 -5.23,4.31 -5.31,-0.05c-0.18,-9.053 0.36,-19.43 1.62,-31.13c0.1,-0.92 0.194,-2.673 0.28,-5.26c0.014,-0.406 -0.183,-0.626 -0.59,-0.66l-27.83,-2.21c-0.36,-0.026 -0.533,0.14 -0.52,0.5c0.374,9.947 0.187,20.474 -0.56,31.58c-0.15,2.25 0.43,5.87 -0.04,8.65c-0.002,0.015 -0.005,0.029 -0.007,0.043c-0.211,1.127 -1.179,1.906 -2.144,1.725c-0.013,-0.002 -0.026,-0.005 -0.039,-0.008l-0.32,-0.07c-1.886,-0.406 -2.836,-1.49 -2.85,-3.25c-0.073,-11.793 0.274,-24.663 1.04,-38.61c0.027,-0.453 -0.186,-0.676 -0.64,-0.67l-9.41,0.21c-2.286,0.051 -4.318,-1.508 -4.86,-3.73c-0.453,-1.853 -0.866,-5.486 -1.24,-10.9c-0.213,-3.18 -0.256,-6.623 -0.13,-10.33c0.3,-9.153 0.704,-18.12 1.21,-26.9c0.027,-0.44 -0.176,-0.61 -0.61,-0.51l-29.61,6.87c-0.333,0.08 -0.463,0.287 -0.39,0.62l0.62,2.63c0.254,1.1 -0.083,1.977 -1.01,2.63c-0.286,0.2 -0.466,0.307 -0.54,0.32c-1.5,0.28 -2.52,-0.21 -3.06,-1.47c-3.673,-8.613 -6.21,-18.37 -7.61,-29.27c-3.313,-25.706 1.267,-49.166 13.74,-70.38c0.16,-0.273 0.127,-0.52 -0.1,-0.74c-1.526,-1.473 -1.783,-3.01 -0.77,-4.61c0.79,-1.25 2.5,-1.46 3.79,-0.43c0.1,0.074 0.2,0.134 0.3,0.18c0.242,0.111 0.53,0.045 0.7,-0.16l5.48,-6.62c0.11,-0.131 0.105,-0.327 -0.01,-0.46l-5.01,-5.69c-0.12,-0.133 -0.233,-0.126 -0.34,0.02c-2.413,3.274 -4.336,3.64 -5.77,1.1c-3.5,-6.186 -6.2,-10.623 -8.1,-13.31c-0.733,-1.046 -1.053,-1.846 -0.96,-2.4c0.81,-4.78 10.54,-1.18 13.36,-0.3c1.23,0.39 2.52,0.32 3.87,0.42c4.55,0.34 2.72,6.76 1.07,8.91c-0.513,0.654 -0.493,1.294 0.06,1.92l4.82,5.48c0.354,0.394 0.72,0.41 1.1,0.05c16.507,-15.426 36.577,-23.6 60.21,-24.52c11.6,-0.453 23.04,0.72 34.32,3.52c3.2,0.8 3.03,5.18 -0.31,5.86c-0.494,0.102 -0.878,0.495 -0.97,0.99l-5.12,27.29c-0.1,0.537 0.055,1.091 0.42,1.5c8.22,9.06 15.087,18.274 20.6,27.64c1.107,1.867 1.99,3.794 2.65,5.78c2.18,6.53 3.26,13.86 2.84,21.44c-0.26,4.78 -0.46,6.96 -0.11,10.68c0.567,5.96 0.787,11.984 0.66,18.07c-0.06,3.2 -0.88,7.12 -3.46,9.06c-5.51,4.15 -14.41,0.68 -18.98,-3.36c-0.386,-0.346 -0.536,-0.263 -0.45,0.25c0.347,1.907 0.82,5.084 1.42,9.53c0.34,2.51 -0.99,5.33 -3.76,5.39c-3.87,0.07 -5.71,-4.74 -7.38,-7.82c-0.24,-0.446 -0.396,-0.416 -0.47,0.09Zm-15.12,-12.03c-0.096,-0.001 -0.192,-0.01 -0.286,-0.026c-1.033,-0.177 -1.734,-1.194 -1.553,-2.254c0.017,-0.095 0.04,-0.188 0.069,-0.28l0.98,-3c0.107,-0.333 -0.01,-0.463 -0.35,-0.39l-26.42,5.82c-1.48,0.327 -1.51,0.667 -0.09,1.02c2.1,0.52 3.07,2.017 2.91,4.49c-0.02,0.34 -0.146,0.634 -0.38,0.88c-1.246,1.314 -3.226,1.41 -5.94,0.29c-0.613,-0.26 -0.96,-0.06 -1.04,0.6c-0.293,2.307 -0.526,6.547 -0.7,12.72c-0,0.025 -0.002,0.05 -0.003,0.074c-0.061,0.92 -0.819,1.63 -1.678,1.573c-0.023,-0.002 -0.046,-0.004 -0.069,-0.007l-0.29,-0.03c-1.506,-0.157 -2.667,-1.43 -2.68,-2.94c-0.04,-4.473 0.294,-8.683 1,-12.63c0.06,-0.333 -0.046,-0.603 -0.32,-0.81l-2.95,-2.13c-0.273,-0.2 -0.573,-0.26 -0.9,-0.18l-4.53,1.05c-0.62,0.14 -0.96,0.527 -1.02,1.16c-0.886,8.774 -1.523,18.654 -1.91,29.64c-0.173,4.894 0.127,10.597 0.9,17.11c0.04,0.327 0.224,0.49 0.55,0.49c5.107,0.074 14.674,0.56 28.7,1.46c10.334,0.66 18.807,1.48 25.42,2.46c0.027,0.004 0.054,0.006 0.08,0.006c0.291,0 0.53,-0.239 0.53,-0.53c0,-0.005 0,-0.01 0,-0.016c-0.1,-4.273 0.024,-8.683 0.37,-13.23c0.11,-1.44 -0.27,-3.37 -0.22,-4.99c0.414,-14.086 0.974,-26.376 1.68,-36.87c0.054,-0.733 -0.23,-1.483 -0.85,-2.25c-0.266,-0.333 -0.48,-0.3 -0.64,0.1c-0.446,1.127 -1.183,1.434 -2.21,0.92c-0.366,-0.18 -0.656,-0.436 -0.87,-0.77c-0.246,-0.386 -0.59,-0.52 -1.03,-0.4c-0.94,0.247 -1.636,0.18 -2.09,-0.2c-0.56,-0.453 -0.916,-0.33 -1.07,0.37c-0.253,1.14 -0.62,1.707 -1.1,1.7Zm-76.81,-78.89c-12.38,20.03 -14.38,45.2 -10.84,68.69c0.88,5.847 2.147,11.957 3.8,18.33c0.034,0.116 0.153,0.186 0.27,0.16l31.82,-7.38c0.154,-0.04 0.247,-0.14 0.28,-0.3c0.927,-5.38 2.31,-12.64 4.15,-21.78c0.96,-4.76 2.86,-9.74 4.23,-14.44c0.126,-0.432 0.036,-0.898 -0.24,-1.25l-32.93,-42.06c-0.062,-0.079 -0.158,-0.126 -0.259,-0.126c-0.114,0 -0.221,0.059 -0.281,0.156Zm118.89,46.98c0.374,-6.173 -0.203,-11.83 -1.73,-16.97c-0.6,-2.013 -1.516,-4.08 -2.75,-6.2c-3.3,-5.653 -6.746,-10.636 -10.34,-14.95c-2.48,-2.98 -4.77,-5.81 -6.87,-8.49c-0.033,-0.042 -0.074,-0.077 -0.12,-0.105c-0.211,-0.128 -0.488,-0.064 -0.613,0.142c-0.028,0.047 -0.048,0.099 -0.057,0.153l-9.46,50.48c-0.066,0.334 0.007,0.634 0.22,0.9c4.534,5.64 9.02,11.634 13.46,17.98c1.36,1.94 2.49,4.33 3.8,6.17c2.807,3.934 6.657,6.06 11.55,6.38c1.142,0.075 2.162,-0.748 2.33,-1.88c1.22,-8.1 0.02,-18.09 0.06,-24.98c0,-0.053 0.174,-2.93 0.52,-8.63Zm-56.12,-82.04c2.93,-0.42 4.69,1.11 6.28,3.38c0.207,0.287 0.474,0.497 0.8,0.63c3.034,1.16 5.89,3.027 8.57,5.6c4.32,4.14 8.23,7.797 11.73,10.97c1.15,1.05 2.31,2.73 3.76,3.85c0.16,0.127 0.257,0.087 0.29,-0.12l4.47,-25.44c0.037,-0.229 -0.113,-0.45 -0.34,-0.5c-16.946,-3.713 -33.523,-3.456 -49.73,0.77c-13.59,3.55 -25.48,10.04 -35.66,19.54c-0.286,0.26 -0.3,0.534 -0.04,0.82l24.44,27.74c0.18,0.207 0.29,0.177 0.33,-0.09c1.99,-13.4 6.13,-27.22 13.26,-38.64c2.78,-4.47 6.41,-7.75 11.84,-8.51Zm0.1,5.78c-0.449,-0.327 -1.072,-0.302 -1.5,0.06c-5.02,4.2 -8.75,11.33 -11.01,17.12c-3.846,9.84 -6.23,19.984 -7.15,30.43c-0.038,0.486 0.124,0.97 0.45,1.34l8.77,9.96c0.107,0.123 0.261,0.194 0.423,0.194c0.202,-0 0.388,-0.109 0.487,-0.284c3.914,-6.806 6.697,-13.4 8.35,-19.78c3.194,-12.346 4.59,-22.373 4.19,-30.08c-0.19,-3.57 -0.74,-7.32 -3.01,-8.96Zm-66.88,2.53c0.32,0.42 0.454,0.37 0.4,-0.15c-0.066,-0.633 -0.343,-1.063 -0.83,-1.29c-0.486,-0.226 -0.586,-0.113 -0.3,0.34c0.327,0.527 0.57,0.894 0.73,1.1Zm98.47,106.03c-0.173,-1.8 0.26,-3.05 1.3,-3.75c0.174,-0.117 0.278,-0.313 0.278,-0.522c0,-0.132 -0.041,-0.261 -0.118,-0.368l-2.47,-3.4c-0.34,-0.473 -0.55,-0.42 -0.63,0.16l-0.6,4.59c-0.006,0.039 0.001,0.078 0.02,0.11l1.99,3.26c0.012,0.023 0.03,0.04 0.052,0.051c0.059,0.029 0.133,-0 0.164,-0.065c0.01,-0.02 0.015,-0.043 0.014,-0.066Zm-50.94,-53.06c-0.059,-0.071 -0.146,-0.112 -0.238,-0.112c-0.17,0 -0.31,0.14 -0.31,0.31c-0,0.025 0.003,0.049 0.008,0.072l1.7,7.18c0.013,0.041 0.033,0.078 0.06,0.11l1.66,2.17c0.099,0.131 0.285,0.161 0.42,0.07l3,-2.03c0.085,-0.057 0.136,-0.154 0.136,-0.256c0,-0.075 -0.027,-0.147 -0.076,-0.204l-6.36,-7.31Zm2.33,41.68c0.019,0.003 0.037,0.007 0.055,0.011c0.745,0.165 1.2,1.011 1.009,1.873c-0.005,0.019 -0.009,0.038 -0.014,0.056c-0.56,2.194 -0.886,3.727 -0.98,4.6c-0.033,0.354 0.124,0.49 0.47,0.41l30.65,-7.11c0.736,-0.171 1.261,-0.832 1.261,-1.587c0,-0.399 -0.146,-0.784 -0.411,-1.083l-14.42,-16.37c-0.218,-0.243 -0.522,-0.394 -0.85,-0.42c-4.87,-0.34 -8.9,-0.73 -13.48,-3.39c-2.806,-1.626 -4.87,-2.61 -6.19,-2.95c-0.593,-0.153 -1.533,-1.04 -2.82,-2.66c-0.233,-0.286 -0.406,-0.253 -0.52,0.1c-2.98,9.26 -4.573,14.76 -4.78,16.5c-0.593,5.074 -1.786,12.217 -3.58,21.43c-0.146,0.747 0.15,1.034 0.89,0.86l8.77,-2.03c0.474,-0.106 0.78,-0.393 0.92,-0.86l1.98,-6.37c0.012,-0.037 0.025,-0.074 0.039,-0.11c0.313,-0.802 1.151,-1.237 1.856,-0.962c0.032,0.013 0.064,0.027 0.095,0.042c0.014,0.007 0.03,0.014 0.05,0.02Zm10.774,-26.771c0.137,-0.212 -0.374,-0.791 -1.133,-1.284c-0.759,-0.493 -1.497,-0.725 -1.635,-0.513c-0.137,0.211 0.375,0.791 1.134,1.284c0.759,0.493 1.496,0.725 1.634,0.513Zm13.346,8.241c1.387,2.514 3.57,5.234 6.55,8.16c1.07,1.06 2.09,2.53 3.26,3.59c0.05,0.046 0.105,0.085 0.164,0.118c0.449,0.254 1.03,0.09 1.286,-0.364c0.033,-0.058 0.06,-0.12 0.08,-0.184l1.01,-3.23c0.154,-0.511 0.02,-1.07 -0.35,-1.46c-3.346,-3.513 -7.28,-5.81 -11.8,-6.89c-0.266,-0.066 -0.333,0.02 -0.2,0.26Zm2.47,-74.02c-0.526,-0.393 -0.733,-0.266 -0.62,0.38c0.827,4.827 1.077,9.517 0.75,14.07c-0.926,13.02 -4.42,25.717 -10.48,38.09c-1.246,2.554 -2.65,4.96 -4.21,7.22c-0.149,0.215 -0.14,0.504 0.02,0.71c1.42,1.834 2.867,3.577 4.34,5.23c0.614,0.68 1.274,1.044 1.98,1.09c7.107,0.42 13.44,2.627 19,6.62c0.347,0.247 0.557,0.16 0.63,-0.26l9.05,-51.58c0.12,-0.68 -0.063,-1.263 -0.55,-1.75c-2.99,-2.98 -5.07,-5.81 -7.85,-8.26c-3.88,-3.43 -7.58,-8.17 -12.06,-11.56Zm-33.83,61.45c0.004,0 0.007,-0 0.011,-0.001c0.043,-0.009 0.07,-0.056 0.06,-0.104c-0,-0.002 -0,-0.003 -0.001,-0.005c-1.58,-5.46 -2.13,-11.083 -1.65,-16.87c0.045,-0.575 -0.143,-1.141 -0.52,-1.57l-26.87,-30.5c-0.24,-0.266 -0.476,-0.263 -0.71,0.01l-5.46,6.62c-0.304,0.366 -0.312,0.9 -0.02,1.28c4.72,6.04 9.867,12.44 15.44,19.2c5.4,6.55 9.33,12.43 16.56,22.52c0.22,0.3 0.49,0.36 0.81,0.18c0.714,-0.393 1.497,-0.646 2.35,-0.76Z"/>
</svg>
