<svg viewBox="0 0 320 320" xmlns="http://www.w3.org/2000/svg">
    <path d="M126.163,45.073c0.006,-3.78 0.013,-5.823 0.02,-6.13c0.06,-5.23 3.89,-10.79 9.22,-11.82c2.186,-0.42 4.543,-0.42 7.07,0c8.38,1.4 8.7,10.52 8.04,17.55c-0.434,4.507 -2.05,8.424 -4.85,11.75c-0.434,0.507 -0.46,1.61 -0.08,3.31c0.073,0.34 0.28,0.547 0.62,0.62c1.5,0.34 2.63,0.55 3.39,0.63c4.02,0.41 6.5,3.41 6.67,7.38c0.226,5.127 -0.69,10.577 -2.75,16.35c-1.77,4.98 -6.46,7.56 -7.54,12.55c-0.067,0.307 -0.197,2.224 -0.39,5.75c-0,0.114 0.053,0.164 0.16,0.15c8.873,-1.166 18.56,-0.686 29.06,1.44c0.579,0.118 1.048,0.545 1.22,1.11c1.9,6.04 3.01,12.274 3.33,18.7c0.013,0.26 0.313,4.51 0.9,12.75c0.32,4.494 0.266,9.717 -0.16,15.67c-0.334,4.6 -1.504,8.544 -3.51,11.83c-0.111,0.176 -0.167,0.382 -0.16,0.59l0.44,30.16c-0.001,0.215 0.07,0.425 0.2,0.6c1.84,2.454 3.046,4.254 3.62,5.4c4.006,8.08 8.266,16.48 12.78,25.2c0.038,0.079 0.119,0.129 0.206,0.129c0.067,0 0.13,-0.029 0.174,-0.079l4.25,-5.15c0.074,-0.088 0.078,-0.217 0.01,-0.31c-2.04,-2.74 -3.95,-5.803 -5.73,-9.19c-0.86,-1.63 -0.63,-3.41 1.18,-4.16c1.053,-0.433 2.263,0 3.63,1.3c2.126,2.02 4.14,4.03 6.04,6.03c0.26,0.274 0.52,0.274 0.78,0c14.753,-15.44 29.596,-32.176 44.53,-50.21c0.986,-1.193 2.083,-1.33 3.29,-0.41c0.026,0.014 0.063,0.04 0.11,0.08c1.153,0.987 1.266,2.014 0.34,3.08c-3,3.414 -6.037,6.827 -9.11,10.24c-9.58,10.66 -18.33,21.54 -27.99,32.87c-0.647,0.754 -2.034,2.244 -4.16,4.47c-1.767,1.847 -3.007,3.284 -3.72,4.31c-0.144,0.203 -0.144,0.473 -0,0.67l8.2,11.3c1.32,1.82 1.11,3.437 -0.63,4.85l-0.28,0.22c-2.12,0.974 -3.904,0.627 -5.35,-1.04c-3.407,-3.9 -5.904,-6.97 -7.49,-9.21c-0.4,-0.566 -0.82,-0.583 -1.26,-0.05l-4.05,4.9c-0.38,0.467 -0.334,0.884 0.14,1.25c1.59,1.21 3.67,3.57 1.78,5.7c-2.39,2.68 -4.47,0.21 -5.97,-1.79c-0.234,-0.313 -0.484,-0.316 -0.75,-0.01l-5.95,6.95c-0.914,1.074 -1.937,1.2 -3.07,0.38c-0.014,-0.013 -0.037,-0.033 -0.07,-0.06c-1.18,-0.953 -1.38,-2.013 -0.6,-3.18c2.2,-3.313 4.653,-6.35 7.36,-9.11c0.308,-0.316 0.381,-0.797 0.18,-1.19c-3.947,-7.686 -8.02,-14.783 -12.22,-21.29c-0.214,-0.326 -0.34,-0.296 -0.38,0.09c-0.207,1.914 -0.26,3.554 -0.16,4.92c0.773,11.127 1.126,21.76 1.06,31.9c-0.01,2.22 0.37,4.23 0.53,6.37c0.32,4.38 -2.57,4.98 -6.3,5.04c-5.08,0.08 -8.344,0.174 -9.79,0.28c-0.345,0.024 -0.616,0.313 -0.616,0.659c-0,0.083 0.015,0.164 0.046,0.241c0.44,1.1 0.706,2.1 0.8,3c0.393,3.62 1.113,12.55 2.16,26.79c0.12,1.574 -0.787,2.727 -2.72,3.46c-0.067,0.027 -0.137,0.037 -0.21,0.03c-2.14,-0.013 -3.297,-1.016 -3.47,-3.01c-0.9,-10.3 -1.03,-20.47 -0.39,-30.51c0.026,-0.353 -0.14,-0.52 -0.5,-0.5l-27.06,1.4c-0.388,0.017 -0.698,0.341 -0.698,0.73c-0,0.054 0.006,0.108 0.018,0.16c0.89,3.99 1.25,7.11 1.07,11.28c-0.32,7.28 -0.487,13.734 -0.5,19.36c-0.007,1.787 -0.934,2.817 -2.78,3.09l-0.11,0c-1.934,0.02 -2.974,-0.89 -3.12,-2.73c-0.46,-5.653 -0.424,-11.75 0.11,-18.29c0.326,-4.073 0.523,-8.386 0.59,-12.94c-0,-0.266 -0.134,-0.396 -0.4,-0.39l-8.01,0.18c-0.32,0.007 -0.604,0.107 -0.85,0.3c-3.994,3.12 -9.057,6.467 -15.19,10.04c-6.494,3.78 -13.227,5.887 -20.2,6.32c-1.267,0.08 -4.514,-0.13 -9.74,-0.63c-4.53,-0.43 -3.44,-4.96 -2.54,-7.97c0.533,-1.773 0.92,-3.28 1.16,-4.52c1.506,-7.813 2.346,-12.046 2.52,-12.7c2.293,-8.633 5.383,-16.966 9.27,-25c0.86,-1.793 3.673,-6.65 8.44,-14.57c0.16,-0.266 0.166,-0.54 0.02,-0.82c-0.087,-0.153 -0.317,-0.566 -0.69,-1.24c-1.17,-2.11 -0.22,-5.78 0.59,-8.58c0.446,-1.526 1.623,-3.576 3.53,-6.15c2.213,-2.973 4.88,-6.64 8,-11c0.56,-0.786 1.55,-1.476 2.97,-2.07c0.293,-0.126 0.456,-0.35 0.49,-0.67c0.44,-4.26 1.34,-7.746 2.7,-10.46c0.173,-0.36 0.063,-0.546 -0.33,-0.56c-2.694,-0.113 -4.55,-1.41 -5.57,-3.89c-2.66,-6.46 -2.92,-11.69 -2.79,-19.5c0.046,-2.966 0.23,-6.413 0.55,-10.34c0.533,-6.726 0.89,-13.596 1.07,-20.61c0.013,-0.573 0.23,-1.946 0.65,-4.12c0.313,-1.62 1.136,-2.49 2.47,-2.61c1.833,-0.16 2.8,-0.25 2.9,-0.27c6.38,-1.766 12.773,-2.84 19.18,-3.22c0.846,-0.053 1.25,-0.506 1.21,-1.36c-0.22,-4.18 0.13,-8.34 -1.41,-13.05c-0.2,-0.606 -1.667,-2.85 -4.4,-6.73c-2,-2.84 -3.184,-4.97 -3.55,-6.39c-0.66,-2.573 -0.3,-5.123 1.08,-7.65c0.69,-1.27 2.06,-2.53 3.51,-2.57c1.38,-0.033 1.58,-0.413 0.6,-1.14c-0.734,-0.54 -2.164,-1.716 -4.29,-3.53c-1.827,-1.546 -2.9,-3.11 -3.22,-4.69c-0.647,-3.173 -0.467,-5.73 0.54,-7.67c2.2,-4.26 5.743,-5.76 10.63,-4.5c0.28,0.074 0.42,-0.033 0.42,-0.32Zm45.62,115.24c0.195,0.036 0.393,-0.061 0.49,-0.24c0.68,-1.326 1.13,-2.806 1.35,-4.44c0.706,-5.213 1.003,-10.2 0.89,-14.96c-0.254,-10.493 -0.817,-20.89 -1.69,-31.19c-0.035,-0.44 -0.378,-0.8 -0.82,-0.86c-5.85,-0.78 -11.49,-1.58 -17.84,-1.31c-6.927,0.3 -11.867,0.477 -14.82,0.53c-4.294,0.08 -9.204,0.567 -14.73,1.46c-5.734,0.927 -12.084,1.997 -19.05,3.21c-0.334,0.06 -0.514,0.257 -0.54,0.59c-0.24,2.62 0.18,5.25 0.08,7.9c-0.514,13.4 -0.79,21.034 -0.83,22.9c-0.14,6.95 -0.11,12.46 2.98,18.3c0.42,0.79 0.57,1.74 0.71,2.53c0.146,0.807 0.63,1.23 1.45,1.27c11.506,0.62 22.173,0.064 32,-1.67c3.02,-0.533 7.586,-1.15 13.7,-1.85c4.933,-0.566 9.473,-1.323 13.62,-2.27c0.68,-0.153 1.696,-0.12 3.05,0.1Zm-21.69,-26.63c3.133,-0.54 6.853,-1.41 11.16,-2.61c1.94,-0.546 3.423,-0.15 4.45,1.19c1.04,1.367 1.186,2.584 0.44,3.65c-0.454,0.64 -1.37,0.997 -2.75,1.07c-2.687,0.14 -7.037,0.59 -13.05,1.35c-0.347,0.047 -0.5,0.244 -0.46,0.59c0.506,4.587 0.81,8.67 0.91,12.25c0.12,4.25 -4.99,5.98 -7.03,2.04c-0.32,-0.62 -0.367,-1.86 -0.14,-3.72c0.34,-2.833 0.55,-6.18 0.63,-10.04c-0,-0.005 -0,-0.01 -0,-0.016c-0,-0.219 -0.181,-0.4 -0.4,-0.4c-0.024,0 -0.047,0.002 -0.07,0.006l-12.71,2.08c-1,0.167 -1.604,-0.243 -1.81,-1.23c-0.02,-0.093 -0.04,-0.183 -0.06,-0.27c-0.32,-1.266 0.116,-2.07 1.31,-2.41c3.94,-1.133 8.246,-1.926 12.92,-2.38c0.435,-0.045 0.772,-0.412 0.78,-0.85c0.073,-3.453 -0.087,-7.306 -0.48,-11.56c-0.074,-0.733 0.203,-1.53 0.83,-2.39c0.06,-0.082 0.128,-0.159 0.203,-0.228c0.626,-0.575 1.612,-0.537 2.184,0.085c0.069,0.075 0.13,0.156 0.183,0.243c0.733,1.194 1.176,2.534 1.33,4.02c0.513,4.994 0.88,8.047 1.1,9.16c0.053,0.3 0.23,0.424 0.53,0.37Zm-18.76,-78.63c-1.396,0.285 -2.813,-0.448 -3.38,-1.75c-0.84,-1.94 -2.07,-3.386 -3.69,-4.34c-1.42,-0.84 -2.56,-0.983 -3.42,-0.43c-4.44,2.84 -4.71,8.07 -0.53,11.11c2.11,1.53 11.13,7.32 7.47,10.87c-1.59,1.54 -4.39,-0.26 -5.89,1.42c-0.794,0.887 -1.124,1.74 -0.99,2.56c0.28,1.78 0.633,2.897 1.06,3.35c2.753,2.947 5.08,5.677 6.98,8.19c1.16,1.54 1.933,3.31 2.32,5.31c0.873,4.494 1.19,8.437 0.95,11.83c-0.007,0.087 0.03,0.127 0.11,0.12l9.46,-0.21c0.1,0 0.136,-0.046 0.11,-0.14c-1.18,-4.546 -0.57,-8.623 1.83,-12.23c1.44,-2.16 2.47,-3.686 3.09,-4.58c3.8,-5.42 5.13,-12.45 4.66,-19.1c-0.074,-1.1 -0.657,-1.726 -1.75,-1.88c-2.52,-0.346 -4.374,-0.703 -5.56,-1.07c-3.05,-0.94 -3.2,-4.37 -2.47,-6.93c0.16,-0.553 0.85,-1.92 2.07,-4.1c1.433,-2.56 2.393,-5.33 2.88,-8.31c0.36,-2.26 0.533,-3.99 0.52,-5.19c-0.02,-2.086 -0.344,-3.826 -0.97,-5.22c-0.814,-1.813 -2.21,-2.866 -4.19,-3.16c-4.5,-0.67 -8.42,-0.44 -10.27,4.55c-1.794,4.834 -1.197,9.754 1.79,14.76c0.953,1.607 0.603,3.037 -1.05,4.29c-0.06,0.04 -0.44,0.134 -1.14,0.28Zm2.29,5.88c-0.32,2.63 -0.48,5.36 1.98,7.38c3.32,2.72 4.633,6.454 3.94,11.2c-0.727,4.98 -1.16,9.634 -1.3,13.96c-0.007,0.252 -0.107,0.494 -0.28,0.68c-1.34,1.38 -2.15,1.154 -2.43,-0.68c-0.74,-4.873 -0.714,-8.653 0.08,-11.34c1.1,-3.75 1.22,-6.83 -1.11,-9.38c-0.3,-0.333 -0.984,-0.97 -2.05,-1.91c-2.75,-2.43 -3.62,-5.85 -2.82,-9.44c0.24,-1.073 0.756,-1.806 1.55,-2.2c0.234,-0.115 0.491,-0.175 0.752,-0.175c0.933,-0 1.7,0.767 1.7,1.7c0,0.068 -0.004,0.137 -0.012,0.205Zm-22.29,128.72c1.92,-1.3 3.7,-0.25 4.11,1.78c0.64,3.114 1.15,5.81 1.53,8.09c0.633,3.84 1.786,8.354 3.46,13.54c2.326,7.207 5.96,13.397 10.9,18.57c0.973,1.02 1.636,1.904 1.99,2.65c1.26,2.63 -0.95,4.71 -2.45,7.17c-0.947,1.56 -1.75,2.72 -2.41,3.48c-2.487,2.84 -5.174,6.037 -8.06,9.59c-0.447,0.56 -0.317,0.797 0.39,0.71c9.406,-1.113 18.723,-2.06 27.95,-2.84c1.153,-0.1 4.773,-0.333 10.86,-0.7c3.84,-0.233 7.473,-0.53 10.9,-0.89c0.326,-0.04 0.496,-0.226 0.51,-0.56c0.353,-11.953 0.206,-24.566 -0.44,-37.84c-0.06,-1.166 -0.074,-8.223 -0.04,-21.17c-0,-1.56 0.123,-4.443 0.37,-8.65c0.36,-5.97 0.17,-11.51 0.97,-17.88c0.046,-0.34 -0.104,-0.513 -0.45,-0.52c-2.074,-0.04 -3.487,-0.02 -4.24,0.06c-9.094,0.954 -20.024,2.547 -32.79,4.78c-6.074,1.067 -14.154,1.497 -24.24,1.29c-0.46,-0.013 -0.57,0.177 -0.33,0.57c0.14,0.227 0.233,0.44 0.28,0.64c0.08,0.347 0.103,0.767 0.07,1.26c-0.547,7.147 -1.054,13.124 -1.52,17.93c-0.001,0.011 -0.002,0.021 -0.002,0.031c0,0.22 0.181,0.4 0.4,0.4c0.087,0 0.172,-0.028 0.242,-0.081c0.213,-0.166 0.893,-0.636 2.04,-1.41Zm42.71,17.62c2.406,-0.166 5.443,-0.736 9.11,-1.71c1.42,-0.38 3.82,-0.26 4.78,1.04c1.3,1.73 0.8,3.74 -1.18,4.86c-0.394,0.227 -1.427,0.524 -3.1,0.89c-4.687,1.007 -7.914,1.42 -9.68,1.24c-0.327,-0.033 -0.5,0.13 -0.52,0.49c-0.007,0.2 0.073,1.77 0.24,4.71c0.106,1.874 0.116,3.447 0.03,4.72c-0.46,7.154 -0.464,14.43 -0.01,21.83c0.113,1.774 -0.77,2.907 -2.65,3.4c-0.06,0.014 -0.204,0.007 -0.43,-0.02c-1.927,-0.2 -2.924,-1.273 -2.99,-3.22c-0.1,-2.74 0.56,-5.79 0.46,-8.31c-0.327,-7.96 -0.414,-15.543 -0.26,-22.75c0.013,-0.366 -0.164,-0.53 -0.53,-0.49c-2.347,0.28 -4.374,0.42 -6.08,0.42c-2.854,0.007 -5.29,-0.706 -7.31,-2.14c-0.636,-0.449 -0.977,-1.213 -0.89,-1.99c0.18,-1.64 0.946,-2.363 2.3,-2.17c3.99,0.58 8.41,0.27 12.34,-0.32c0.373,-0.053 0.556,-0.266 0.55,-0.64l-0.39,-17.4c-0.027,-1.106 0.5,-1.783 1.58,-2.03c0.233,-0.053 0.373,-0.083 0.42,-0.09c1.446,-0.193 2.283,0.4 2.51,1.78c0.933,5.734 1.283,11.49 1.05,17.27c-0.02,0.447 0.196,0.657 0.65,0.63Zm-59.94,-2.72c1.993,-2.446 4.84,-5.073 8.54,-7.88c0.356,-0.262 0.562,-0.685 0.55,-1.13l-0.17,-7.37c-0,-0.24 -0.06,-0.253 -0.18,-0.04c-1.914,3.367 -4.14,6.63 -6.68,9.79c-1.65,2.06 -2.62,3.93 -2.69,6.39c-0.02,0.694 0.19,0.774 0.63,0.24Zm-20.3,66.27c-0.007,0.024 -0.01,0.049 -0.01,0.073c-0,0.133 0.098,0.248 0.23,0.267c4.006,0.534 7.92,0.487 11.74,-0.14c8.13,-1.33 16.15,-6.67 23.67,-12.06c2.82,-2.02 5.64,-4.74 8.46,-8.16c2.013,-2.446 4.586,-5.436 7.72,-8.97c0.773,-0.866 1.333,-1.696 1.68,-2.49c0.106,-0.24 0.07,-0.456 -0.11,-0.65c-4.754,-5.053 -8.02,-9.973 -9.8,-14.76c-2.98,-7.986 -5.297,-17.036 -6.95,-27.15c-0.054,-0.34 -0.197,-0.38 -0.43,-0.12c-1.15,1.32 -1.79,2.12 -2.96,3.05c-5.08,4.034 -9.657,9.4 -13.73,16.1c-6.934,11.407 -11.75,22.95 -14.45,34.63c-0.007,0.04 -1.694,6.834 -5.06,20.38Zm29.68,-36.67c2.22,-2.36 4.14,-4.22 5.76,-5.58c0.215,-0.18 0.488,-0.278 0.769,-0.278c0.507,-0 0.961,0.321 1.131,0.798c0.44,1.234 0.24,2.38 -0.6,3.44c-2.407,3.08 -4.377,5.327 -5.91,6.74c-0.252,0.229 -0.278,0.617 -0.06,0.87c1.58,1.847 3.88,4.127 6.9,6.84c1.26,1.134 1.39,2.384 0.39,3.75c-0.134,0.18 -0.227,0.28 -0.28,0.3c-1.658,0.663 -3.347,0.5 -4.25,-0.41c-2.694,-2.7 -4.684,-5.123 -5.97,-7.27c-0.073,-0.117 -0.202,-0.189 -0.341,-0.189c-0.125,-0 -0.244,0.059 -0.319,0.159c-3.44,4.774 -7.757,9.484 -12.95,14.13c-1.041,0.93 -2.732,0.783 -3.79,-0.33c-0.007,0 -0.037,-0.036 -0.09,-0.11c-1.134,-1.5 -1.044,-2.906 0.27,-4.22c4.22,-4.213 8.173,-7.816 11.86,-10.81c0.473,-0.386 1.353,-1.366 2.64,-2.94c0.213,-0.26 0.263,-0.546 0.15,-0.86c-1.48,-4.06 -2.547,-8.196 -3.2,-12.41c-0.187,-1.22 0.273,-2.093 1.38,-2.62c0.186,-0.086 0.386,-0.133 0.6,-0.14c1.026,-0.053 1.646,0.424 1.86,1.43c1.053,5.094 1.893,8.344 2.52,9.75c0.32,0.72 0.83,0.707 1.53,-0.04Z"/>
</svg>
