<svg viewBox="0 0 942 257" xmlns="http://www.w3.org/2000/svg">
  <path
    d="M359.255,99.143c0.493,-0.137 1.699,-0.541 3.619,-1.212c3.426,-1.201 6.256,-1.978 8.491,-2.329c0.85,-0.137 1.873,-0.102 3.069,0.102c0.813,0.137 1.566,0.727 2.258,1.771c2.235,3.394 3.693,6.087 4.375,8.081c3.704,10.875 5.652,22.303 5.847,34.284c-0,0.063 -0.076,0.638 -0.229,1.723c-0.126,0.892 0.174,1.645 0.897,2.259c0.197,0.166 0.295,0.425 0.26,0.684c-0.215,1.464 -0.742,2.419 -1.582,2.865c-0.562,0.297 -0.861,0.935 -0.731,1.558l2.746,13.156c0.037,0.168 0.128,0.21 0.275,0.126l20.097,-11.606c0.194,-0.111 0.294,-0.281 0.299,-0.512c0.047,-4.102 0.024,-7.216 -0.071,-9.34c-0.236,-5.256 -0.364,-8.433 -0.385,-9.529c-0.079,-3.809 -0.173,-7.274 -0.283,-10.395c-0.01,-0.243 -0.187,-0.449 -0.425,-0.496c-1.409,-0.267 -2.66,-1.384 -2.754,-2.88c-0.153,-2.386 -0.147,-4.453 0.015,-6.2c0.089,-0.897 0.024,-2.104 -0.196,-3.62c-0.092,-0.61 0.267,-1.204 0.849,-1.408c2.12,-0.756 4.166,-1.629 6.138,-2.621c1.264,-0.634 2.224,-0.886 2.88,-0.755c1.217,0.247 1.907,1.228 2.069,2.943c0.31,3.3 0.824,6.408 1.543,9.324c0.189,0.766 0.21,1.315 0.063,1.645c-0.307,0.716 -0.291,1.338 -0.701,2.117c-1.707,3.297 -1.495,7.766 -1.227,11.535c0.183,2.592 0.186,4.761 0.008,6.508c-0.179,1.72 -0.575,5.156 -1.188,10.308c-0.001,0.011 -0.002,0.021 -0.002,0.032c0,0.181 0.149,0.33 0.33,0.33c0.006,0 0.012,0 0.018,-0c1.873,-0.095 3.132,0.622 3.092,2.628c-0.037,1.647 -0.928,2.741 -2.675,3.281c-0.257,0.079 -0.412,0.252 -0.464,0.52c-0.698,3.887 -1.026,7.884 -0.984,11.992c0.016,1.353 -0.666,2.187 -2.046,2.502c-0.037,0.01 -0.115,0.013 -0.236,0.008c-1.432,-0.053 -2.258,-0.784 -2.479,-2.196c-0.514,-3.241 -0.598,-6.211 -0.251,-8.907c0.042,-0.31 -0.084,-0.409 -0.378,-0.299c-4.556,1.747 -10.08,4.997 -15.612,7.231c-1.689,0.677 -3.257,1.22 -4.705,1.629c-0.142,0.037 -0.197,0.129 -0.166,0.276c0.84,3.541 1.417,7.488 1.732,11.842c0.267,3.659 -0.04,8.876 0.338,13.322c0.435,5.256 0.656,7.921 0.661,7.995c0.199,3.074 0.448,6.145 0.747,9.214c0.126,1.251 1.425,3.14 0.166,4.769c-0.992,1.28 -2.463,1.948 -4.415,2.006c-1.227,0.037 -4.22,0.624 -8.978,1.763c-0.257,0.057 -0.383,0.217 -0.378,0.48c0.194,9.463 0.533,18.24 1.015,26.329c0.058,0.949 -0.112,1.857 -0.511,2.722c-0.106,0.231 -0.305,0.41 -0.551,0.496c-4.147,1.424 -4.949,-3.36 -4.627,-6.319c0.923,-8.482 1.409,-16.044 1.456,-22.685c0.005,-0.278 -0.131,-0.402 -0.409,-0.37c-2.146,0.257 -3.523,0.448 -4.131,0.574c-6.327,1.312 -11.135,2.209 -14.424,2.691c-0.461,0.069 -0.656,0.333 -0.582,0.795c0.75,4.926 1.309,9.54 1.676,13.841c0.278,3.211 0.283,6.03 0.016,8.459c-0.134,1.188 -0.543,2.849 -1.999,2.935c-1.757,0.11 -2.749,-0.65 -2.974,-2.282c-0.761,-5.534 -1.099,-13.088 -1.015,-22.662c-0,-0.252 -0.124,-0.385 -0.37,-0.401c-0.918,-0.063 -1.527,-0.039 -1.826,0.071c-1.773,0.676 -3.84,0.629 -6.2,-0.142c-0.052,-0.014 -0.108,0.009 -0.134,0.055c-1.595,2.933 -3.906,5.435 -6.933,7.507c-0.23,0.157 -2.064,1.301 -5.5,3.431c-1.306,0.81 -1.975,1.983 -2.77,3.25c-0.509,0.813 -1.374,0.868 -2.596,0.165c-0.85,-0.493 -1.351,-1.351 -1.503,-2.573c-0.425,-3.373 -1.039,-6.209 -1.842,-8.506c-1.361,-3.895 -3.895,-9.766 -5.421,-15.164c-0.409,-1.442 -0.74,-3.029 -0.992,-4.76c-0.283,-1.967 -0.724,-4.679 -1.322,-8.136c-0.173,-1.002 -0.115,-3.463 0.173,-7.381c0.168,-2.33 0.57,-4.748 1.204,-7.255c0.887,-3.494 1.629,-6.096 2.227,-7.806c0.483,-1.38 1.181,-2.382 2.093,-3.006c2.377,-1.613 7.192,3.352 9.427,5.382c0.226,0.205 0.428,0.184 0.606,-0.063l2.707,-3.73c0.152,-0.204 0.225,-0.432 0.22,-0.684l-0.259,-11.26c-0.006,-0.242 -0.092,-0.446 -0.26,-0.614c-0.687,-0.672 -1.102,-1.167 -1.243,-1.487c-1.522,-3.384 -2.825,-6.322 -3.911,-8.813c-0.724,-1.669 -1.196,-3.875 -1.417,-6.618c-0.293,-3.714 -0.592,-7.113 -0.897,-10.198c-0.125,-1.275 -0.099,-2.982 0.079,-5.123c0.54,-6.358 0.845,-10.969 0.913,-13.833c0.021,-1.07 0.131,-2.03 0.33,-2.88c0.417,-1.802 0.819,-3.533 2.054,-4.808c0.357,-0.372 1.049,-0.558 2.077,-0.558c3.657,-0 6.109,-0.048 7.358,-0.142c2.182,-0.163 4.81,-0.787 7.884,-1.873c0.252,-0.089 0.289,-0.231 0.11,-0.425c-0.629,-0.697 -0.96,-1.547 -0.991,-2.549c-0.009,-0.274 -0.146,-0.529 -0.37,-0.693c-1.138,-0.844 -2.046,-1.482 -2.722,-1.912c-3.305,-2.098 -4.53,-5.175 -3.675,-9.23c0.294,-1.411 0.986,-2.418 2.077,-3.022c0.221,-0.12 0.257,-0.285 0.11,-0.495c-3.058,-4.249 -4.771,-6.914 -5.138,-7.995c-1.201,-3.541 -1.28,-6.927 -0.236,-10.159c0.315,-0.975 1.123,-1.71 2.424,-2.203c1.251,-0.472 2.785,0.378 4.225,0.756c0.31,0.084 0.394,-0.019 0.252,-0.307c-1.726,-3.484 -1.784,-6.754 -0.173,-9.813c1.707,-3.234 5.327,-3.887 8.671,-3.525c2.523,0.273 4.627,1.54 6.311,3.801c1.212,1.631 2.038,2.762 2.479,3.391c1.471,2.093 1.259,5.312 0.873,7.995c-0.362,2.486 -1.248,5.597 -2.66,9.332c-0.414,1.086 -0.603,2.243 -0.566,3.47c0.01,0.252 0.123,0.446 0.338,0.583c3.549,2.203 2.967,4.784 3.274,9.112c0.236,3.305 -0.132,6.148 -1.102,8.53c-0.11,0.267 -0.026,0.361 0.252,0.283Zm55.459,14.644l-0.889,-3.652c-0.015,-0.058 -0.076,-0.093 -0.134,-0.078l-0.031,0.008c-0.626,0.155 -1.016,0.79 -0.866,1.408l0.386,1.605c0.152,0.62 0.793,1.004 1.422,0.851l0.033,-0.009c0.058,-0.015 0.094,-0.075 0.079,-0.133Zm-5.5,1.534c-0.016,-0.001 -0.032,-0.002 -0.048,-0.002c-0.302,-0 -0.55,0.249 -0.55,0.551c-0,0.003 -0,0.006 -0,0.01l0.015,0.574c0.006,0.32 0.168,0.472 0.488,0.456c1.574,-0.078 3.056,-0.39 4.446,-0.936c0.441,-0.173 0.425,-0.278 -0.047,-0.315l-4.304,-0.338Zm-76.343,72.157c0.754,0.047 1.349,0.681 1.349,1.437c0,0.061 -0.004,0.123 -0.012,0.184l-1.259,9.529c-0.036,0.299 0.09,0.488 0.378,0.566c3.108,0.85 6.012,-0.11 9.584,-1.054c0.341,-0.089 0.903,-0.118 1.684,-0.087c0.252,0.011 0.402,-0.107 0.449,-0.354c1.28,-6.347 2.035,-11.997 2.266,-16.949c0.016,-0.32 -0.1,-0.378 -0.346,-0.173c-2.251,1.831 -4.902,3.04 -7.956,3.627c-0.262,0.048 -0.495,0.158 -0.7,0.331c-2.573,2.187 -3.769,-0.189 -5.98,-0.638c-5.241,-1.062 -7.342,-3.533 -10.45,-7.428c-0.509,-0.64 -0.837,-0.561 -0.984,0.236c-0.876,4.617 -1.489,8.197 -1.841,10.741c-0.472,3.421 -0.54,6.256 -0.204,8.506c1.196,8.037 3.284,16.475 6.263,25.314c0.42,1.249 1.013,3.843 1.779,7.783c0.052,0.257 0.188,0.317 0.409,0.181c5.272,-3.221 8.267,-5.231 8.986,-6.028c2.434,-2.707 4.152,-5.972 5.154,-9.797c1.29,-4.915 2.012,-7.769 2.164,-8.561c0.063,-0.33 -0.068,-0.451 -0.394,-0.362c-3.824,1.055 -7.291,1.118 -10.402,0.189c-0.299,-0.089 -0.462,0.021 -0.488,0.331c-0.299,3.54 -0.286,8.742 0.039,15.603c0.048,1.009 -0.57,1.937 -1.518,2.282c-0.373,0.131 -0.598,0.192 -0.677,0.181c-1.637,-0.204 -2.494,-1.046 -2.573,-2.526c-0.294,-5.739 -0.144,-11.394 0.448,-16.965c0.032,-0.293 -0.091,-0.493 -0.369,-0.598c-2.212,-0.834 -4.69,-2.124 -4.336,-4.871c0.096,-0.732 0.727,-1.286 1.467,-1.286c0.306,-0 0.604,0.095 0.854,0.271c0.803,0.567 1.697,0.96 2.683,1.181c0.268,0.063 0.431,-0.042 0.488,-0.315c0.782,-3.578 1.55,-6.568 2.306,-8.97c0.336,-1.06 0.915,-1.564 1.739,-1.511Zm79.923,-65.39c0.152,0 0.304,-0.002 0.456,-0.008c0.278,-0.01 0.449,-0.149 0.512,-0.417c0.052,-0.199 0.063,-0.404 0.031,-0.614c-0.042,-0.272 -0.199,-0.43 -0.472,-0.472c-0.162,-0.026 -0.33,-0.039 -0.503,-0.039c-0.173,-0.005 -0.341,0.003 -0.504,0.024c-0.278,0.036 -0.441,0.191 -0.488,0.464c-0.037,0.204 -0.031,0.409 0.016,0.614c0.052,0.267 0.218,0.409 0.496,0.425c0.152,0.01 0.304,0.018 0.456,0.023Zm-62.156,54.09c0.087,1.314 -0.22,2.18 -0.055,3.431c0.373,2.864 0.47,4.852 0.292,5.965c-0.609,3.75 -1.044,7.129 -1.307,10.134c-0.383,4.297 -0.857,7.652 -1.424,10.065c-0.598,2.549 -1.718,6.609 -3.36,12.181c-0.007,0.023 -0.011,0.047 -0.011,0.072c0,0.133 0.11,0.244 0.244,0.244c0.031,-0 0.061,-0.006 0.09,-0.017c2.785,-0.987 5.754,-1.779 8.907,-2.377c5.503,-1.054 8.283,-1.587 8.341,-1.597c3.927,-0.858 8.058,-1.826 12.763,-2.18c3.053,-0.231 6.83,-0.876 11.331,-1.936c0.252,-0.062 0.391,-0.22 0.417,-0.472c0.121,-1.054 0.124,-2.468 0.008,-4.241c-0.273,-4.039 -0.616,-7.578 -1.031,-10.615c-0.335,-2.492 -0.495,-5.912 -0.48,-10.261c0.037,-9.495 -0.545,-17.77 -1.746,-24.826c-0.824,-4.826 -1.322,-8.165 -1.496,-10.017c-0.026,-0.267 -0.165,-0.357 -0.417,-0.267c-7.171,2.549 -12.931,4.343 -17.279,5.382c-1.49,0.357 -3.061,0.865 -4.714,1.526c-2.998,1.197 -7.57,3.227 -11.126,4.139c-3.628,0.929 -7.79,1.739 -12.071,1.204c-0.294,-0.036 -0.414,0.092 -0.362,0.386l0.944,5.776c0.02,0.108 0.115,0.187 0.225,0.187c0.049,0 0.098,-0.016 0.137,-0.046c1.191,-0.892 2.34,-1.091 3.447,-0.598c0.237,0.101 0.426,0.29 0.527,0.527c1.07,2.503 -1.456,3.73 -3.352,5.178c-0.22,0.168 -0.328,0.391 -0.323,0.669l0.103,4.627c0.01,0.315 0.17,0.448 0.48,0.401c2.077,-0.309 3.294,-0.593 3.651,-0.85c2.376,-1.707 5.524,-4.162 8.238,-2.471c0.238,0.148 0.39,0.4 0.409,0.677Zm13.008,9.797c-2.828,0.865 -5.653,1.524 -8.475,1.975c-0.829,0.131 -1.333,-0.281 -1.511,-1.236c0,-0.005 -0.003,-0.023 -0.008,-0.055c-0.084,-0.986 0.399,-1.649 1.448,-1.99l8.121,-2.652c0.241,-0.078 0.402,-0.295 0.393,-0.527c-0.199,-3.777 -0.69,-7.473 -1.471,-11.088c-0.003,-0.01 -0.005,-0.02 -0.007,-0.03c-0.12,-0.632 0.304,-1.252 0.94,-1.373c0.009,-0.002 0.018,-0.004 0.027,-0.005l0.432,-0.071c0.866,-0.141 1.398,0.215 1.598,1.07l2.423,10.458c0.053,0.231 0.192,0.302 0.417,0.212c3.195,-1.264 5.669,-2.04 7.421,-2.329c1.613,-0.259 3.391,0.276 3.478,2.148c0.086,1.936 -1.527,2.739 -3.266,2.888c-2.261,0.194 -4.619,0.706 -7.074,1.535c-0.257,0.084 -0.372,0.262 -0.346,0.535c0.792,8.094 1.516,14.552 2.172,19.373c0.105,0.792 -0.074,1.479 -0.535,2.061c-0.992,1.259 -3.014,1.291 -4.084,0.142c-0.598,-0.645 -0.879,-1.563 -0.842,-2.754c-0,-0.032 -0.024,-1.023 -0.071,-2.975c-0.063,-2.664 -0.302,-7.661 -0.716,-14.99c-0.016,-0.304 -0.171,-0.411 -0.464,-0.322Zm-16.91,-98.486c-0.95,2.114 -2.432,3.14 -4.446,3.077c-0.305,-0.011 -0.465,0.136 -0.48,0.44c-0.089,1.894 0.469,3.19 1.676,3.888c2.208,1.259 3.554,2.132 4.036,2.62c1.38,1.39 1.648,3.252 0.803,5.587c-0.11,0.315 -0.013,0.406 0.291,0.275l5.233,-2.305c0.22,-0.095 0.325,-0.263 0.315,-0.504c-0.016,-0.409 0.076,-1.167 0.275,-2.274c0.546,-2.995 0.714,-7.003 0.504,-12.024c-0.011,-0.251 -0.124,-0.44 -0.339,-0.566c-2.444,-1.432 -3.328,-3.557 -2.651,-6.374c0.456,-1.899 1.23,-4.149 2.321,-6.751c0.635,-1.522 1.06,-2.857 1.275,-4.005c0.582,-3.148 1.125,-5.005 -0.347,-7.232c-0.842,-1.275 -3.037,-4.548 -4.642,-4.918c-2.644,-0.614 -5.595,-0.299 -6.264,2.447c-0.225,0.924 -0.084,2.385 0.425,4.383c0.446,1.758 0.934,3.504 1.464,5.241c0.068,0.236 -0.071,0.949 -0.417,2.14c-0.252,0.866 -0.653,1.403 -1.204,1.613c-1.228,0.465 -2.093,-0.055 -2.778,-1.101c-0.698,-1.071 -1.839,-1.773 -3.423,-2.109c-0.299,-0.063 -0.464,0.058 -0.496,0.362c-0.304,2.979 0.202,5.592 1.519,7.837c1.747,2.974 4.165,6.188 7.255,9.639c0.163,0.184 0.194,0.389 0.095,0.614Zm1.447,-9.12c0.084,0.478 0.711,1.86 1.881,4.147c0.839,1.652 1.348,3.04 1.527,4.163c0.005,0.031 0.063,1.534 0.173,4.508c0.042,1.034 0.178,1.847 0.409,2.44c0.341,0.886 0.469,1.734 0.385,2.541c-0.03,0.304 -0.289,0.538 -0.595,0.538c-0.068,0 -0.135,-0.011 -0.199,-0.034c-3.762,-1.338 -3.258,-5.162 -3.282,-8.538c-0.005,-0.991 -0.369,-2.397 -1.093,-4.217c-0.855,-2.151 -1.488,-4.134 -1.897,-5.949c-0.241,-1.07 0.027,-1.839 0.803,-2.306c0.226,-0.139 0.557,-0.074 0.803,0.158l1.251,1.188c0.157,0.152 0.17,0.362 0.039,0.629c-0.021,0.053 -0.06,0.129 -0.118,0.229c-0.084,0.157 -0.113,0.325 -0.087,0.503Zm19.672,30.374c0.562,0.084 1.139,0.43 1.732,1.038c2.942,3.032 4.76,6.466 5.453,10.301c0.024,0.134 0.142,0.232 0.278,0.232c0.029,0 0.057,-0.004 0.084,-0.012l3.375,-1.039c0.173,-0.052 0.244,-0.17 0.213,-0.354c-0.378,-2.24 -1.107,-5.962 -2.188,-11.166c-0.519,-2.47 -1.534,-4.312 -2.762,-6.31c-0.224,-0.375 -0.631,-0.606 -1.07,-0.606c-3.866,-0.037 -7.596,0.729 -11.189,2.297c-3.877,1.695 -5.836,2.55 -5.878,2.566c-7.093,2.507 -10.933,3.855 -11.52,4.044c-3.903,1.217 -8.365,1.44 -13.385,0.669c-0.257,-0.042 -0.414,0.066 -0.472,0.323c-0.273,1.253 -0.415,2.061 -0.425,2.423c-0.205,5.771 -0.231,11.182 -0.079,16.234c0.042,1.563 0.252,3.443 0.63,5.641c0.409,2.419 0.677,4.307 0.802,5.666c0.331,3.609 0.787,6.02 1.37,7.231c1.484,3.085 2.73,5.543 3.737,7.373c0.559,1.008 0.701,2.031 0.512,3.172c-0.003,0.016 -0.005,0.032 -0.005,0.049c0,0.155 0.128,0.283 0.284,0.283c0.012,0 0.024,-0 0.035,-0.002c6.366,-0.858 12.189,-2.243 18.35,-5.044c4.318,-1.962 8.64,-3.507 12.968,-4.635c2.243,-0.59 4.887,-2.03 7.31,-2.84c1.894,-0.63 3.67,-1.469 5.327,-2.518c0.221,-0.142 0.326,-0.341 0.315,-0.598c-0.278,-5.949 -0.829,-12.034 -1.652,-18.256c-0.047,-0.362 -0.252,-0.538 -0.614,-0.527l-2.723,0.055c-0.295,0.009 -0.534,0.255 -0.534,0.551c-0,0.053 0.008,0.106 0.023,0.157c1.144,3.814 1.784,8.575 1.92,14.282c0.037,1.563 -0.85,2.586 -2.66,3.069c-0.042,0.016 -0.081,0.021 -0.118,0.016c-2.082,-0.362 -3.163,-1.425 -3.242,-3.187c-0.215,-5.031 -0.703,-9.078 -1.463,-12.142c-0.063,-0.262 -0.223,-0.354 -0.48,-0.275c-3.132,0.986 -5.063,1.589 -5.792,1.81c-0.808,0.246 -1.526,0.267 -2.156,0.063c-0.075,-0.024 -0.148,-0.054 -0.219,-0.089c-0.766,-0.38 -1.085,-1.32 -0.707,-2.082c0.036,-0.071 0.077,-0.14 0.124,-0.206c0.267,-0.372 0.752,-0.711 1.455,-1.015c1.669,-0.729 3.77,-1.518 6.303,-2.368c0.364,-0.122 0.586,-0.496 0.52,-0.874c-0.289,-1.563 -0.562,-2.796 -0.819,-3.698c-0.637,-2.251 -2.211,-4.564 -2.958,-6.445c-0.528,-1.337 0.157,-3.541 1.99,-3.257Zm41.272,1.101l-0.692,2.211c-0.006,0.018 -0.009,0.037 -0.009,0.056c0,0.083 0.055,0.156 0.135,0.181l0.204,0.062c0.026,0.011 0.047,0.003 0.063,-0.023c0.698,-1.364 1.579,-2.529 2.644,-3.494c0.331,-0.299 0.616,-0.462 0.858,-0.488c0.241,-0.026 0.582,0.055 1.023,0.244c0.304,0.131 0.451,0.032 0.44,-0.299l-0.031,-1.511c-0.005,-0.262 -0.134,-0.348 -0.386,-0.259l-4.611,1.684c-0.191,0.068 -0.319,0.249 -0.319,0.452c0,0.114 0.041,0.224 0.115,0.311c0.099,0.115 0.212,0.212 0.338,0.291c0.231,0.136 0.307,0.331 0.228,0.582Zm4.753,-18.507c0.661,-4.758 0.886,-7.515 0.677,-8.27c-0.562,-2.004 -1.173,-4.034 -1.834,-6.091c-0.046,-0.14 -0.073,-0.286 -0.083,-0.434c-0.058,-0.961 0.688,-1.8 1.653,-1.859c0.146,-0.009 0.293,-0 0.437,0.027c1.128,0.221 2.224,0.837 3.289,1.849c0.698,0.656 1.385,1.621 2.062,2.896c1.432,2.691 2.3,4.296 2.604,4.816c1.249,2.145 2.054,4.173 2.416,6.082c0.566,2.975 -1.07,4.541 -2.841,6.602c-0.296,0.342 -0.296,0.855 0,1.196c1.102,1.267 2.015,2.267 2.542,3.903c0.456,1.432 0.771,2.888 0.944,4.367c0.456,3.872 0.512,6.941 -2.691,9.364c-2.038,1.55 -5.154,0.889 -4.092,-2.313c0.582,-1.755 2.754,-2.668 2.55,-5.217c-0.132,-1.579 -0.305,-3.153 -0.52,-4.721c-0.212,-1.614 -1.92,-2.668 -2.455,-3.895c-0.886,-2.046 -0.771,-3.814 0.346,-5.304c1.044,-1.385 1.656,-2.261 1.834,-2.628c0.11,-0.231 0.139,-0.475 0.086,-0.732c-0.86,-3.961 -2.344,-7.926 -4.453,-11.898c-0.294,-0.55 -0.388,-0.519 -0.284,0.095c0.205,1.188 0.74,2.51 0.85,3.549c0.483,4.826 0.59,8.406 0.323,10.741c-0.294,2.56 -1.818,4.183 -4.572,4.87c-0.252,0.063 -0.493,0.04 -0.724,-0.071c-0.986,-0.472 -1.463,-1.342 -1.432,-2.612l0,-0.003c0,-0.125 -0.103,-0.228 -0.228,-0.228c-0.071,0 -0.138,0.033 -0.181,0.089l-0.866,1.204c-0.152,0.205 -0.343,0.357 -0.574,0.457c-2.077,0.905 -4.336,1.589 -5.374,3.045c-0.971,1.364 -1.737,3.04 -2.298,5.028c-0.315,1.117 -0.194,2.287 0.362,3.51c1.298,2.848 3.21,4.343 2.274,8.6c-0.057,0.248 -0.267,0.432 -0.519,0.457c-1.165,0.099 -1.886,-0.229 -2.164,-0.984c-0.751,-2.02 -1.406,-3.572 -1.968,-4.658c-1.033,-1.999 -1.579,-3.533 -1.636,-4.604c-0.063,-1.274 0.262,-2.906 0.975,-4.894c0.808,-2.235 1.802,-3.971 2.983,-5.209c1.621,-1.7 4.367,-2.581 6.397,-3.887c2.429,-1.574 3.176,-3.722 2.243,-6.445c-0.399,-1.17 -0.037,-1.904 1.086,-2.203c0.136,-0.037 0.212,-0.058 0.228,-0.063c1.149,-0.325 1.857,0.055 2.124,1.141c0.341,1.359 0.488,3.134 0.441,5.327c-0,0.001 -0,0.003 -0,0.004c-0,0.017 0.014,0.032 0.031,0.032c0.016,-0 0.03,-0.012 0.032,-0.028Z"/>
  <path
    d="M722.617,190.775c-1.332,-0.918 -1.747,-2.337 -1.243,-4.257c0.556,-2.124 0.85,-3.876 0.881,-5.256c0.032,-1.38 -0.304,-3.098 -1.007,-5.154c-0.944,-2.759 -1.771,-5.618 -2.479,-8.577c-0.262,-1.102 0.118,-1.7 1.141,-1.794c0.005,-0 0.026,-0.003 0.063,-0.008c0.932,-0.117 1.828,0.395 2.18,1.243c1.316,3.2 2.305,5.579 2.966,7.137c0.929,2.193 1.438,4.286 1.527,6.28c0.099,2.334 -0.097,4.503 -0.59,6.507c-0.357,1.432 -0.798,2.439 -1.322,3.022c-0.955,1.07 -0.748,1.361 0.621,0.873c2.162,-0.766 4.808,-1.967 7.94,-3.604c0.22,-0.115 0.281,-0.288 0.181,-0.519c-1.023,-2.476 -1.849,-5.301 -2.479,-8.475c-0.257,-1.322 -0.377,-2.985 -0.362,-4.989c0.021,-2.418 -0.039,-4.089 -0.181,-5.012c-0.75,-4.884 -2.161,-8.729 -4.233,-11.536c-0.971,-1.311 -2.807,-2.455 -5.508,-3.43c-0.242,-0.084 -0.43,-0.016 -0.567,0.204c-4.092,6.746 -9.975,10.597 -17.649,11.552c-2.55,0.32 -4.84,0.002 -6.87,-0.953c-1.191,-0.561 -2.403,-0.962 -3.635,-1.203c-5.154,-1.008 -10.041,-7.303 -12.181,-11.749c-3.845,-7.958 -3.979,-16.099 -0.401,-24.424c3.171,-7.373 10.615,-13.716 18.892,-13.983c0.268,-0.011 0.512,-0.092 0.732,-0.244c1.737,-1.228 3.504,-2.07 5.304,-2.526c4.501,-1.138 9.073,-2.46 13.715,-3.966c8.178,-2.649 12.296,-3.981 12.354,-3.997c3.588,-1.102 7.809,-2.442 12.661,-4.021c4.858,-1.579 8.963,-2.754 12.315,-3.525c2.602,-0.598 6.722,-1.705 12.361,-3.321c1.406,-0.404 2.571,-0.27 3.494,0.401c0.672,0.488 0.986,1.06 0.944,1.716c-0.052,0.776 -0.217,1.353 -0.495,1.731c-0.163,0.215 -0.176,0.441 -0.04,0.677c2.078,3.525 1.134,7.278 0.26,11.197c-0.063,0.283 -0.021,0.551 0.126,0.803l1.951,3.391c0.126,0.218 0.396,0.312 0.63,0.22c4.65,-1.747 8.593,-2.478 12.999,0.598c0.944,0.661 1.92,2.023 1.283,3.234c-1.346,2.55 -4.242,0.842 -6.531,-0.204c-0.336,-0.158 -1.078,-0.144 -2.227,0.039c-1.897,0.291 -4.847,1.983 -6.956,1.479c-1.453,-0.346 -2.579,-1.353 -3.376,-3.021c-0.299,-0.619 -0.569,-0.609 -0.81,0.031c-0.556,1.474 -1.21,3.137 -1.96,4.989c-0.734,1.815 -0.653,3.717 0.244,5.705c0.583,1.29 0.645,1.755 2.054,1.975c1.516,0.241 2.707,0.467 3.572,0.677c5.96,1.484 8.449,5.445 7.468,11.882c-0.165,1.093 -1.212,2.14 -2.408,1.912c-2.581,-0.48 -2.675,-3.455 -3.045,-5.815c-0.449,-2.841 -3.478,-2.628 -6.35,-3.006c-3.515,-0.457 -5.81,-2.434 -6.885,-5.933c-0.651,-2.109 -0.974,-3.806 -0.968,-5.091c0.005,-0.903 0.558,-2.647 1.66,-5.233c1.416,-3.321 2.925,-6.599 4.525,-9.836c0.598,-1.201 1.02,-3.129 1.266,-5.784c0.032,-0.341 -0.063,-0.377 -0.283,-0.11c-1.385,1.716 -3.816,4.226 -7.294,7.531c-1.327,1.264 -3.746,3.785 -7.255,7.562c-9.931,10.68 -18.71,19.758 -26.337,27.233c-1.952,1.91 -3.562,4.15 -4.832,6.72c-0.314,0.64 -0.123,1.036 0.575,1.189c4.658,1.028 7.853,3.858 9.584,8.49c1.799,4.821 2.778,7.908 2.935,9.262c0.257,2.145 0.512,4.356 0.763,6.633c0.163,1.469 0.499,2.872 1.008,4.21c0.59,1.55 1.314,3.635 2.337,5.327c1.552,2.549 2.709,4.485 3.47,5.807c0.703,1.222 1.414,2.064 2.132,2.526c4.517,2.927 5.76,5.917 4.902,11.701c-0.036,0.252 -0.582,3.069 -1.636,8.451c-0.079,0.383 -0.131,0.86 -0.158,1.432c-0.021,0.504 0.034,0.973 0.166,1.409c1.899,6.42 4.338,11.973 7.318,16.658c0.608,0.954 1.615,1.807 3.021,2.557c0.221,0.115 0.333,0.299 0.339,0.551c0.078,2.565 0.123,4.118 0.133,4.658c0.011,0.934 -0.175,1.716 -0.558,2.345c-0.541,0.887 -1.196,1.432 -1.968,1.637c-5.209,1.408 -9.922,3.879 -15.123,5.894c-0.84,0.325 -2.07,0.537 -3.691,0.637c-2.46,0.157 -4.981,1.102 -7.562,2.833c-4.052,2.714 -7.994,4.178 -12.731,2.636c-3.09,-1.007 -6.062,-2.08 -8.916,-3.219c-1.909,-0.76 -3.488,-1.277 -4.737,-1.55c-2.179,-0.48 -3.966,-1.487 -6.468,-1.526c-2.534,-0.04 -5.39,-0.244 -7.735,0.716c-0.252,0.099 -0.49,0.078 -0.716,-0.063c-0.472,-0.304 -0.761,-0.706 -0.866,-1.204c-0.052,-0.268 0.014,-0.498 0.197,-0.693c0.813,-0.844 1.839,-1.4 3.077,-1.668c1.983,-0.433 5.909,-1.589 8.404,-1.101c1.757,0.341 3.522,0.637 5.295,0.889c1.349,0.194 3.077,0.637 5.186,1.33c4.338,1.426 7.281,2.358 8.829,2.793c3.855,1.086 7.168,-1.503 11.417,-4.005c3.085,-1.818 7.106,-1.432 10.002,-2.526c0.792,-0.299 4.207,-1.807 10.245,-4.525c1.259,-0.566 2.762,-0.771 4.013,-1.314c1.595,-0.682 1.55,-1.235 -0.134,-1.66c-0.241,-0.058 -0.671,-0.165 -1.29,-0.323c-5.383,-1.377 -10.552,-16.563 -11.379,-20.498c-0.283,-1.338 -0.178,-3.103 0.315,-5.296c0.74,-3.268 1.238,-5.812 1.495,-7.632c0.158,-1.097 0.053,-2.083 -0.315,-2.959c-0.204,-0.483 -0.886,-1.115 -2.046,-1.896c-2.266,-1.532 -3.897,-3.533 -4.894,-6.004c-0.122,-0.309 -0.422,-0.512 -0.753,-0.512c-0.154,-0 -0.305,0.044 -0.435,0.126c-1.952,1.238 -4.171,2.377 -6.657,3.415c-1.883,0.792 -3.688,1.189 -5.414,1.189c-2.387,0.005 -4.27,-0.2 -5.65,-0.614c-1.185,-0.346 -1.639,0.081 -1.361,1.282l0.937,4.037c0.288,1.228 1.062,1.836 2.321,1.826c2.762,-0.032 6.421,0.102 8.53,1.825c0.881,0.719 1.337,1.535 1.369,2.447c0.063,1.611 -0.16,2.904 -0.669,3.88c-0.441,0.85 -1.065,1.295 -1.873,1.337c-0.548,0.028 -1.059,-0.285 -1.282,-0.787l-1.165,-2.659c-0.121,-0.278 -0.323,-0.47 -0.606,-0.575c-1.532,-0.566 -3.281,-0.939 -5.248,-1.117c-1.008,-0.089 -2.246,-0.826 -3.715,-2.211c-0.019,-0.017 -0.045,-0.026 -0.071,-0.026c-0.056,-0 -0.103,0.042 -0.109,0.097l-0.024,0.22c-0,0.026 0.008,0.05 0.024,0.071c1.71,2.072 2.79,4.364 3.241,6.877c0.158,0.866 -0.314,1.417 -1.416,1.653c-0.792,0.173 -1.345,-0.113 -1.66,-0.858c-1.726,-4.113 -4.163,-7.995 -7.31,-11.646c-1.787,-2.069 -0.575,-4.43 0.747,-6.948c0.147,-0.273 0.068,-0.433 -0.236,-0.48c-2.46,-0.399 -4.816,-0.165 -7.066,0.7c-1.626,0.625 -3.798,1.886 -6.515,3.785c-0.215,0.152 -0.37,0.349 -0.465,0.59c-0.76,1.978 -1.117,4.103 -1.07,6.374c0.087,4.013 3.171,7.908 3.226,12.031c0.048,3.216 -0.39,6.128 -1.314,8.735c-1.196,3.383 -3.564,6.051 -5.421,8.821c-1.359,2.019 -1.792,3.89 -1.299,5.61c0.724,2.523 1.013,4.297 0.866,5.319c-0.037,0.268 -0.157,0.488 -0.362,0.661c-1.881,1.621 -3.659,0.402 -4.493,-1.534c-1.123,-2.597 -1.406,-5.025 -0.85,-7.286c0.645,-2.608 1.448,-4.572 2.408,-5.894c1.29,-1.786 3.509,-4.596 4.367,-7.011c0.729,-2.046 1.167,-4.194 1.314,-6.445c0.089,-1.343 -0.17,-2.864 -0.779,-4.564c-0.32,-0.886 -0.818,-2.397 -1.495,-4.532c-0.189,-0.588 -0.26,-1.965 -0.212,-4.131c0.026,-1.233 0.212,-2.589 0.558,-4.068c0.462,-1.999 1.338,-5.233 2.628,-9.703c0.331,-1.141 0.795,-1.455 1.511,-2.022c0.284,-0.22 0.247,-0.349 -0.11,-0.385c-1.495,-0.147 -2.817,-0.856 -3.966,-2.125c-0.771,-0.855 -1.508,-1.576 -2.211,-2.164c-0.204,-0.173 -0.372,-0.126 -0.503,0.142c-0.063,0.126 -0.473,1.403 -1.228,3.832c-0.986,3.153 -2.269,5.928 -3.848,8.325c-0.239,0.357 -0.642,0.572 -1.072,0.572c-0.586,0 -1.102,-0.398 -1.249,-0.965c-0.304,-1.197 -0.184,-2.437 0.362,-3.722c0.582,-1.359 2.169,-4.968 4.76,-10.828c0.26,-0.598 0.174,-1.731 -0.078,-2.471c-1.967,-5.807 -1.23,-11.042 2.211,-15.706c0.357,-0.482 0.81,-0.606 1.361,-0.37l1.173,0.488c0.02,0.009 0.041,0.019 0.061,0.029c0.548,0.274 0.772,0.954 0.495,1.506c-0.009,0.019 -0.019,0.037 -0.029,0.055c-1.642,2.854 -2.366,5.762 -2.172,8.726c0.053,0.792 0.572,2.594 1.558,5.406c0.084,0.247 0.241,0.433 0.472,0.559c1.999,1.109 7.302,3.942 6.98,6.735c-0.137,1.197 -0.735,1.844 -1.794,1.944c-0.32,0.026 -0.425,0.192 -0.315,0.496c0.388,1.049 0.546,2.437 0.472,4.162c0,0.003 0,0.006 0,0.008c0,0.182 0.149,0.331 0.331,0.331c0.074,-0 0.146,-0.025 0.204,-0.071c1.595,-1.27 3.604,-2.298 6.028,-3.085c2.809,-0.905 5.28,-0.598 9.356,-0.527c4.013,0.071 7.924,0.937 11.842,1.165c0.283,0.015 0.307,-0.058 0.071,-0.221Zm-9.584,9.325c0.016,-1.611 -0.034,-2.961 -0.15,-4.052c-0.013,-0.124 -0.048,-0.245 -0.103,-0.357c-0.257,-0.518 -0.891,-0.736 -1.406,-0.481c-0.113,0.056 -0.215,0.131 -0.3,0.224c-0.614,0.65 -1.05,1.555 -1.307,2.714c-0.052,0.231 -0.008,0.433 0.134,0.606l3.761,4.674c0.236,0.294 0.347,0.255 0.331,-0.118c-0,-0.099 -0.152,-0.595 -0.457,-1.487c-0.341,-0.997 -0.508,-1.571 -0.503,-1.723Zm5.154,-56.592c4.779,-4.543 8.656,-8.326 11.63,-11.347c5.786,-5.881 9.471,-9.611 11.056,-11.19c3.593,-3.572 7.163,-7.168 10.709,-10.788c4.745,-4.839 8.726,-8.215 12.999,-12.283c0.535,-0.509 0.438,-0.703 -0.291,-0.582c-2.539,0.42 -5.555,1.004 -9.049,1.755c-2.591,0.556 -5.558,1.34 -8.9,2.352c-8.981,2.718 -13.516,4.09 -13.605,4.116c-2.659,0.771 -5.298,1.6 -7.916,2.486c-2.224,0.756 -4.881,1.564 -7.971,2.424c-6.93,1.936 -11.876,3.341 -14.84,4.218c-0.913,0.272 -2.036,0.954 -3.368,2.045c-0.829,0.682 -1.626,1.126 -2.392,1.33c-0.221,0.063 -1.136,0.281 -2.746,0.653c-0.84,0.194 -1.029,0.656 -0.567,1.385c0.873,1.409 1.66,2.99 2.762,4.415c1.873,2.434 3.719,4.889 5.54,7.365c0.747,1.023 2.219,2.384 3.958,2.471c3.8,0.181 6.861,0.857 8.789,4.839c0.907,1.883 1.896,3.774 2.966,5.673c0.179,0.32 0.32,0.305 0.425,-0.047c0.174,-0.551 0.347,-0.842 0.811,-1.29Zm-15.25,-4.092c-2.366,-0.645 -4.328,-2.219 -5.886,-4.721c-3.472,-5.587 -5.345,-8.632 -5.618,-9.136c-0.771,-1.437 -1.343,-2.898 -1.715,-4.383c-0.009,-0.036 -0.022,-0.071 -0.039,-0.104c-0.115,-0.218 -0.392,-0.301 -0.613,-0.184c-0.032,0.016 -0.061,0.037 -0.088,0.06c-6.578,5.907 -8.939,13.277 -7.082,22.111c1.28,6.064 4.435,10.547 9.466,13.448c8.475,4.886 17.831,2.132 23.245,-5.729c0.088,-0.131 0.068,-0.309 -0.048,-0.417c-1.967,-1.726 -3.388,-3.651 -4.265,-5.775c-0.687,-1.674 -1.188,-2.807 -1.502,-3.4c-1.189,-2.219 -4.344,-1.361 -5.855,-1.77Z"/>
  <path
    d="M208.431,173.463c0.44,3.997 0.7,10.051 0.779,18.161c0.057,5.545 0.674,13.312 1.849,23.3c0.136,1.143 -0.514,1.896 -1.952,2.258c-1.956,0.488 -3.871,0.981 -5.744,1.479c-0.267,0.069 -0.37,0.236 -0.307,0.504c0.934,4.128 1.629,8.616 2.086,13.463c0.322,3.36 1.361,8.223 1.636,11.237c0.096,1.088 -0.573,2.104 -1.605,2.439c-0.33,0.111 -0.525,0.166 -0.582,0.166c-1.695,0.105 -2.697,-0.611 -3.006,-2.148c-0.887,-4.386 -1.372,-7.282 -1.456,-8.688c-0.273,-4.548 -0.763,-9.825 -1.471,-15.832c-0.032,-0.288 -0.189,-0.409 -0.472,-0.362l-20.436,3.353c-0.33,0.052 -0.469,0.246 -0.417,0.582c0.465,3.029 1.055,5.713 1.047,8.695c-0.005,4.59 0.107,8.603 0.338,12.039c0.079,1.196 -0.454,1.98 -1.597,2.353c-0.173,0.058 -0.262,0.086 -0.268,0.086c-1.427,-0.131 -2.224,-0.789 -2.392,-1.975c-0.315,-2.266 -0.472,-4.078 -0.472,-5.437c0.011,-4.863 -0.205,-9.944 -0.645,-15.242c-0.021,-0.273 -0.171,-0.385 -0.449,-0.338c-2.885,0.477 -5.272,0.855 -7.16,1.133c-1.676,0.252 -2.676,-0.787 -3.895,-2.164c-0.168,-0.194 -0.268,-0.422 -0.299,-0.685c-1.144,-9.164 -1.989,-18.51 -2.534,-28.036c-0.189,-3.336 -0.779,-7.814 -1.369,-11.315c-0.116,-0.714 -0.273,-0.722 -0.472,-0.024c-1.774,6.19 -3.922,12.716 -6.445,19.578c-0.175,0.474 -0.551,0.853 -1.031,1.038c-0.975,0.373 -1.532,0.53 -1.668,0.472c-1.6,-0.739 -2.201,-1.77 -1.802,-3.092c0.089,-0.283 0.999,-3.079 2.731,-8.388c2.392,-7.329 4.847,-13.841 7.365,-19.538c0.194,-0.436 0.273,-0.89 0.236,-1.362c-0.205,-2.481 -0.388,-4.975 -0.551,-7.483c-0.22,-3.305 -0.873,-7.743 -0.936,-11.669c-0.016,-1.023 -0.074,-1.692 -0.173,-2.007c-0.147,-0.462 -0.271,-0.897 -0.37,-1.306c-0.1,-0.394 -0.082,-0.834 0.055,-1.322c0.739,-2.654 1.886,-5.794 3.438,-9.419c1.412,-3.284 3.004,-8.06 4.777,-14.329c0.687,-2.434 1.597,-4.86 2.73,-7.279c2.513,-5.345 4.234,-9.537 5.162,-12.574c0.808,-2.644 1.975,-7.861 3.502,-15.651c0.304,-1.532 0.632,-2.883 0.983,-4.052c0.352,-1.186 0.792,-2.508 1.322,-3.966c0.404,-1.128 1.233,-1.556 2.487,-1.283c1.065,0.231 1.946,0.989 2.644,2.274c1.778,3.274 3.625,7.638 5.539,13.094c0.939,2.675 2.524,6.809 4.753,12.401c1.716,4.291 3.927,10.229 6.634,17.815c1.61,4.522 3.771,8.957 6.483,13.306c0.714,1.144 1.123,2.55 1.228,4.218c0.037,0.608 0.283,2.793 0.74,6.554c0.299,2.429 0.464,4.622 0.495,6.579c0.074,4.406 0.302,8.808 0.685,13.204c0.002,0.018 0.005,0.036 0.01,0.054c0.049,0.188 0.24,0.304 0.424,0.256c0.018,-0.005 0.036,-0.011 0.054,-0.019l8.53,-3.746c0.317,-0.14 0.528,-0.446 0.542,-0.787c0.845,-18.439 1.968,-39.543 3.368,-63.312c0.457,-7.774 0.758,-18.888 0.905,-33.34c0.242,-22.972 0.352,-37.529 0.331,-43.672c-0.011,-4.564 0.076,-8.705 0.259,-12.425c0.01,-0.242 -0.141,-0.463 -0.369,-0.542c-2.605,-0.874 -1.259,-3.628 -0.41,-5.099c0.813,-1.412 1.6,-2.983 2.361,-4.714c0.339,-0.762 1.223,-1.129 1.991,-0.826c1.495,0.582 2.809,3.738 3.446,5.437c0.866,2.322 -0.299,4.068 -2.305,4.855c-0.283,0.11 -0.422,0.318 -0.417,0.622l0.134,5.823c0.005,0.246 0.123,0.409 0.354,0.488c5.586,1.888 11.847,5.114 18.782,9.678c2.597,1.716 4.257,2.933 4.981,3.651c1.978,1.978 3.195,3.686 3.651,5.123c0.732,2.29 1.464,4.477 2.613,6.657c0.556,1.054 1.553,2.911 2.99,5.571c0.85,1.574 1.448,3.533 2.203,5.233c0.084,0.183 0.383,0.886 0.897,2.109c1.39,3.299 3.573,5.878 6.547,7.735c0.913,0.571 2.977,1.364 6.193,2.376c5.088,1.605 9.411,4.108 12.968,7.507c2.224,2.13 4.044,5.052 5.461,8.766c0.293,0.771 0.624,2.683 0.991,5.736c0.446,3.651 1.729,7.121 3.848,10.41c0.173,0.268 0.551,1.217 1.133,2.849c0.889,2.471 -1.188,2.888 -2.117,4.517c-0.692,1.204 -0.826,2.966 -1.455,4.257c-0.787,1.615 -1.482,3.294 -2.086,5.036c-0.509,1.468 -0.708,2.979 -0.598,4.532c0.089,1.249 0.192,2.788 0.307,4.619c0.001,0.02 0.002,0.04 0.003,0.061c0.024,0.932 -0.68,1.718 -1.56,1.741c-0.022,0 -0.043,0 -0.064,0c-0.635,-0.01 -1.193,-0.33 -1.676,-0.96c-0.016,-0.021 -0.821,-1.112 -2.416,-3.273c-0.634,-0.866 -1.542,-1.774 -2.722,-2.723c-0.798,-0.645 -1.928,-1.052 -3.392,-1.22c-0.865,-0.099 -3.847,-0.522 -8.946,-1.267c-2.503,-0.367 -5.128,-1.481 -7.877,-3.344c-4.412,-2.985 -7.037,-5.052 -7.877,-6.2c-1.621,-2.214 -3.36,-4.499 -5.217,-6.854c-0.813,-1.039 -2.303,-1.91 -4.469,-2.613c-5.015,-1.636 -9.343,-4.015 -12.984,-7.137c-2.549,-2.195 -4.06,-5.429 -6.743,-7.404c-0.908,-0.666 -1.828,-1.301 -2.762,-1.904c-0.059,-0.038 -0.127,-0.059 -0.197,-0.059c-0.194,0 -0.355,0.156 -0.362,0.35c-0.11,3.989 0.205,7.64 -0.055,11.63c-0.393,5.881 -0.648,10.093 -0.763,12.637c-0.624,14.122 -1.584,33.243 -2.88,57.364c-0.016,0.257 0.092,0.325 0.322,0.204c1.228,-0.629 2.88,-1.267 4.1,-0.535c1.07,0.645 1.5,1.697 1.291,3.156c-0.036,0.254 -0.158,0.488 -0.347,0.661c-1.628,1.51 -3.517,1.66 -5.311,2.242c-0.229,0.071 -0.393,0.273 -0.417,0.512c-0.582,4.981 -0.74,11.653 -0.976,15.336c-1.07,17.274 -2.061,35.729 -2.974,55.365c-0.053,1.059 -0.538,1.644 -1.456,1.754c-0.026,0.006 -0.047,0.008 -0.063,0.008c-0.007,0.001 -0.015,0.001 -0.022,0.002c-0.81,0.057 -1.52,-0.531 -1.574,-1.302c-0,-0.007 -0.001,-0.014 -0.001,-0.022c-0.095,-1.778 -0.068,-3.939 0.078,-6.484c0.924,-15.716 1.968,-36.715 3.132,-62.997c0,-0.005 0.001,-0.01 0.001,-0.015c-0,-0.155 -0.128,-0.283 -0.284,-0.283c-0.05,0 -0.099,0.013 -0.142,0.038c-2.602,1.438 -5.372,2.384 -8.309,2.841c-0.262,0.042 -0.381,0.197 -0.354,0.464Zm-5.139,-24.291c-0.004,-0.126 -0.109,-0.227 -0.235,-0.227c-0.019,0 -0.038,0.002 -0.056,0.007c-1.377,0.315 -3.147,0.905 -4.808,1.054c-6.001,0.551 -10.266,0.992 -12.794,1.322c-1.739,0.228 -3.824,1.023 -5.792,1.188c-3.467,0.289 -7.103,0.646 -10.906,1.071c-2.148,0.243 -4.233,0.102 -6.342,0.401c-0.289,0.042 -0.351,0.183 -0.189,0.425c5.687,8.409 12.281,17.091 19.782,26.045c3.945,4.716 7.287,8.116 10.025,10.198c4.066,3.09 8.084,5.684 12.055,7.783c0.038,0.02 0.079,0.036 0.121,0.045c0.265,0.063 0.534,-0.108 0.597,-0.377c0.01,-0.041 0.015,-0.083 0.014,-0.125c-0.241,-10.974 -0.638,-22.156 -1.188,-33.544c-0.126,-2.555 -0.197,-5.097 -0.213,-7.625c-0.036,-4.821 -0.06,-7.368 -0.071,-7.641Zm-44.238,1.228l40.036,-6.571c0.714,-0.115 1,-0.527 0.858,-1.235c-0.12,-0.619 -0.404,-1.427 -0.85,-2.424c-1.594,-3.556 -2.827,-6.402 -3.698,-8.537c-1.007,-2.476 -2.08,-5.354 -3.218,-8.632c-2.571,-7.418 -4.255,-12.045 -5.052,-13.881c-2.974,-6.846 -5.036,-13.794 -7.672,-21.474c-0.283,-0.823 -0.483,-0.802 -0.598,0.063c-0.929,6.935 -1.954,12.438 -3.077,16.509c-1.432,5.177 -3.564,9.899 -5.437,13.991c-0.997,2.187 -1.97,4.941 -2.92,8.262c-1.311,4.569 -2.733,8.474 -4.264,11.716c-2.55,5.388 -4.105,8.695 -4.667,9.923c-0.036,0.079 -0.028,0.695 0.024,1.849c0.011,0.346 0.189,0.493 0.535,0.441Zm67.286,-72.787c0.222,-0.136 0.487,-0.181 0.74,-0.125c1.537,0.335 3.176,1.038 4.918,2.108c0.813,0.499 2.038,1.724 3.674,3.675c2.256,2.696 5.43,5.12 9.522,7.271c0.01,0.005 1.555,0.611 4.634,1.818c2.382,0.939 4.36,2.148 5.933,3.627c1.013,0.95 2.558,2.838 4.635,5.666c1.28,1.741 2.791,3.255 4.533,4.54c3.514,2.586 5.558,3.987 6.129,4.202c2.109,0.776 3.463,1.204 4.061,1.282c5.125,0.661 9.02,1.59 11.685,2.786c0.813,0.367 2.096,1.44 3.848,3.218c0.141,0.152 0.225,0.124 0.251,-0.086c0.257,-2.308 0.766,-4.286 1.527,-5.933c1.432,-3.116 2.248,-5.181 2.447,-6.193c0.079,-0.42 0.299,-0.894 0.661,-1.424c0.409,-0.604 0.664,-1.055 0.763,-1.354c0.081,-0.242 0.061,-0.506 -0.055,-0.732c-2.591,-5.062 -4.115,-10.158 -4.571,-15.289c-0.21,-2.386 -0.612,-4.196 -1.204,-5.429c-1.17,-2.45 -2.715,-4.543 -4.635,-6.279c-3.179,-2.87 -6.872,-4.779 -11.079,-5.729c-2.98,-0.671 -4.792,-1.191 -5.438,-1.558c-3.85,-2.203 -6.431,-4.246 -7.743,-6.13c-2.525,-3.627 -3.47,-9.057 -5.649,-13.022c-1.842,-3.353 -3.355,-7.033 -4.541,-11.04c-1.07,-3.636 -4.981,-6.075 -8.246,-7.987c-5.629,-3.284 -10.859,-5.965 -15.69,-8.042c-0.347,-0.152 -0.525,-0.039 -0.536,0.338c-0.125,5.831 -0.613,11.733 -0.684,18.579c-0.095,9.195 -0.375,21.61 -0.842,37.242c-0.016,0.394 0.147,0.488 0.488,0.284l0.464,-0.284Zm-65.736,82.064c-0.257,-0.393 -0.356,-0.357 -0.299,0.11c1.223,10.623 1.978,17.136 2.266,19.538c0.976,8.11 1.511,13.419 1.606,15.927c0.556,14.295 1.065,22.746 1.526,25.353c0.053,0.283 0.215,0.386 0.488,0.307c1.889,-0.551 3.958,-1.117 6.256,-1.448c6.636,-0.944 14.638,-2.198 24.007,-3.761c2.479,-0.417 6.39,-0.535 9.404,-1.401c0.241,-0.068 0.341,-0.225 0.299,-0.472c-0.535,-2.896 -0.806,-5.757 -0.811,-8.585c-0.001,-0.719 -0.422,-1.377 -1.078,-1.684c-5.938,-2.749 -11.567,-6.245 -16.886,-10.489c-1.926,-1.542 -4.21,-3.827 -6.854,-6.854c-7.187,-8.22 -13.828,-17.067 -19.924,-26.541Z"/>
  <path
    d="M566.822,213.694l-8.364,0.189c-0.268,0.005 -0.506,-0.074 -0.716,-0.236c-1.264,-0.965 -1.996,-2.007 -2.196,-3.124c-0.954,-5.288 -1.266,-11.641 -0.936,-19.058c0.024,-0.567 -0.26,-1.33 -0.653,-1.818c-3.767,-4.637 -7.064,-9.403 -9.891,-14.298c-0.147,-0.262 -0.357,-0.333 -0.63,-0.212l-0.676,0.299c-0.252,0.11 -0.499,0.097 -0.74,-0.039c-1.044,-0.598 -1.377,-1.508 -0.999,-2.731c0.314,-1.046 0.495,-1.715 -0.063,-2.628c-4.323,-7.008 -7.318,-14.208 -8.986,-21.6c-1.627,-7.208 -2.652,-11.59 -3.077,-13.149c-1.217,-4.527 -2.101,-8.469 -2.652,-11.826c-0.787,-4.785 -2.848,-14.164 -3.517,-21.112c-0.247,-2.539 -0.59,-5.619 -1.031,-9.238c-0.084,-0.682 0.236,-1.262 0.96,-1.739c0.581,-0.389 1.37,-0.292 1.849,0.228c0.889,0.96 0.929,2.353 1.881,3.36c1.416,1.506 3.617,4.564 6.602,9.175c9.148,14.143 18.108,28.514 26.879,43.113c0.058,0.092 0.159,0.148 0.267,0.148c0.137,-0 0.258,-0.089 0.3,-0.219c1.673,-5.45 2.563,-8.343 2.668,-8.679c0.64,-1.999 1.626,-3.032 2.958,-3.1c0.268,-0.011 0.365,-0.145 0.291,-0.402c-1.08,-3.646 -1.513,-7.661 -1.298,-12.047c0.567,-11.604 3.441,-22.699 8.624,-33.285c2.495,-5.083 6.036,-10.387 12.008,-10.866c1.873,-0.153 3.397,0.742 4.572,2.683c0.12,0.204 0.293,0.346 0.519,0.425c2.35,0.834 4.711,2.376 7.082,4.627c5.912,5.613 9.036,8.582 9.372,8.907c8.178,7.869 15.449,16.913 21.812,27.132c2.856,4.595 4.037,9.71 4.816,15.729c0.629,4.847 -0.512,9.773 -0.048,14.746c0.431,4.648 0.622,9.306 0.575,13.975c-0.016,1.459 -0.252,3.011 -0.708,4.659c-1.141,4.076 -5.658,5.083 -9.435,4.217c-4.648,-1.059 -8.281,-3.622 -10.898,-7.688c-1.595,-2.481 -2.872,-4.414 -3.832,-5.799c-0.019,-0.028 -0.043,-0.053 -0.072,-0.071c-0.113,-0.071 -0.267,-0.034 -0.341,0.082c-0.018,0.028 -0.03,0.059 -0.036,0.091c-0.32,1.957 -0.511,3.143 -0.574,3.557c-0.472,3.156 -0.354,6.508 -0.323,9.576c0.016,1.359 -0.089,3.337 -0.315,5.934c-0.708,8.272 -0.989,16.975 -0.842,26.108c0.048,2.731 0.575,5.414 0.693,7.9c0.141,2.825 -2.416,2.975 -4.289,1.81c-0.519,-0.32 -0.619,-0.22 -0.299,0.299c3.987,6.474 7.623,12.197 10.906,17.17c0.855,1.296 2.088,2.447 3.699,3.454c1.4,0.882 1.597,3.36 0.181,4.541c-1.17,0.981 -2.508,1.146 -4.013,0.495c-1.637,-0.708 -4.798,-2.308 -9.482,-4.8c-1.579,-0.844 -2.796,-1.623 -3.651,-2.337c-1.202,-1.012 -2.406,-1.948 -3.612,-2.809c-0.06,-0.043 -0.131,-0.067 -0.205,-0.067c-0.183,-0 -0.336,0.145 -0.346,0.327c-0.115,2.093 -0.097,5.901 0.055,11.425c0.019,0.847 -0.43,1.636 -1.164,2.046c-0.383,0.221 -0.604,0.323 -0.661,0.307c-1.454,-0.304 -2.206,-1.041 -2.259,-2.211c-0.204,-5.005 -0.115,-9.749 0.268,-14.235c0.021,-0.262 -0.066,-0.482 -0.26,-0.661c-1.38,-1.217 -2.846,-2.405 -4.399,-3.564c-2.135,-1.595 -3.572,-2.72 -4.312,-3.376c-4.034,-3.609 -7.27,-6.57 -9.71,-8.884c-0.671,-0.634 -1.539,-0.842 -2.604,-0.621c-0.273,0.057 -0.404,0.228 -0.394,0.511c0.394,7.753 0.286,15.651 -0.322,23.693c-0.032,0.425 -0,1.689 0.094,3.793c0.079,1.909 0.008,3.281 -0.212,4.115c-0.214,0.808 -1.016,1.33 -1.85,1.204l-0.291,-0.047c-1.176,-0.181 -2.055,-1.43 -2.053,-2.919c-0.011,-10.665 0.272,-20.661 0.849,-29.988c0.027,-0.389 -0.154,-0.577 -0.543,-0.567Zm-39.005,-109.447l-0,-0.063c-0.005,-0.01 -0.008,-0.013 -0.008,-0.008l-0.016,0c0.95,5.341 1.999,10.757 3.148,16.249c0.472,2.251 0.768,3.738 0.889,4.462c0.283,1.736 0.582,3.218 0.897,4.446c1.301,5.067 2.93,11.585 4.887,19.554c1.358,5.518 3.884,11.333 7.577,17.445c0.147,0.236 0.333,0.273 0.559,0.11c4.816,-3.452 8.941,-6.833 12.377,-10.143c0.538,-0.516 0.638,-1.35 0.237,-1.983c-10.45,-16.529 -20.627,-33.203 -30.531,-50.022c-0.011,-0.015 -0.016,-0.031 -0.016,-0.047Zm65.374,118.858c0.043,0.039 0.099,0.06 0.157,0.06c0.126,0 0.231,-0.1 0.236,-0.225l0.409,-6.988c0.01,-0.124 -0.081,-0.235 -0.204,-0.251l-10.182,-1.078c-0.008,-0.001 -0.016,-0.002 -0.023,-0.002c-0.13,0 -0.236,0.107 -0.236,0.237c-0,0.07 0.031,0.137 0.085,0.182l9.758,8.065Zm-38.486,-41.712c0.167,0.262 0.262,0.236 0.283,-0.079c0.33,-5.839 0.907,-11.693 1.731,-17.563c0.042,-0.32 -0.058,-0.373 -0.299,-0.157l-7.751,6.83c-0.436,0.388 -0.524,1.042 -0.204,1.526l6.24,9.443Zm42.459,44.513c0,0.085 0.042,0.164 0.111,0.213l8.813,6.389c0.043,0.03 0.094,0.045 0.146,0.045c0.142,0 0.259,-0.117 0.259,-0.26c0,-0.046 -0.012,-0.091 -0.035,-0.131l-8.845,-14.502c-0.047,-0.076 -0.131,-0.122 -0.22,-0.122c-0.141,-0 -0.258,0.115 -0.26,0.256l0.031,8.112Zm-18.83,-88.161c-0.004,0.004 -0.008,0.009 -0.012,0.014c-0.042,0.055 -0.028,0.136 0.03,0.181c0.004,0.003 0.009,0.006 0.014,0.009c1.786,0.999 3.195,1.432 5.484,1.479c2.581,0.058 4.918,0.302 7.012,0.732c4.857,1.002 9.028,3.048 12.511,6.138c1.532,1.364 3.583,3.837 6.153,7.42c3.714,5.194 5.611,7.845 5.689,7.956c0.572,0.834 1.451,2.2 2.637,4.099c1.904,3.064 4.7,4.881 8.388,5.453c0.996,0.152 1.794,0.013 2.392,-0.417c0.211,-0.151 0.35,-0.382 0.385,-0.637c0.472,-3.253 0.632,-6.007 0.48,-8.262c-0.362,-5.456 -0.417,-10.896 -0.165,-16.32c0.262,-5.582 0.26,-9.086 -0.008,-10.513c-0.787,-4.275 -1.925,-7.662 -3.415,-10.159c-2.486,-4.16 -4.991,-7.8 -7.515,-10.921c-4.836,-5.975 -8.999,-10.739 -12.487,-14.29c-2.408,-2.45 -4.979,-5.089 -7.712,-7.916c-1.967,-2.036 -3.766,-3.672 -5.398,-4.91c-0.267,-0.2 -0.377,-0.134 -0.33,0.196c0.524,3.793 0.781,6.049 0.771,6.768c-0.181,13.007 -3.549,26.03 -9.915,37.329c-1.332,2.371 -2.995,4.561 -4.989,6.571Zm-6.011,-30.516c-1.645,6.516 -2.684,13.322 -2.314,20.066c0.116,2.051 0.543,4.029 1.283,5.933c0.278,0.713 0.666,1.133 1.165,1.259c0.498,0.126 1.038,-0.06 1.62,-0.559c1.553,-1.327 2.865,-2.867 3.935,-4.619c3.517,-5.76 5.831,-12.251 7.467,-18.767c1.645,-6.515 2.684,-13.322 2.314,-20.065c-0.116,-2.051 -0.543,-4.029 -1.283,-5.933c-0.278,-0.714 -0.666,-1.133 -1.164,-1.259c-0.499,-0.126 -1.039,0.06 -1.621,0.558c-1.553,1.328 -2.867,2.867 -3.943,4.619c-3.517,5.76 -5.823,12.252 -7.459,18.767Zm-4.855,29.894c-0.116,-0.178 -0.208,-0.168 -0.276,0.031c-0.933,2.781 -1.836,5.7 -2.707,8.758c-0.535,1.889 -1.12,4.879 -1.754,8.971c-0.079,0.503 -0.596,3.564 -1.55,9.183c-1.186,6.961 -2.028,16.411 -2.526,28.351c-0.278,6.772 -0.082,12.385 0.59,16.839c0.042,0.252 0.189,0.383 0.44,0.394c2.699,0.141 7.185,0.047 10.93,0.385c1.574,0.142 4.517,0.323 8.829,0.543c8.687,0.441 16.262,1.146 22.725,2.117c0.023,0.003 0.047,0.005 0.071,0.005c0.271,-0 0.494,-0.222 0.496,-0.493c-0,-1.469 0.055,-5.123 0.165,-10.961c0.01,-0.509 0.016,-1.293 0.016,-2.353c0.015,-6.725 0.427,-16.588 1.235,-29.587c0.252,-4.076 0.787,-6.869 1.629,-10.874c0.073,-0.331 0.021,-0.643 -0.158,-0.937c-1.526,-2.555 -3.381,-5.007 -5.563,-7.357c-2.701,-2.917 -6.101,-4.679 -10.198,-5.288c-1.238,-0.189 -3.719,-0.414 -7.444,-0.677c-3.026,-0.215 -5.983,-1.222 -8.868,-3.021c-1.227,-0.766 -2.206,-1.265 -2.935,-1.495c-1.254,-0.399 -2.303,-1.244 -3.147,-2.534Zm31.766,17.854c-0.588,6.29 -1.409,11.793 -2.463,16.509c-1.298,5.768 -2.006,11.15 -2.919,17.917c-0.147,1.081 -0.737,1.603 -1.771,1.566l-0.417,-0.016c-1.526,-0.057 -2.179,-0.996 -1.959,-2.817c1.317,-10.932 3.328,-22.174 6.035,-33.725c0.257,-1.112 0.916,-1.566 1.975,-1.362c0.016,0.006 0.037,0.011 0.063,0.016c1.076,0.178 1.561,0.816 1.456,1.912Zm-27.501,18.61c-0.041,-0.015 -0.084,-0.022 -0.127,-0.022c-0.198,-0 -0.364,0.155 -0.377,0.352l-0.826,10.387c-0.063,0.803 -0.496,1.175 -1.299,1.118c-0.194,-0.016 -0.299,-0.027 -0.314,-0.032c-1.115,-0.292 -1.9,-1.327 -1.905,-2.51c-0.005,-3.594 0.263,-6.846 0.803,-9.757c0.047,-0.273 -0.042,-0.488 -0.268,-0.646c-0.335,-0.225 -0.834,-0.548 -1.495,-0.967c-1.143,-0.73 -1.482,-1.734 -1.015,-3.014c0.095,-0.268 0.281,-0.42 0.559,-0.457c0.839,-0.11 1.516,0.027 2.03,0.41c0.107,0.08 0.237,0.124 0.371,0.124c0.298,0 0.555,-0.217 0.605,-0.51c0.42,-2.57 1.104,-5.088 2.054,-7.554c0.194,-0.493 0.556,-0.732 1.086,-0.716c0.272,0.005 0.424,0.016 0.456,0.031c0.64,0.257 0.892,0.756 0.755,1.495l-1.267,6.893c-0.057,0.32 0.082,0.475 0.418,0.465c1.531,-0.058 2.874,0.356 4.028,1.243c1.047,0.795 1.338,2.479 0.583,3.47c-1.141,1.487 -3.234,0.756 -4.855,0.197Z"/>
  <path
    d="M74.667,184.322c0.341,3.331 0.723,6.104 1.148,8.317c0.688,3.547 1.343,7.937 1.968,13.173c0.199,1.689 0.826,3.147 1.88,4.375c0.168,0.194 0.265,0.417 0.291,0.669c0.268,2.208 -0.729,3.53 -2.99,3.966c-2.67,0.519 -4.301,0.834 -4.894,0.944c-0.268,0.047 -0.38,0.207 -0.338,0.48c0.283,1.998 0.495,4.131 0.999,6.027c1.359,5.052 2.263,10.182 2.715,15.392c0.173,1.967 -0.111,4.556 -2.503,4.839c-1.322,0.152 -2.329,-0.31 -3.021,-1.385c-0.347,-0.551 -0.546,-1.508 -0.598,-2.872c-0.147,-3.83 -0.305,-6.3 -0.472,-7.412c-0.913,-6.159 -1.545,-10.852 -1.897,-14.078c-0.031,-0.267 -0.181,-0.409 -0.448,-0.425c-6.794,-0.414 -11.499,-0.38 -14.117,0.103c-4.49,0.818 -7.772,1.125 -9.844,0.92c-0.262,-0.026 -0.378,0.092 -0.346,0.354c0.441,3.667 0.643,5.926 0.606,6.775c-0.189,4.328 -0.257,9.923 -0.205,16.785c0.008,1.164 -0.086,3.871 -0.905,5.232c-0.236,0.399 -0.658,0.677 -1.267,0.834c-1.379,0.352 -2.544,-0.086 -3.493,-1.314c-0.331,-0.425 -0.454,-1.634 -0.37,-3.627c0.147,-3.651 0.281,-7.302 0.401,-10.954c0.134,-4.202 0.937,-9.363 0.811,-13.447c-0.011,-0.278 -0.155,-0.399 -0.433,-0.362c-1.831,0.246 -3.83,0.422 -5.996,0.527c-4.013,0.197 -3.155,-3.179 -3.037,-5.752c0.047,-0.981 0.042,-1.836 -0.016,-2.565c-0.493,-6.028 -0.774,-9.933 -0.842,-11.717c-0.011,-0.273 -0.116,-0.317 -0.315,-0.134c-1.123,1.007 -2.232,0.923 -3.328,-0.252c-0.619,-0.666 -0.95,-1.023 -0.992,-1.07c-0.231,-0.246 -0.472,-0.341 -0.724,-0.283c-1.07,0.257 -2.565,0.847 -4.485,1.77c-4.69,2.251 -7.168,-3.139 -7.011,-6.893c0.126,-2.911 1.18,-7.019 2.644,-10.15c2.193,-4.701 4.857,-8.892 7.995,-12.575c0.113,-0.134 0.247,-0.248 0.397,-0.338c0.813,-0.491 1.917,-0.174 2.446,0.702c0.096,0.16 0.169,0.331 0.217,0.51c0.105,0.398 0.452,0.768 1.039,1.109c0.189,0.11 0.268,0.058 0.236,-0.157l-1.078,-7.806c-0.042,-0.299 -0.189,-0.367 -0.44,-0.205c-2.731,1.771 -6.476,4.383 -8.027,7.342c-0.668,1.275 -1.841,3.336 -3.068,4.446c-2.497,2.245 -5.27,2.951 -8.318,2.117c-3.612,-0.984 -5.075,-3.966 -4.532,-7.602c0.288,-1.92 0.784,-3.459 1.487,-4.619c0.923,-1.526 1.781,-3.008 2.573,-4.445c2.23,-4.05 3.169,-8.514 2.817,-13.393c-0.11,-1.532 0.478,-3.958 1.763,-7.279c1.621,-4.196 3.997,-8.703 7.129,-13.518c1.621,-2.497 3.68,-5.039 6.177,-7.625c4.005,-4.155 6.846,-7.184 11.008,-9.773c1.144,-0.708 2.602,-1.453 4.375,-2.235c1.385,-0.608 4.097,-1.846 8.137,-3.714c1.469,-0.682 2.347,-1.073 2.636,-1.172c3.218,-1.134 8.884,-1.173 13.235,-1.22c3.877,-0.047 7.601,-0.874 11.174,-2.479c1.159,-0.524 2.371,-0.168 3.635,1.07c1.144,1.118 2.064,2.563 2.762,4.336c1.558,3.95 2.539,8.504 2.943,13.66c0.755,9.647 0.212,18.975 -1.629,27.982c-1.157,5.665 -3.36,13.565 -8.435,16.548c-0.231,0.136 -0.328,0.338 -0.291,0.606l2.447,17.775c0.031,0.247 0.162,0.415 0.393,0.504l24.024,9.576c0.009,0.004 0.018,0.007 0.028,0.009c0.126,0.032 0.256,-0.048 0.289,-0.178c0.002,-0.009 0.004,-0.018 0.005,-0.028c2.639,-22.106 5.548,-45.337 8.727,-69.693c0.252,-1.944 0.354,-5.076 0.708,-7.814c0.037,-0.262 -0.029,-0.493 -0.197,-0.693c-1.343,-1.631 -1.831,-3.863 -1.463,-6.696c1.096,-8.44 4.642,-15.709 10.638,-21.804c2.791,-2.838 5.799,-5.33 9.026,-7.476c0.996,-0.661 1.736,-0.488 2.219,0.52c0.356,0.729 0.244,1.374 -0.339,1.935c-1.211,1.17 -3.226,3.13 -6.043,5.878c-2.366,2.314 -4.076,4.312 -5.13,5.996c-3.565,5.658 -6.311,10.655 -5.8,17.217c0.035,0.377 0.285,0.699 0.638,0.819c1.159,0.393 2.111,0.349 2.856,-0.134c0.955,-0.624 1.862,-1.994 2.723,-4.108c1.495,-3.651 2.604,-10.756 7.507,-15.273c2.911,-2.681 4.873,-4.406 5.885,-5.178c1.485,-1.133 3.03,-1.697 4.635,-1.691c0.066,-0 0.133,0.006 0.198,0.019c0.546,0.109 0.905,0.652 0.795,1.202c-0.013,0.064 -0.032,0.127 -0.057,0.187c-0.511,1.251 -1.125,2.117 -2.25,2.943c-2.869,2.109 -5.251,4.273 -7.145,6.492c-0.949,1.101 -1.671,2.473 -2.164,4.115c-1.416,4.721 -2.101,9.34 -4.989,13.55c-1.332,1.946 -3.228,3.095 -5.689,3.447c-0.262,0.036 -0.417,0.186 -0.464,0.448c-0.797,4.139 -1.29,6.899 -1.479,8.278c-2.938,21.477 -6.078,43.601 -9.419,66.373c-0.105,0.698 -0.189,1.522 -0.252,2.471c-0.016,0.263 0.094,0.449 0.33,0.559c0.992,0.467 1.545,0.784 1.661,0.952c1.448,2.077 0.377,4.43 -2.203,3.958c-0.041,-0.007 -0.083,-0.011 -0.124,-0.011c-0.35,-0 -0.649,0.262 -0.695,0.609l-5.004,36.928c-0.114,0.842 -0.757,1.526 -1.598,1.7c-0.021,0.005 -0.042,0.005 -0.063,-0c-1.206,-0.435 -1.754,-1.078 -1.644,-1.928l4.989,-37.841c0.104,-0.818 -0.221,-1.39 -0.976,-1.715l-22.253,-9.427c-0.168,-0.068 -0.241,-0.013 -0.22,0.165Zm-9.577,-55.9c-0.419,5.87 -0.17,11.79 0.748,17.76c0.496,3.242 1.369,7.759 3.848,9.742c0.362,0.287 0.893,0.228 1.178,-0.131l0.002,-0.003c1.248,-1.579 2.214,-3.365 2.896,-5.359c2.376,-6.916 3.249,-14.061 3.769,-21.316c0.419,-5.87 0.17,-11.79 -0.748,-17.76c-0.495,-3.242 -1.369,-7.759 -3.848,-9.742c-0.362,-0.287 -0.893,-0.228 -1.177,0.131l-0.003,0.003c-1.248,1.579 -2.214,3.365 -2.896,5.359c-2.376,6.916 -3.249,14.061 -3.769,21.316Zm-52.28,36.031c1.212,-1.374 3.273,-3.121 6.185,-5.24c3.942,-2.864 8.01,-3.281 13.133,-3.148c3.263,0.084 8.157,0.36 14.683,0.827c3.683,0.262 6.369,0.272 8.058,0.031c2.602,-0.372 5.264,-0.842 7.987,-1.408c0.01,-0.003 0.021,-0.005 0.031,-0.008c0.254,-0.072 0.405,-0.335 0.335,-0.585c-0.004,-0.012 -0.008,-0.025 -0.012,-0.037c-1.06,-2.99 -1.784,-6.072 -2.172,-9.246c-1.06,-8.655 -0.986,-17.311 0.22,-25.967c0.803,-5.786 2.232,-11.048 4.289,-15.785c0.11,-0.246 0.031,-0.346 -0.236,-0.299c-4.208,0.761 -8.74,1.338 -13.598,1.732c-0.603,0.047 -1.209,0.152 -1.817,0.314c-3.636,0.984 -6.665,2.857 -9.868,4.242c-6.916,2.99 -12.669,8.569 -17.539,14.596c-1.48,1.826 -2.985,4.165 -4.517,7.019c-1.847,3.436 -3.056,5.944 -3.628,7.523c-1.211,3.326 -1.77,5.72 -1.676,7.184c0.394,5.959 -0.828,11.386 -3.666,16.28c-0.331,0.572 -1.141,1.85 -2.432,3.832c-0.826,1.267 -1.031,2.416 -0.889,3.77c0.033,0.29 0.272,0.519 0.566,0.543c0.856,0.078 1.629,-0.105 2.322,-0.551c0.482,-0.31 0.981,-0.876 1.495,-1.7c1.138,-1.82 2.054,-3.126 2.746,-3.919Zm28.564,32.624c-0.415,-0.322 -0.72,-0.765 -0.874,-1.266l-3.108,-10.096c-0.068,-0.226 -0.202,-0.275 -0.401,-0.15l-4.32,2.629c-0.257,0.157 -0.38,0.385 -0.37,0.684l0.984,24.803c0.01,0.257 0.139,0.343 0.385,0.259c3.221,-1.091 6.29,-1.681 9.207,-1.77c1.825,-0.058 3.853,-0.36 6.082,-0.905c4.05,-1.002 9.002,-1.259 14.857,-0.771c1.878,0.157 4.907,-0.302 9.088,-1.377c0.241,-0.063 0.349,-0.221 0.323,-0.472c-0.651,-5.33 -1.278,-9.333 -1.881,-12.008c-0.74,-3.31 -1.285,-7.287 -1.637,-11.929c-0.572,-7.497 -1.046,-14.295 -1.424,-20.396c-0.016,-0.257 -0.089,-1.173 -0.22,-2.746c-0.063,-0.724 -0.449,-1.173 -1.157,-1.346c-0.504,-0.126 -0.842,-0.178 -1.015,-0.157c-0.708,0.089 -1.023,0.485 -0.944,1.188c0.11,1.023 -0.011,1.836 -0.362,2.439c-1.097,1.868 -2.568,3.746 -4.415,5.634c-2.607,2.67 -6.683,6.266 -12.228,10.788c-1.4,1.144 -2.801,2.067 -4.202,2.77c-0.257,0.131 -0.388,0.341 -0.393,0.63c-0.011,1.164 0.267,2.371 0.834,3.619c1.238,2.707 1.972,4.837 2.203,6.39c0.226,1.516 0.095,2.541 -0.393,3.076c-1.453,1.6 -2.993,1.76 -4.619,0.48Zm-4.124,-27.32c0.543,-0.889 1.606,-0.897 2.361,-0.409c0.325,0.21 0.575,0.711 0.748,1.503c0.414,1.883 1.117,4.564 2.108,8.042c0.003,0.011 0.007,0.022 0.012,0.032c0.049,0.111 0.184,0.16 0.298,0.109c0.01,-0.005 0.02,-0.01 0.029,-0.015c1.364,-0.84 3.441,-2.406 6.232,-4.698c4.559,-3.751 8.923,-7.94 13.094,-12.567c0.383,-0.424 0.293,-0.579 -0.268,-0.464c-3.184,0.661 -5.763,1.076 -7.735,1.243c-2.009,0.168 -4.601,0.132 -7.774,-0.11c-3.846,-0.293 -8.716,-0.682 -14.613,-1.164c-0.514,-0.042 -1.542,0.002 -3.084,0.134c-0.263,0.02 -0.37,0.162 -0.323,0.424c0.763,4.313 2.188,9.687 2.565,14.267c0.221,2.696 0.525,5.392 0.913,8.089c0.003,0.015 0.008,0.031 0.014,0.046c0.042,0.094 0.151,0.139 0.242,0.099c0.016,-0.007 0.03,-0.016 0.043,-0.027c1.495,-1.27 3.116,-2.301 4.863,-3.093c0.168,-0.073 0.236,-0.202 0.205,-0.385c-0.326,-1.742 -0.63,-3.958 -0.913,-6.649c-0.163,-1.6 0.165,-3.069 0.983,-4.407Zm-11.944,1.409c-1.128,0.299 -2.057,0.904 -2.786,1.817c-4.257,5.312 -8.286,13.094 -7.247,20.026c0.004,0.025 0.009,0.05 0.015,0.074c0.099,0.372 0.482,0.598 0.849,0.501c0.024,-0.007 0.049,-0.015 0.072,-0.024c3.982,-1.511 8.695,-3.793 11.048,1.259c0.158,0.336 0.244,0.317 0.26,-0.055c0.078,-1.6 0.081,-2.733 0.008,-3.399c-0.709,-6.715 -1.262,-13.459 -1.661,-20.231c-0.015,-0.283 -0.105,-0.309 -0.267,-0.079c-0.021,0.032 -0.118,0.069 -0.291,0.111Z"/>
  <path
    d="M855.035,153.389c0.052,-6.269 1.004,-12.003 2.856,-17.201c0.089,-0.252 0.037,-0.47 -0.157,-0.653c-2.77,-2.589 -3.014,-4.556 -3.99,-8.806c-0.794,-3.493 -0.495,-6.814 -0.904,-10.567c-0.646,-5.886 -2.542,-11.914 -7.224,-15.455c-2.303,-1.741 -4.952,-2.911 -7.947,-3.509c-0.316,-0.061 -0.638,0.093 -0.787,0.378c-1.637,3.121 -4.103,3.874 -7.397,2.258c-2.696,-1.322 -4.026,-3.376 -3.99,-6.161c0.048,-3.195 0.119,-6.791 3.219,-8.176c0.808,-0.357 1.841,-0.226 3.1,0.394c1.959,0.975 3.982,0.912 5.075,3.509c0.483,1.159 0.785,2.219 0.905,3.179c0.032,0.283 0.192,0.404 0.48,0.362c3.552,-0.514 6.408,-0.821 8.57,-0.921c4.773,-0.225 9.324,0.593 13.652,2.455c2.298,0.992 4.831,2.959 6.814,3.888c0.96,0.445 2.235,0.579 3.824,0.401c1.086,-0.121 2.125,-0.698 3.116,-1.731c2.571,-2.676 4.281,-6.117 5.131,-10.324c0.876,-4.359 1.12,-7.481 0.732,-9.364c-0.049,-0.25 -0.225,-0.459 -0.465,-0.551c-0.828,-0.325 -2.756,-0.889 -5.783,-1.692c-1.065,-0.283 -1.831,-0.624 -2.298,-1.023c-2.691,-2.289 -0.716,-4.288 -0.11,-6.94c0.551,-2.439 1.873,-4.013 3.864,-5.65c3.108,-2.549 7.05,-1.322 9.686,1.063c4.973,4.524 4.108,10.347 -0.921,14.344c-0.22,0.174 -0.267,0.383 -0.141,0.63c0.545,1.065 0.991,2.439 1.338,4.123c0.257,1.27 0.758,2.618 1.502,4.045c1.81,3.494 4.218,6.376 7.224,8.648c1.778,1.343 4.107,1.534 6.987,0.574c1.123,-0.378 2.988,-1.503 5.595,-3.376c2.628,-1.88 5.453,-3.155 7.979,-4.878c2.817,-1.928 5.052,-2.267 8.853,-2.542c1.83,-0.136 3.677,0.239 5.539,1.125c0.009,0.004 0.019,0.007 0.029,0.009c0.08,0.017 0.159,-0.029 0.174,-0.101c0.002,-0.011 0.003,-0.022 0.002,-0.034c-0.027,-1.626 0.293,-3.079 0.96,-4.359c0.708,-1.353 1.723,-2.287 3.045,-2.801c3.651,-1.417 6.319,1.188 7.782,4.556c1.369,3.126 0.926,5.917 -1.33,8.372c-2.242,2.44 -5.838,2.196 -6.783,-1.267c-0.109,-0.403 -0.478,-0.685 -0.896,-0.685c-0.107,0 -0.214,0.019 -0.315,0.056c-5.661,2.025 -9.317,5.791 -10.969,11.299c-0.609,2.015 -0.892,4.407 -0.85,7.177c0.039,2.919 -0.26,6.027 -0.087,9.639c0.289,6.064 0.189,11.622 -0.299,16.674c-0.362,3.745 -1.652,8.05 -5.799,9.057c-0.273,0.068 -0.396,0.239 -0.37,0.511c0.278,3.032 0.372,8.129 0.283,15.289c-0.005,0.268 0.084,0.499 0.268,0.693c5.626,5.98 10.229,16.005 3.738,23.252c-0.709,0.795 -2.101,1.731 -3.187,2.613c-0.215,0.178 -0.284,0.401 -0.205,0.668c1.298,4.289 1.66,7.995 -0.614,11.906c-0.954,1.647 -1.741,3.011 -2.36,4.092c-1.629,2.832 0.409,7.05 -2.117,8.946c-0.336,0.247 -1.073,0.305 -2.211,0.174c-2.807,-0.32 -5.556,-0.378 -8.247,-0.174c-0.001,0.001 -0.003,0.001 -0.005,0.001c-0.163,0.014 -0.286,0.164 -0.271,0.332c0.001,0.002 0.001,0.004 0.001,0.006c0.178,1.773 0.349,3.554 0.511,5.343c0.111,1.206 0.184,2.99 0.221,5.35c0.084,4.842 0.655,9.65 1.715,14.424c0.278,1.248 0.425,4.184 0.441,8.805c0.005,1.144 -0.538,1.883 -1.629,2.219c-0.367,0.116 -0.588,0.171 -0.661,0.165c-1.6,-0.126 -2.497,-0.899 -2.691,-2.321c-0.291,-2.14 -0.142,-4.611 -0.504,-7.05c-0.802,-5.414 -1.707,-10.497 -1.605,-16.053c0.011,-0.634 0.031,-4.11 0.063,-10.426c-0,-0.283 -0.139,-0.44 -0.417,-0.472c-7.365,-0.85 -16.42,-1.306 -27.163,-1.369c-0.273,-0 -0.401,0.136 -0.386,0.409c0.118,2.329 0.032,4.713 0.299,6.98c0.625,5.251 1.257,10.468 1.897,15.651c0.322,2.573 0.314,6.248 0.779,9.175c0.456,2.895 -2.684,4.8 -4.729,2.848c-0.735,-0.692 -1.089,-1.776 -1.063,-3.25c0.095,-5.261 -0.107,-10.111 -0.606,-14.549c-0.262,-2.361 -0.487,-7.979 -0.676,-16.855c-0.006,-0.273 -0.145,-0.422 -0.417,-0.448c-1.8,-0.179 -3.562,-0.197 -5.288,-0.056c-2.303,0.195 -3.447,-0.836 -3.431,-3.092c0.047,-5.262 0.265,-12.855 0.653,-22.78c0,-0.006 0,-0.011 0,-0.017c0,-0.28 -0.23,-0.511 -0.511,-0.511c-0.032,-0 -0.064,0.003 -0.095,0.009c-0.278,0.057 -0.648,0.042 -1.109,-0.048c-0.703,-0.136 -1.078,-0.215 -1.126,-0.236c-6.562,-2.89 -11.931,-7.255 -16.107,-13.093c-0.32,-0.446 -1.592,-2.878 -3.816,-7.295c-1.899,-3.766 -2.778,-7.569 -2.636,-11.409c0.01,-0.278 -0.092,-0.507 -0.307,-0.685c-3.636,-3.064 -7.069,-5.55 -10.3,-7.46c-0.063,-0.037 -0.135,-0.057 -0.208,-0.057c-0.185,-0 -0.348,0.128 -0.39,0.309c-0.473,1.983 -3.046,2.542 -5.186,2.935c-2.888,0.527 -4.894,-1.251 -4.241,-4.21c0.252,-1.159 0.779,-2.583 1.581,-4.272c1.606,-3.376 2.605,-7.192 4.155,-9.687c0.976,-1.566 2.951,-4.021 4.942,-4.28c1.652,-0.221 2.99,0.967 4.658,2.203c0.729,0.54 1.167,1.039 1.314,1.495c0.089,0.283 0.079,0.566 -0.031,0.85l-1.794,4.501c-0.09,0.215 -0.037,0.388 0.157,0.519c11.231,7.586 21.917,14.334 32.057,20.246c0.252,0.147 0.381,0.076 0.386,-0.212Zm58.52,15.832l-0.378,8.585c0,0.013 0.011,0.023 0.024,0.023c0.702,0.03 1.363,-1.834 1.464,-4.131l0.015,-0.252l0,-0.003c0.101,-2.298 -0.395,-4.215 -1.098,-4.246l-0.003,0c-0.013,0 -0.024,0.011 -0.024,0.024Zm-52.949,11.166c-0.262,-0.541 -0.32,-1.453 -0.173,-2.739c0.094,-0.813 -0.189,-1.576 -0.85,-2.289c-0.215,-0.226 -0.323,-0.184 -0.323,0.125c0.016,9.695 0.339,13.684 -0.33,20.554c-0.278,2.895 -0.42,5.6 -0.425,8.112c-0,0.388 0.274,0.725 0.653,0.803c2.589,0.504 5.319,0.386 7.161,0.512c3.021,0.204 6.418,0.335 10.19,0.393c0.283,-0 0.309,-0.079 0.079,-0.236c-1.328,-0.944 -3.486,-3.431 -6.477,-7.46c-3.965,-5.35 -6.457,-9.893 -7.475,-13.628c-0.354,-1.299 -1.338,-2.699 -2.03,-4.147Zm-18.539,-27.588c0.173,0.078 0.228,0.039 0.165,-0.118c-0.084,-0.21 -0.178,-0.326 -0.283,-0.346c-0.325,-0.063 -0.367,0.02 -0.126,0.251c0.126,0.121 0.207,0.192 0.244,0.213Zm-15.163,-10.316l13.983,9.718c0.002,0.001 0.005,0.001 0.008,-0l0.071,-0.095c0.179,-0.264 -2.779,-2.639 -6.555,-5.264l-0.221,-0.157c-3.778,-2.627 -7.038,-4.572 -7.22,-4.31c-0.001,0.002 -0.002,0.004 -0.003,0.006l-0.063,0.094c-0.001,0.002 -0.001,0.005 0,0.008Zm22.631,11.834c-0.058,-0.042 -0.111,-0.076 -0.158,-0.102c-0.362,-0.204 -0.37,-0.189 -0.023,0.047c0.089,0.063 0.186,0.09 0.291,0.079c-0.011,-0.008 -0.021,-0.008 -0.032,-0.008c-0.031,0 -0.057,-0.005 -0.078,-0.016Zm17.736,7.421c0.049,0.034 0.114,0.04 0.173,0.015c2.555,-1.122 5.167,-1.471 7.837,-1.046c0.273,0.042 2.642,0.677 7.106,1.904c4.265,1.175 8.168,2.668 11.709,4.477c4.642,2.369 9.505,4.911 13.361,8.837c0.034,0.038 0.083,0.059 0.134,0.059c0.097,0 0.178,-0.079 0.18,-0.177c0.079,-1.406 0.15,-2.573 0.213,-3.502c0.262,-3.766 0.724,-11.435 1.385,-23.008c0.089,-1.558 0.294,-3.014 0.614,-4.367c0.099,-0.42 -0.063,-0.588 -0.488,-0.504c-2.665,0.562 -5.367,0.612 -8.105,0.15c-3.788,-0.63 -5.815,-0.957 -6.083,-0.984c-4.343,-0.435 -7.04,-0.755 -8.089,-0.96c-2.287,-0.435 -4.989,-0.658 -8.105,-0.669c-3.761,-0.005 -7.944,-0.574 -12.55,-1.707c-1.962,-0.483 -3.762,-1.359 -5.398,-2.628c-0.021,-0.016 -0.043,-0.03 -0.067,-0.041c-0.162,-0.072 -0.356,0.005 -0.429,0.171c-0.011,0.024 -0.019,0.049 -0.024,0.074c-0.981,5.676 -1.306,11.859 -0.975,18.547c0.015,0.299 0.149,0.533 0.401,0.7l7.2,4.659Zm25.92,30.397c-1.802,-3.455 2.825,-6.209 5.453,-7.106c3.184,-1.086 5.773,-2.127 7.766,-3.124c0.189,-0.094 0.215,-0.22 0.079,-0.377c-4.352,-5.099 -9.521,-7.696 -15.927,-10.938c-4.886,-2.463 -8.781,-3.376 -15.839,-5.602c-1.296,-0.41 -2.521,-0.48 -3.675,-0.213c-1.784,0.42 -3.685,0.252 -5.705,-0.504c-0.247,-0.094 -0.449,-0.249 -0.606,-0.464c-0.488,-0.666 -1.062,-1.188 -1.723,-1.566c-5.073,-2.922 -9.301,-5.437 -12.685,-7.546c-0.015,-0.01 -0.057,0 -0.126,0.032l-0.007,-0c-0.074,0.026 -0.063,0.07 0.031,0.133c4.994,3.242 9.854,6.678 14.581,10.308c1.789,1.375 9.915,6.45 24.377,15.227c0.195,0.115 0.331,0.065 0.41,-0.15c0.482,-1.311 1.046,-2.172 1.691,-2.581c0.231,-0.147 0.483,-0.204 0.756,-0.173c0.76,0.079 1.138,0.527 1.133,1.346c-0.008,0.755 -0.551,2.643 -0.96,3.47c-1.574,3.158 -2.906,6.358 -3.997,9.6c-0.314,0.932 -1.261,1.513 -2.243,1.377c-0.042,-0.006 -0.066,-0.011 -0.071,-0.016c-1.238,-0.483 -1.734,-1.293 -1.487,-2.432c0.288,-1.337 0.821,-2.536 1.597,-3.596c0.045,-0.061 0.069,-0.135 0.069,-0.212c-0,-0.124 -0.065,-0.241 -0.171,-0.307c-8.189,-5.052 -16.155,-10.426 -23.897,-16.123c-5.32,-3.919 -12.032,-9.836 -18.5,-13.944c-2.277,-1.442 -5.183,-3.375 -8.719,-5.799c-0.136,-0.099 -0.23,-0.102 -0.283,-0.008l-0.008,0.008c-0.057,0.11 -0.034,0.202 0.071,0.276c4.286,2.953 8.349,6.017 12.189,9.19c3.856,3.187 7.192,5.587 11.063,8.491c2.781,2.088 5.149,4.797 7.106,8.128c0.351,0.593 1.568,3.321 3.651,8.184c2.418,5.65 5.836,10.651 10.253,15.006c3.982,3.926 10.316,5.366 15.816,5.421c5.595,0.055 11.662,-3.777 13.487,-9.049c0.887,-2.581 1.293,-5.269 1.22,-8.066c-0.001,-0.023 -0.004,-0.046 -0.01,-0.069c-0.045,-0.175 -0.224,-0.284 -0.395,-0.239c-0.023,0.005 -0.046,0.014 -0.067,0.025c-2.314,1.196 -4.577,2.182 -6.791,2.959c-1.487,0.519 -2.864,1.613 -3.982,2.195c-2.255,1.191 -3.897,0.8 -4.925,-1.172Zm-39.053,-20.49c0.047,-0.588 -0.176,-1.044 -0.669,-1.37c-2.274,-1.534 -5.075,-3.454 -7.365,-5.461c-4.113,-3.598 -8.213,-6.882 -12.299,-9.851c-0.462,-0.336 -0.574,-0.244 -0.338,0.275c1.295,2.828 2.777,5.653 4.445,8.475c1.779,3.021 3.751,5.505 5.918,7.452c3.2,2.879 6.229,5.067 9.088,6.562c0.472,0.247 0.729,0.105 0.771,-0.425l0.449,-5.657Zm1.419,-9.578c0.04,-0.045 -0.237,-0.359 -0.614,-0.695c-0.377,-0.336 -0.721,-0.575 -0.761,-0.53c-0.04,0.045 0.237,0.359 0.614,0.695c0.377,0.336 0.721,0.575 0.761,0.53Zm7.024,5.021c-0.01,-0.005 -1.7,-1.248 -5.067,-3.729c-0.006,-0.006 -0.011,-0.006 -0.016,-0l-0.095,0.189c-0.048,0.09 -0.025,0.203 0.055,0.267c6.269,4.952 10.744,8.296 13.425,10.033c5.943,3.85 11.213,7.404 15.808,10.662c0.247,0.173 0.459,0.136 0.637,-0.11c0,-0 0.545,-0.759 0.546,-0.76c0.161,-0.225 0.11,-0.54 -0.112,-0.698c-0.003,-0.002 -0.006,-0.004 -0.009,-0.006c-3.895,-2.691 -8.49,-5.114 -12.393,-7.617c-3.903,-2.507 -6.484,-4.128 -7.743,-4.863c-2.009,-1.17 -3.688,-2.292 -5.036,-3.368Zm10.292,-63.587c-2.355,0.524 -4.542,0.461 -6.562,-0.189c-2.809,-0.905 -5.941,-3.565 -8.294,-4.808c-4.013,-2.119 -8.168,-3.071 -12.464,-2.856c-0.603,0.031 -0.635,0.183 -0.094,0.456c4.611,2.324 7.876,6.036 9.796,11.135c1.941,5.156 3.03,10.368 3.266,15.635c0.11,2.534 0.48,4.8 0.842,6.617c0.252,1.228 1.015,2.306 2.29,3.235c2.921,2.119 6.163,3.679 9.725,4.681c2.621,0.732 4.942,0.622 8.428,0.669c2.397,0.027 4.527,0.142 6.389,0.347c6.495,0.697 12.973,1.526 19.436,2.486c0.829,0.121 2.56,-0.068 5.194,-0.567c0.267,-0.052 0.445,-0.207 0.535,-0.464c0.857,-2.494 2.541,-4.737 2.903,-7.436c0.31,-2.308 0.462,-3.491 0.457,-3.549c-0.331,-10.381 -0.111,-18.872 0.661,-25.471c0.708,-6.08 3.716,-11.011 9.025,-14.793c0.194,-0.137 0.171,-0.207 -0.071,-0.213c-2.654,-0.042 -4.446,0.236 -5.374,0.834c-8.236,5.346 -12.734,8.268 -13.495,8.766c-7.68,5.013 -14.99,1.047 -19.397,-5.854c-1.322,-2.072 -2.077,-3.237 -2.266,-3.494c-0.162,-0.215 -0.296,-0.199 -0.401,0.047c-0.089,0.21 -0.294,0.971 -0.614,2.282c-0.865,3.533 -2.321,6.225 -4.768,9.128c-1.548,1.836 -3.263,2.961 -5.147,3.376Z"/>
</svg>
