<svg viewBox="0 0 320 320" xmlns="http://www.w3.org/2000/svg">>
    <path d="M123.552,183.469c-0.38,0.9 -0.81,1.96 -1.29,3.18c-0.147,0.367 -2.397,6.98 -6.75,19.84c-0.393,1.156 -1.49,1.933 -2.71,1.92c-0.347,-0.006 -0.57,-0.026 -0.67,-0.06c-1.86,-0.64 -2.517,-1.693 -1.97,-3.16c1.88,-5.06 3.283,-9.196 4.21,-12.41c1.066,-3.686 2.383,-7.49 3.95,-11.41c2.24,-5.586 3.48,-8.61 3.72,-9.07c0.673,-1.306 0.933,-2.783 0.78,-4.43c-0.36,-3.926 -0.43,-9.663 -0.21,-17.21c0.012,-0.335 -0.156,-0.652 -0.44,-0.83l-1.8,-1.17c-0.56,-0.367 -0.798,-1.074 -0.57,-1.7c2.77,-7.55 5.85,-16.85 9.4,-25.18c3.946,-9.28 8.693,-20.61 14.24,-33.99c1.2,-2.9 2.05,-5.67 2.94,-8.7c0.533,-1.806 1.176,-2.95 1.93,-3.43c1.32,-0.833 2.713,-0.826 4.18,0.02c0.3,0.174 0.516,0.42 0.65,0.74c1.313,3.12 3.23,6.1 5.75,8.94c0.633,0.707 1.876,3.144 3.73,7.31c1.646,3.707 2.796,6.19 3.45,7.45c2.09,4.05 4.61,9.07 6.4,13.84c3.733,9.947 7.49,19.05 11.27,27.31c0.366,0.8 0.503,2.15 0.41,4.05c-0.07,1.32 -1.21,2.27 -1.15,3.84c0.06,1.6 0.346,6.814 0.86,15.64c0.02,0.34 0.146,0.387 0.38,0.14c3.6,-3.746 7.82,-7.456 12.66,-11.13c0.89,-0.68 1.1,-1.59 1.07,-2.65c-0.754,-30.093 -1.227,-55.943 -1.42,-77.55c-0.01,-1.51 -0.39,-1.72 -1.42,-2.74c-0.3,-0.3 -0.624,-0.33 -0.97,-0.09c-0.754,0.5 -1.49,0.6 -2.21,0.3c-0.77,-0.316 -1.179,-1.177 -0.94,-1.98c1.526,-5.08 3.293,-9.966 5.3,-14.66c0.62,-1.45 1.38,-2.63 3,-2.66c0.966,-0.013 1.753,0.404 2.36,1.25c1.7,2.38 3.193,4.874 4.48,7.48c1.13,2.29 2.26,3.45 3.54,5.25c0.206,0.287 0.316,0.607 0.33,0.96c0.13,4.94 -4.05,4.42 -7.53,5.43c-0.307,0.094 -0.457,0.3 -0.45,0.62l1.71,76.13c0.005,0.306 0.2,0.58 0.49,0.69c3.88,1.48 2.64,5.03 0.07,6.81c-0.294,0.2 -0.44,0.477 -0.44,0.83c-0.094,18.467 0.063,35.777 0.47,51.93c0.153,5.994 0.026,10.677 -0.38,14.05c-0.024,0.184 -0.072,0.365 -0.143,0.539c-0.383,0.928 -1.353,1.421 -2.149,1.093c-0.15,-0.062 -0.288,-0.15 -0.408,-0.262c-0.707,-0.653 -1.087,-1.71 -1.14,-3.17c-1.174,-35.413 -1.81,-55.51 -1.91,-60.29c-0.007,-0.373 -0.16,-0.45 -0.46,-0.23c-4.12,3.06 -8.56,6.86 -13.32,11.4c-0.254,0.24 -0.377,0.534 -0.37,0.88c0.14,5.134 0.466,10.69 0.98,16.67c0.266,3.087 0.54,8.63 0.82,16.63c0.32,9.234 0.74,16.13 1.26,20.69c0.1,0.887 -0.284,1.874 -1.15,2.96c-0.467,0.58 -1.347,0.867 -2.64,0.86c-1.66,-0.013 -3.33,0.07 -5.01,0.25c-0.347,0.04 -0.52,0.234 -0.52,0.58c-0,0.607 0.26,3.357 0.78,8.25c0.3,2.867 0.5,5.604 0.6,8.21c0.166,4.48 0.743,9.167 1.73,14.06c0.99,4.92 -5.71,6.73 -6.83,1.51c-0.414,-1.913 -0.61,-3.223 -0.59,-3.93c0.113,-5.306 -0.037,-10.556 -0.45,-15.75c-0.314,-3.986 -0.314,-7.876 -0,-11.67c0.033,-0.34 -0.12,-0.486 -0.46,-0.44c-3.29,0.45 -5.97,1 -8.72,0.99c-5.714,-0.033 -11.157,0.36 -16.33,1.18c-0.32,0.047 -0.474,0.234 -0.46,0.56c0.08,2.007 0.303,5.374 0.67,10.1c0.086,1.2 0.22,4.557 0.4,10.07c0.086,2.894 0.386,6.257 0.9,10.09c0.226,1.734 -0.577,2.95 -2.41,3.65c-0.014,0.007 -0.13,0.014 -0.35,0.02c-1.974,0.074 -3.17,-0.856 -3.59,-2.79c-0.8,-3.646 -1.197,-7.733 -1.19,-12.26c0.006,-10.093 0.06,-16.27 0.16,-18.53c0.013,-0.333 -0.144,-0.476 -0.47,-0.43c-5.307,0.76 -9.184,1.26 -11.63,1.5c-1.534,0.16 -2.624,-0.036 -3.27,-0.59c-0.994,-0.846 -1.54,-2 -1.64,-3.46c-0.374,-5.38 -0.404,-10.246 -0.09,-14.6c0.373,-5.153 0.413,-9.723 0.12,-13.71c-0.214,-2.853 -0.267,-9.576 -0.16,-20.17c0.02,-1.726 -0.304,-1.793 -0.97,-0.2Zm2.41,-38.62c-0.005,0.01 -0.009,0.021 -0.011,0.032c-0.02,0.085 0.038,0.173 0.129,0.194c0.011,0.002 0.021,0.004 0.032,0.004c2.133,0.087 4.976,0.43 8.53,1.03c2.813,0.474 5.63,0.72 8.45,0.74c4.66,0.04 9.486,0.04 14.48,0c4.14,-0.03 8.8,-0.81 12.46,-1.24c1.926,-0.22 3.913,-1.213 5.96,-2.98c0.253,-0.22 0.31,-0.483 0.17,-0.79c-2.467,-5.333 -5.474,-12.41 -9.02,-21.23c-0.454,-1.126 -0.887,-2.33 -1.3,-3.61c-2.46,-7.69 -6.36,-13.63 -8.77,-20.65c-1.48,-4.32 -2.84,-7.28 -5.46,-10.99c-0.187,-0.273 -0.344,-0.256 -0.47,0.05l-25.18,59.44Zm5.06,86.18c0.02,0.234 0.143,0.324 0.37,0.27c2.82,-0.613 8.293,-1.526 16.42,-2.74c5.9,-0.886 11.253,-1.51 16.06,-1.87c5.366,-0.406 10.676,-1.023 15.93,-1.85c0.217,-0.035 0.377,-0.224 0.37,-0.44l-0.32,-14.29c-0.007,-0.42 -0.22,-0.63 -0.64,-0.63c-1.767,-0.006 -3.887,-0.613 -6.36,-1.82c-3.374,-1.646 -6.27,-3.486 -8.69,-5.52c-5.194,-4.366 -9.404,-8.236 -12.63,-11.61c-1.567,-1.626 -4.234,-4.996 -8,-10.11c-2.687,-3.646 -5.204,-7.26 -7.55,-10.84c-3.64,-5.526 -6.104,-9.233 -7.39,-11.12c-0.387,-0.566 -0.57,-0.506 -0.55,0.18c0.1,3.66 0.03,6.04 0.69,9.98c1.213,7.274 1.856,12.79 1.93,16.55c0.08,4.014 0.24,9.43 0.48,16.25c0.186,5.474 0.036,11.627 -0.45,18.46c-0.29,4.05 0.05,7.6 0.33,11.15Zm68.11,-170.91c-0.134,0.24 -0.124,0.437 0.03,0.59c0.126,0.12 0.226,0.104 0.3,-0.05c0.073,-0.153 0.056,-0.333 -0.05,-0.54c-0.028,-0.051 -0.082,-0.082 -0.14,-0.082c-0.058,-0 -0.112,0.031 -0.14,0.082Zm-20.14,141.98c0.039,0.011 0.08,0.016 0.12,0.016c0.253,0 0.46,-0.207 0.46,-0.46c0,-0.008 0,-0.017 -0,-0.026c-0.2,-3.75 -0.95,-9.42 -1.05,-13.96c-0.107,-5.253 -0.327,-11.24 -0.66,-17.96c-0.274,-5.453 -0.097,-11.803 0.53,-19.05c0.033,-0.353 -0.114,-0.463 -0.44,-0.33c-4.187,1.727 -6.92,2.66 -8.2,2.8c-3.74,0.43 -7.95,1.33 -11.62,1.39c-9.3,0.167 -18.6,-0.766 -27.9,-2.8c-0.327,-0.073 -0.394,0.03 -0.2,0.31c2.38,3.38 5.74,8.22 10.08,14.52c1.56,2.274 3.903,5.334 7.03,9.18c4.35,5.36 8.3,10.85 13.73,15.47c3.526,2.994 5.873,4.9 7.04,5.72c3.5,2.46 7.193,4.187 11.08,5.18Z"/>
</svg>
