<svg viewBox="0 0 320 320" xmlns="http://www.w3.org/2000/svg">
    <path d="M168.221,189.931c0.434,4.233 0.92,7.757 1.46,10.57c0.874,4.507 1.707,10.087 2.5,16.74c0.254,2.147 1.05,4 2.39,5.56c0.214,0.247 0.337,0.53 0.37,0.85c0.34,2.807 -0.926,4.487 -3.8,5.04c-3.393,0.66 -5.466,1.06 -6.22,1.2c-0.34,0.06 -0.483,0.263 -0.43,0.61c0.36,2.54 0.63,5.25 1.27,7.66c1.727,6.42 2.877,12.94 3.45,19.56c0.22,2.5 -0.14,5.79 -3.18,6.15c-1.68,0.193 -2.96,-0.393 -3.84,-1.76c-0.44,-0.7 -0.693,-1.917 -0.76,-3.65c-0.186,-4.867 -0.386,-8.007 -0.6,-9.42c-1.16,-7.827 -1.963,-13.79 -2.41,-17.89c-0.04,-0.34 -0.23,-0.52 -0.57,-0.54c-8.633,-0.527 -14.613,-0.483 -17.94,0.13c-5.706,1.04 -9.876,1.43 -12.51,1.17c-0.333,-0.033 -0.48,0.117 -0.44,0.45c0.56,4.66 0.817,7.53 0.77,8.61c-0.24,5.5 -0.326,12.61 -0.26,21.33c0.01,1.48 -0.11,4.92 -1.15,6.65c-0.3,0.507 -0.836,0.86 -1.61,1.06c-1.753,0.447 -3.233,-0.11 -4.44,-1.67c-0.42,-0.54 -0.576,-2.077 -0.47,-4.61c0.187,-4.64 0.357,-9.28 0.51,-13.92c0.17,-5.34 1.19,-11.9 1.03,-17.09c-0.013,-0.353 -0.196,-0.507 -0.55,-0.46c-2.326,0.313 -4.866,0.537 -7.62,0.67c-5.1,0.25 -4.01,-4.04 -3.86,-7.31c0.06,-1.247 0.054,-2.333 -0.02,-3.26c-0.626,-7.66 -0.983,-12.623 -1.07,-14.89c-0.013,-0.347 -0.146,-0.403 -0.4,-0.17c-1.426,1.28 -2.836,1.173 -4.23,-0.32c-0.786,-0.847 -1.206,-1.3 -1.26,-1.36c-0.293,-0.313 -0.6,-0.433 -0.92,-0.36c-1.36,0.327 -3.26,1.077 -5.7,2.25c-5.96,2.86 -9.11,-3.99 -8.91,-8.76c0.16,-3.7 1.5,-8.92 3.36,-12.9c2.787,-5.973 6.174,-11.3 10.16,-15.98c0.145,-0.17 0.316,-0.315 0.506,-0.43c1.033,-0.624 2.436,-0.22 3.108,0.893c0.122,0.202 0.215,0.42 0.276,0.647c0.134,0.507 0.574,0.977 1.32,1.41c0.24,0.14 0.34,0.073 0.3,-0.2l-1.37,-9.92c-0.053,-0.38 -0.24,-0.467 -0.56,-0.26c-3.47,2.25 -8.23,5.57 -10.2,9.33c-0.85,1.62 -2.34,4.24 -3.9,5.65c-3.173,2.853 -6.696,3.75 -10.57,2.69c-4.59,-1.25 -6.45,-5.04 -5.76,-9.66c0.367,-2.44 0.997,-4.397 1.89,-5.87c1.174,-1.94 2.264,-3.823 3.27,-5.65c2.834,-5.147 4.027,-10.82 3.58,-17.02c-0.14,-1.947 0.607,-5.03 2.24,-9.25c2.06,-5.333 5.08,-11.06 9.06,-17.18c2.06,-3.173 4.677,-6.403 7.85,-9.69c5.09,-5.28 8.7,-9.13 13.99,-12.42c1.454,-0.9 3.307,-1.847 5.56,-2.84c1.76,-0.773 5.207,-2.347 10.34,-4.72c1.867,-0.867 2.984,-1.363 3.35,-1.49c4.09,-1.44 11.29,-1.49 16.82,-1.55c4.927,-0.06 9.66,-1.11 14.2,-3.15c1.474,-0.667 3.014,-0.213 4.62,1.36c1.454,1.42 2.624,3.257 3.51,5.51c1.98,5.02 3.227,10.807 3.74,17.36c0.96,12.26 0.27,24.113 -2.07,35.56c-1.47,7.2 -4.27,17.24 -10.72,21.03c-0.293,0.173 -0.416,0.43 -0.37,0.77l3.11,22.59c0.04,0.313 0.207,0.527 0.5,0.64l30.53,12.17c0.012,0.005 0.024,0.009 0.037,0.012c0.159,0.04 0.325,-0.062 0.367,-0.227c0.003,-0.012 0.005,-0.023 0.006,-0.035c3.354,-28.093 7.05,-57.617 11.09,-88.57c0.32,-2.47 0.45,-6.45 0.9,-9.93c0.047,-0.333 -0.036,-0.627 -0.25,-0.88c-1.706,-2.073 -2.326,-4.91 -1.86,-8.51c1.394,-10.727 5.9,-19.963 13.52,-27.71c3.547,-3.607 7.37,-6.773 11.47,-9.5c1.267,-0.84 2.207,-0.62 2.82,0.66c0.454,0.927 0.31,1.747 -0.43,2.46c-1.54,1.487 -4.1,3.977 -7.68,7.47c-3.006,2.94 -5.18,5.48 -6.52,7.62c-4.53,7.19 -8.02,13.54 -7.37,21.88c0.044,0.479 0.362,0.887 0.81,1.04c1.474,0.5 2.684,0.443 3.63,-0.17c1.214,-0.793 2.367,-2.533 3.46,-5.22c1.9,-4.64 3.31,-13.67 9.54,-19.41c3.7,-3.407 6.194,-5.6 7.48,-6.58c1.887,-1.44 3.85,-2.157 5.89,-2.15c0.085,0 0.169,0.008 0.252,0.025c0.694,0.139 1.15,0.828 1.01,1.527c-0.016,0.082 -0.04,0.161 -0.072,0.238c-0.65,1.59 -1.43,2.69 -2.86,3.74c-3.646,2.68 -6.673,5.43 -9.08,8.25c-1.206,1.4 -2.123,3.143 -2.75,5.23c-1.8,6 -2.67,11.87 -6.34,17.22c-1.693,2.473 -4.103,3.933 -7.23,4.38c-0.333,0.047 -0.53,0.237 -0.59,0.57c-1.013,5.26 -1.64,8.767 -1.88,10.52c-3.733,27.293 -7.723,55.41 -11.97,84.35c-0.133,0.887 -0.24,1.933 -0.32,3.14c-0.02,0.333 0.12,0.57 0.42,0.71c1.26,0.593 1.964,0.997 2.11,1.21c1.84,2.64 0.48,5.63 -2.8,5.03c-0.052,-0.009 -0.104,-0.014 -0.157,-0.014c-0.445,0 -0.825,0.333 -0.883,0.774l-6.36,46.93c-0.144,1.07 -0.961,1.939 -2.03,2.16c-0.026,0.007 -0.053,0.007 -0.08,0c-1.533,-0.553 -2.23,-1.37 -2.09,-2.45l6.34,-48.09c0.134,-1.04 -0.28,-1.767 -1.24,-2.18l-28.28,-11.98c-0.213,-0.087 -0.306,-0.017 -0.28,0.21Zm-12.17,-71.04c-0.533,7.46 -0.216,14.983 0.95,22.57c0.63,4.12 1.74,9.86 4.89,12.38c0.46,0.365 1.136,0.29 1.497,-0.166l0.003,-0.004c1.587,-2.007 2.814,-4.277 3.68,-6.81c3.02,-8.79 4.13,-17.87 4.79,-27.09c0.534,-7.46 0.217,-14.983 -0.95,-22.57c-0.63,-4.12 -1.74,-9.86 -4.89,-12.38c-0.46,-0.364 -1.135,-0.289 -1.496,0.166l-0.004,0.004c-1.586,2.007 -2.813,4.277 -3.68,6.81c-3.02,8.79 -4.13,17.87 -4.79,27.09Zm-66.44,45.79c1.54,-1.747 4.16,-3.967 7.86,-6.66c5.01,-3.64 10.18,-4.17 16.69,-4c4.147,0.107 10.367,0.457 18.66,1.05c4.68,0.333 8.094,0.347 10.24,0.04c3.307,-0.473 6.69,-1.07 10.15,-1.79c0.014,-0.003 0.028,-0.006 0.041,-0.01c0.322,-0.09 0.514,-0.426 0.425,-0.743c-0.005,-0.016 -0.01,-0.031 -0.016,-0.047c-1.346,-3.8 -2.266,-7.717 -2.76,-11.75c-1.346,-11 -1.253,-22 0.28,-33c1.02,-7.353 2.837,-14.04 5.45,-20.06c0.14,-0.313 0.04,-0.44 -0.3,-0.38c-5.346,0.967 -11.106,1.7 -17.28,2.2c-0.766,0.06 -1.536,0.193 -2.31,0.4c-4.62,1.25 -8.47,3.63 -12.54,5.39c-8.79,3.8 -16.1,10.89 -22.29,18.55c-1.88,2.32 -3.793,5.293 -5.74,8.92c-2.346,4.367 -3.883,7.553 -4.61,9.56c-1.54,4.227 -2.25,7.27 -2.13,9.13c0.5,7.573 -1.053,14.47 -4.66,20.69c-0.42,0.727 -1.45,2.35 -3.09,4.87c-1.05,1.61 -1.31,3.07 -1.13,4.79c0.042,0.369 0.346,0.66 0.72,0.69c1.087,0.1 2.07,-0.133 2.95,-0.7c0.614,-0.393 1.247,-1.113 1.9,-2.16c1.447,-2.313 2.61,-3.973 3.49,-4.98Zm36.3,41.46c-0.527,-0.41 -0.914,-0.972 -1.11,-1.61l-3.95,-12.83c-0.086,-0.287 -0.256,-0.35 -0.51,-0.19l-5.49,3.34c-0.326,0.2 -0.483,0.49 -0.47,0.87l1.25,31.52c0.014,0.327 0.177,0.437 0.49,0.33c4.094,-1.387 7.994,-2.137 11.7,-2.25c2.32,-0.073 4.897,-0.457 7.73,-1.15c5.147,-1.273 11.44,-1.6 18.88,-0.98c2.387,0.2 6.237,-0.383 11.55,-1.75c0.307,-0.08 0.444,-0.28 0.41,-0.6c-0.826,-6.773 -1.623,-11.86 -2.39,-15.26c-0.94,-4.207 -1.633,-9.26 -2.08,-15.16c-0.726,-9.527 -1.33,-18.167 -1.81,-25.92c-0.02,-0.327 -0.113,-1.49 -0.28,-3.49c-0.08,-0.92 -0.57,-1.49 -1.47,-1.71c-0.64,-0.16 -1.07,-0.227 -1.29,-0.2c-0.9,0.113 -1.3,0.617 -1.2,1.51c0.14,1.3 -0.013,2.333 -0.46,3.1c-1.393,2.373 -3.263,4.76 -5.61,7.16c-3.313,3.393 -8.493,7.963 -15.54,13.71c-1.78,1.453 -3.56,2.627 -5.34,3.52c-0.326,0.167 -0.493,0.433 -0.5,0.8c-0.013,1.48 0.34,3.013 1.06,4.6c1.574,3.44 2.507,6.147 2.8,8.12c0.287,1.927 0.12,3.23 -0.5,3.91c-1.846,2.033 -3.803,2.237 -5.87,0.61Zm-5.24,-34.72c0.69,-1.13 2.04,-1.14 3,-0.52c0.414,0.267 0.73,0.903 0.95,1.91c0.527,2.393 1.42,5.8 2.68,10.22c0.004,0.014 0.009,0.028 0.015,0.042c0.063,0.14 0.234,0.202 0.379,0.138c0.013,-0.006 0.025,-0.013 0.036,-0.02c1.734,-1.067 4.374,-3.057 7.92,-5.97c5.794,-4.767 11.34,-10.09 16.64,-15.97c0.487,-0.54 0.374,-0.737 -0.34,-0.59c-4.046,0.84 -7.323,1.367 -9.83,1.58c-2.553,0.213 -5.846,0.167 -9.88,-0.14c-4.886,-0.373 -11.076,-0.867 -18.57,-1.48c-0.653,-0.053 -1.96,0.003 -3.92,0.17c-0.333,0.027 -0.47,0.207 -0.41,0.54c0.97,5.48 2.78,12.31 3.26,18.13c0.28,3.427 0.667,6.853 1.16,10.28c0.004,0.02 0.01,0.04 0.018,0.059c0.054,0.12 0.192,0.177 0.308,0.126c0.02,-0.009 0.038,-0.021 0.054,-0.035c1.9,-1.613 3.96,-2.923 6.18,-3.93c0.214,-0.093 0.3,-0.257 0.26,-0.49c-0.413,-2.213 -0.8,-5.03 -1.16,-8.45c-0.206,-2.033 0.21,-3.9 1.25,-5.6Zm-15.18,1.79c-1.433,0.38 -2.613,1.15 -3.54,2.31c-5.41,6.75 -10.53,16.64 -9.21,25.45c0.005,0.032 0.012,0.063 0.02,0.094c0.125,0.472 0.611,0.759 1.078,0.636c0.031,-0.008 0.062,-0.018 0.092,-0.03c5.06,-1.92 11.05,-4.82 14.04,1.6c0.2,0.427 0.31,0.403 0.33,-0.07c0.1,-2.033 0.104,-3.473 0.01,-4.32c-0.9,-8.533 -1.603,-17.103 -2.11,-25.71c-0.02,-0.36 -0.133,-0.393 -0.34,-0.1c-0.026,0.04 -0.15,0.087 -0.37,0.14Z"/>
</svg>
