<svg viewBox="0 0 365 47" xmlns="http://www.w3.org/2000/svg">
  <path fill="#101012" d="M15.438,36.05c-9.05,0 -14.45,-5.55 -14.45,-13.3c0,-9.4 8.55,-18.1 17.75,-18.1c4.9,0 6.85,2.05 6.85,5.4c0,3.55 -2,7 -5.2,7c-1.25,0 -2,-0.8 -2,-1.85c0,-0.85 -0.25,-1.2 -1.55,-1.2c-4.1,-0 -7.1,4.4 -7.1,8.6c0,3.35 2.4,5.1 6.25,5.1c5.35,-0 7.15,-2.7 9.3,-2.7c1.6,-0 2.45,1.45 2.45,3.5c0,4.3 -4.2,7.55 -12.3,7.55Zm46.7,4.05c-2.15,0 -3.8,-0.9 -5.7,-3.45c-1.1,-1.45 -1.85,-3.45 -2.4,-5.6c-4.9,0.25 -8.55,0.8 -11.6,1.2c-0.2,1.1 -0.35,2.2 -0.5,3.4c-0.25,2.2 -1.35,3.25 -3.55,3.25c-3.15,0 -4.95,-2.1 -4.95,-6.35c-2.2,-0.55 -3.25,-1.95 -3.25,-3.75c0,-1.45 0.6,-2.4 1.95,-2.75c0.65,-0.2 1.3,-0.4 2,-0.6c0.6,-2.9 1.35,-5.1 1.35,-7.95c0,-2.75 1.1,-4.3 3.05,-4.3c0.7,0 1.35,0.2 2.05,0.65c2.7,-3.8 6.3,-6.35 10.25,-6.35c7.4,0 9.8,4.3 11.05,15.2c0,0.15 0.05,0.25 0.05,0.35c3.5,0.2 4.75,1.15 4.75,3.15c0,1.75 -1.1,3.3 -3.1,4.1c1.15,3.25 2.35,5.1 2.35,6.9c0,1.75 -1.5,2.9 -3.8,2.9Zm-11.7,-23.95c-1.85,0 -4.05,2.7 -5.8,7.55c2.55,-0.25 5.3,-0.45 8.15,-0.55c-0.05,-0.2 -0.05,-0.45 -0.1,-0.7c-0.7,-6.1 -1.35,-6.3 -2.25,-6.3Zm30,28.65c-6.55,0 -10,-3.1 -10,-6.8c0,-1.7 0.75,-2.8 2.5,-2.8c2,0 2.95,1.25 6.7,1.25c3,0 4.3,-0.15 6.4,-0.7c-1.65,-3.15 -16.4,-4.1 -16.4,-13.95c0,-7.85 13.35,-12.75 19.6,-12.75c3.6,0 4.8,2.3 4.8,4.75c0,1.7 -0.9,3.1 -2.75,3.45c-7.6,1.45 -12.65,3.2 -12.65,4.7c0,3.25 16.5,4.35 16.5,14c0,6.1 -4.85,8.85 -14.7,8.85Zm31.65,-7.05c-2.35,0 -4.35,-1.15 -5.5,-4.95c-1.1,-4.3 -1.15,-8.05 -0.3,-18.25c-1.5,-0.1 -3.05,-0.2 -4.6,-0.35c-3.85,-0.4 -5.55,-2.2 -5.55,-5.15c0,-1.85 1.05,-3.2 3.45,-3.2c4.95,0 9.15,0.5 13.7,0.5c3.05,0 5.4,-0.55 9.4,-0.55c2.45,0 3.5,1.25 3.5,3.3c0,3.65 -3.05,5.65 -6.95,5.65l-4,0c0.05,0.5 0.05,1 0,1.6c-0.85,13.1 0.5,15.2 0.5,17.75c0,2.5 -1.25,3.65 -3.65,3.65Zm28.2,2.8c-7.1,0 -11.15,-4.15 -11.15,-11.6c0,-5.9 1.35,-11.1 1.35,-15.25c0,-2.2 1.1,-3.75 3.85,-3.75c3.55,0 5.3,2.95 5.3,6.55c0,4.9 -1.55,10.6 -1.55,12.8c0,1.8 0.85,2.6 2.95,2.6c4.15,0 4.65,-2.6 7.35,-2.6c1.65,0 2.7,1.35 2.7,3.3c0,2.25 -0.7,4.1 -2.45,5.65c-2,1.65 -5.45,2.3 -8.35,2.3Zm29.65,4.25c-9.95,0 -14.65,-6.95 -14.65,-15.25c0,-3.05 0.65,-7.25 1.9,-11.45c-1.9,-0.8 -2.85,-2.3 -2.85,-3.95c0,-1.25 0.4,-2.5 2.65,-3.1c6.5,-1.75 15,-2.65 19.4,-2.65c5.35,0 7.3,1.8 7.3,4.7c0,2.05 -1.25,3.65 -3.8,3.65c-5,0 -10.2,0.75 -14.1,1.35c-0.2,1.25 -0.65,3.05 -1.05,5.2c2.85,-0.55 6.35,-1.05 11.8,-1.2c3.2,0 4.4,1.25 4.4,3.25c0,3.05 -2.1,4.75 -4.95,5c-5.35,0.3 -8.75,0.75 -11.65,1.35c0.65,2.65 2.6,4.5 5.65,4.5c5.3,0 8.35,-1.8 10.4,-1.8c2.05,0 3.15,1.05 3.15,3.1c0,4.7 -5.05,7.3 -13.6,7.3Zm36.8,-7.85c-7.55,0 -11.6,-4.2 -11.6,-12.05c0,-6.4 1.7,-12 1.7,-16.5c0,-2.25 1.1,-3.85 3.9,-3.85c3.5,0 5.25,3.05 5.25,6.3c0,5.55 -2,12 -2,14.5c0,2.05 0.95,2.95 3.35,2.95c4.45,0 4.9,-2.7 7.7,-2.7c1.65,0 2.7,1.5 2.7,3.35c0,2.2 -0.65,4.1 -2.4,5.65c-2.05,1.7 -5.6,2.35 -8.6,2.35Zm19,1.75c-3.95,0 -6.3,-2.1 -6.3,-4.75c0,-1.7 0.95,-3.05 3.35,-3.45c2.75,-0.45 4.85,-0.7 6.65,-0.8c-0.4,-0.65 -0.6,-1.5 -0.6,-2.4c0,-3 0.2,-6.05 0.2,-8.25c0,-0.45 0,-0.9 0.05,-1.3c-1.95,0.2 -3.4,0.35 -4.6,0.35c-3.95,0 -5.3,-2.05 -5.3,-4.45c0,-2.25 1.85,-3.65 4.4,-4c6.75,-0.95 12.8,-1.4 17.1,-1.4c4.55,0 6,1.05 6,3.75c0,3.25 -2.6,5.2 -5.9,5.2c-1.3,0 -2.5,0 -3.6,0.05c0.4,0.65 0.6,1.45 0.6,2.25c0,1.55 -0.3,4.5 -0.3,8.2c0,0.85 -0.1,1.55 -0.25,2.15c1.15,0.05 2.45,0.1 3.95,0.1c5.15,0 6.3,1.45 6.3,3.65c0,2.7 -2.25,4.55 -6.05,4.55c-7.15,0 -11.8,0.55 -15.7,0.55Zm43.85,-9.6c-2.45,0 -4.5,-1.8 -4.5,-4.35c0,-1.75 0.7,-2.6 3.3,-3.35c4.05,-1.2 8.6,-1.85 14.55,-1.95c4.85,0 5.8,1.15 5.8,3.4c0,2.55 -1.4,4.9 -4.7,4.9l-0.25,0c0.05,6.5 0.55,9.05 2.15,12.25c1.15,2.4 1.3,2.9 1.3,4.1c0,2.05 -1.45,3.15 -3.4,3.15c-2.6,0 -4.1,-1.15 -5.55,-3.45c-0.9,-1.6 -1.6,-3.15 -2.2,-6c-3.8,2.7 -8.55,4.1 -13.25,4.1c-7.95,0 -12.6,-4.9 -12.6,-12.35c0,-12.1 11.65,-23.55 23.5,-23.55c4.55,0 6.4,2.1 6.4,5.1c0,3.35 -2.1,6.35 -5.2,6.35c-2.25,0 -1.65,-1.8 -3.7,-1.8c-6,0 -11.55,7.5 -11.55,13.05c0,3.1 1.35,4.55 4,4.55c4.15,0 8.5,-1.5 11.55,-4.9c-2.5,0.35 -4.1,0.75 -5.65,0.75Zm29.95,7.65c-3.35,0 -5.7,-2.2 -5.55,-7.05c0.05,-1.5 0.05,-3.05 0.05,-4.6c-2.9,-0.8 -4,-2.5 -4,-4.3c0,-1.35 0.6,-2.25 2.2,-2.7c0.55,-0.15 1.1,-0.3 1.7,-0.45c-0.15,-4.75 -0.4,-9.05 -0.4,-12.4c0,-3.25 1.3,-4.8 4.45,-4.8c2.7,0 5.15,1.9 5.15,6.1c0,3.55 0.05,6.7 0.1,9.75c2.95,-0.2 5.95,-0.3 8.95,-0.3c0.15,-3.25 0.25,-5.9 0.25,-7.8c0,-2.9 1.4,-4.3 3.9,-4.3c3.05,0 4.95,2.4 4.95,7.2c0,1.8 -0.05,3.75 -0.1,5.7c2.45,1 3.45,2.75 3.45,4.4c0,1.8 -1,2.95 -2.95,2.95l-0.7,0l0,2.75c0.05,4.7 0.95,7 0.95,9.7c0,2.3 -1.3,3.7 -3.65,3.7c-4.3,0 -6.35,-4.5 -6.35,-12.55l0,-3.35c-3.7,0.25 -6.45,0.55 -8.55,0.8c0.05,2.35 0.05,4.7 0.05,7.25c0,2.85 -1.5,4.3 -3.9,4.3Zm41.6,4c-2.4,0 -4.35,-1.15 -5.5,-4.95c-1,-3.85 -1.1,-7.25 -0.35,-16.05c-1.55,-0.1 -3.1,-0.2 -4.65,-0.35c-3.65,-0.4 -5.55,-2.25 -5.55,-5.1c0,-1.9 1.15,-3.25 3.6,-3.25c4.7,0 8.95,0.5 13.55,0.5c3.05,0 5.35,-0.55 9.3,-0.55c2.6,0 3.6,1.25 3.6,3.4c0,3.4 -2.8,5.55 -6.95,5.55l-4,0c0.05,0.6 0.05,1.25 0,2c-0.7,11.05 0.6,13.05 0.6,15.2c0,2.4 -1.3,3.6 -3.65,3.6Z"/>
</svg>
