<svg viewBox="0 0 1200 640" xmlns="http://www.w3.org/2000/svg">
    <path d="M239.396,505.072c-36.257,0 -50.292,-29.239 -50.292,-98.245l0,-8.772c-40.936,5.848 -79.532,11.696 -123.977,11.696c-39.181,-0 -64.327,-29.825 -64.327,-57.31c-0,-25.731 4.094,-53.801 29.825,-96.491c61.403,-108.188 159.649,-175.439 207.017,-175.439c47.953,0 69.591,39.766 69.591,82.456c-0,47.953 -8.187,88.889 -15.79,131.579c13.451,-1.169 28.07,-1.754 43.275,-1.754c28.07,-0 49.708,26.316 49.708,55.555c-0,19.883 -9.942,34.503 -34.503,34.503c-25.731,0 -48.538,1.17 -70.176,2.924c-0.584,8.772 -0.584,17.544 -0.584,26.316c-0,29.24 5.848,42.105 5.848,57.895c-0,22.222 -18.714,35.087 -45.615,35.087Zm-23.391,-329.824c-49.708,33.918 -90.644,85.38 -119.299,144.444c34.503,0 66.667,-5.848 101.17,-12.28c8.187,-49.708 18.129,-95.322 18.129,-132.164Zm839.766,329.824c-36.258,0 -50.293,-29.239 -50.293,-98.245l0,-8.772c-40.935,5.848 -79.532,11.696 -123.976,11.696c-39.182,-0 -64.328,-29.825 -64.328,-57.31c0,-25.731 4.094,-53.801 29.825,-96.491c61.403,-108.188 159.649,-175.439 207.017,-175.439c47.954,0 69.591,39.766 69.591,82.456c0,47.953 -8.187,88.889 -15.789,131.579c13.45,-1.169 28.07,-1.754 43.274,-1.754c28.071,-0 49.708,26.316 49.708,55.555c-0,19.883 -9.942,34.503 -34.503,34.503c-25.731,0 -48.538,1.17 -70.175,2.924c-0.585,8.772 -0.585,17.544 -0.585,26.316c-0,29.24 5.848,42.105 5.848,57.895c-0,22.222 -18.714,35.087 -45.614,35.087Zm-23.392,-329.824c-49.708,33.918 -90.643,85.38 -119.298,144.444c34.503,0 66.666,-5.848 101.169,-12.28c8.187,-49.708 18.129,-95.322 18.129,-132.164Zm-561.066,-37.48c-1.964,-3.721 -4.136,-7.327 -6.515,-10.818l-0.004,-0.005c-0.66,-0.973 -1.531,-0.589 -2.362,-0.49c-1.649,0.196 -3.332,0.26 -4.98,-0.532c-2.073,-0.997 -3.699,-2.393 -4.895,-4.168c-3.597,-5.343 -6.026,-15.001 -4.976,-21.333l0.001,-0.005c0.431,-2.569 1.524,-4.816 3.301,-6.727c-1.873,-0.914 -3.823,-1.933 -5.384,-3.585c-5.696,-6.026 -7.137,-13.096 -4.259,-21.223l0.003,-0.007c0.763,-2.136 2.277,-3.922 4.633,-5.247c-4.348,-5.316 -7.03,-11.811 -8.01,-19.5c-0.345,-2.685 0.15,-4.94 1.354,-6.791c0.89,-1.369 2.193,-2.538 3.949,-3.45c-0.379,-2.07 -0.319,-3.939 0.131,-5.606l0,-0.003c2.624,-9.692 8.133,-17.224 16.525,-22.597c4.746,-3.037 9.417,-3.58 13.989,-1.795c11.524,4.491 17.113,17.876 18.455,29.595c0.081,0.711 0.198,1.825 0.35,3.343c1.766,-0.76 3.429,-1.032 4.979,-0.952c3.624,0.188 6.781,2.358 9.364,5.612c3.627,4.567 6.159,11.305 7.794,15.607c1.617,4.244 2.68,8.857 3.18,13.84c0.648,6.471 0.995,11.059 1.049,13.763l-0,0.004c0.062,3.481 -0.298,8.564 -1.098,15.247l-0,0.005c-0.648,5.337 -0.999,10.596 -1.05,15.778c-0.013,1.541 0.451,3.734 1.335,6.59c3.337,-1.226 7.003,-2.438 10.997,-3.633l0.003,-0.001c3.225,-0.961 6.409,-2.523 9.197,-3.907l0.008,-0.004c1.503,-0.738 2.914,-1.318 4.231,-1.742c6.053,-1.951 11.621,-4.089 16.702,-6.416l1.101,-0.347l1.134,-0.068l1.115,0.207l1.047,0.476c0.005,0.002 0.009,0.005 0.014,0.008c4.477,2.778 8.404,6.39 11.772,10.843c6.703,8.862 12.629,19.395 18.144,29.494c0.002,0.004 0.004,0.008 0.006,0.012c0.348,0.646 0.86,0.961 1.428,1.372l0.536,0.452l0.459,0.564l0.34,0.639c-0,0 0.208,0.664 0.208,0.664c0.178,0.804 0.193,1.571 0.181,2.347c-0.009,0.542 -0.08,1.098 0.172,1.724c1.496,3.703 3.617,8.974 6.362,15.812c2.204,5.471 4.065,10.937 5.582,16.397c3.271,11.729 5.539,20.805 6.81,27.225c1.576,7.947 2.555,16.483 2.933,25.602c0.065,1.502 -0.304,2.686 -0.94,3.591c-0.69,0.983 -1.719,1.707 -3.169,2.042c-19.175,4.425 -33.515,8.277 -43.018,11.562c-3.398,1.182 -12.879,4.888 -28.443,11.113c-5.926,2.376 -11.433,4.792 -16.521,7.247c-6.17,2.987 -11.677,5.603 -16.519,7.849c-5.201,2.411 -9.188,4.337 -11.962,5.779l-0.004,0.003c-5.748,2.973 -9.751,5.005 -12.006,6.093c-0.993,0.482 -2.159,0.839 -3.505,1.048l-0.006,0.001l-1.288,-0.008c-0,-0 -1.185,-0.398 -1.197,-0.4c-2.049,-1.049 -4.21,-2.835 -6.435,-5.416l-0.003,-0.003c-3.269,-3.806 -6.001,-7.488 -8.201,-11.042l-0.001,-0.002c-4.695,-7.605 -9.204,-16.288 -13.523,-26.051c-3.939,-8.903 -7.428,-17.388 -10.465,-25.453l-0,-0.001c-1.685,-4.479 -3.508,-10.344 -5.464,-17.596c-1.809,-6.69 -2.863,-10.577 -3.162,-11.661l-0,-0.003c-1.574,-5.745 -2.559,-9.726 -2.964,-11.94c-1.842,-10.077 -2.886,-19.678 -3.137,-28.801l0,-0.003c-0.139,-5.306 4.111,-7.888 9.242,-9.362l0.002,-0.001c0.991,-0.284 2.829,-0.671 5.519,-1.15c2.718,-0.492 5.447,-1.233 8.186,-2.22c5.251,-1.907 8.081,-2.92 8.474,-3.042c4.094,-1.293 8.489,-2.775 13.169,-4.443Zm121.731,94.766l-0.258,0.048l0.305,-0.018c-2.099,0.247 -3.74,-0.14 -4.963,-0.932c-1.343,-0.869 -2.297,-2.252 -2.679,-4.261l-0.002,-0.01c-0.367,-1.974 -1.982,-11.218 -4.845,-27.733c-0.446,-2.572 -1.116,-5.087 -2.012,-7.545l-0.001,-0.002c-2.496,-6.863 -5.187,-13.796 -8.07,-20.788c-4.259,1.706 -8.542,3.702 -12.849,5.985c-4.247,2.251 -7.837,3.668 -10.753,4.293c-7.393,1.586 -15.131,2.799 -23.213,3.637l-0.004,0.001c-2.796,0.285 -5.014,0.135 -6.659,-0.354l-0.789,-0.316l-0.7,-0.446l-0.596,-0.555l-0.483,-0.645l-0.363,-0.72l-0.231,-0.781l-0.089,-0.825l0.067,-0.847l0.001,-0.005l0.379,-1.248l0.767,-1.155c0.64,-0.687 1.543,-1.173 2.867,-1.545c5.158,-1.464 12.507,-3.049 22.049,-4.747c3.017,-0.54 5.636,-1.338 7.851,-2.413c4.211,-2.047 6.725,-3.304 7.539,-3.782c2.94,-1.751 6.19,-2.793 9.541,-4.056c-0.734,-1.124 -1.407,-2.416 -1.664,-3.65c-0.463,-2.221 0.046,-4.342 2.444,-5.863c1.504,-0.956 3.218,-0.996 4.962,-0.285c1.942,0.791 3.976,2.749 5.339,4.257c3.433,-1.602 6.41,-3.192 8.928,-4.775c-1.843,-3.44 -3.676,-6.705 -5.501,-9.795l-0.002,-0.004c-3.763,-6.393 -5.966,-10.094 -6.612,-11.101l-0.004,-0.005c-3.226,-5.052 -6.841,-9.569 -10.834,-13.534c-8.596,3.256 -15.105,5.774 -19.525,7.552c-4.343,1.75 -8.2,3.212 -11.569,4.387c-0.004,0.002 -0.008,0.003 -0.012,0.004c-0.953,0.327 -4.296,1.457 -10.03,3.39c0.056,0.777 -0.006,1.507 -0.169,2.187l-0.062,0.231l-0.262,0.617l-0.371,0.535l-0.976,0.777l-1.187,0.354l-1.283,-0.128c-0,-0 -0.154,-0.053 -0.169,-0.057c-1.193,-0.437 -2.246,-1.049 -3.161,-1.833c-6.12,2.259 -11.212,4.348 -16.886,5.933c-14.441,4.044 -28.823,8.619 -43.142,13.724c-3.433,1.229 -6.435,2.039 -9.004,2.445l-0.004,0c-2.745,0.429 -5.198,1.033 -7.356,1.823c-0.188,2.305 -0.178,4.652 0.029,7.04c0.376,4.212 0.958,9.009 1.743,14.393c0.497,3.394 1.508,8.072 3.023,14.036l0.002,0.007c0.227,0.905 1.569,6.173 4.025,15.803c1.898,7.455 4.992,16.271 9.273,26.45c2.865,6.81 6.138,14.118 9.818,21.926c2.697,5.72 6.203,12.061 10.513,19.025l0.001,0.002c2.21,3.579 4.922,7.073 8.133,10.484c4.269,-2.226 6.957,-3.628 8.064,-4.206c3.169,-1.66 6.343,-3.257 9.521,-4.788l0.002,-0.001c11.59,-5.576 21.105,-10.175 28.547,-13.795c8.224,-4.005 23.827,-10.207 46.813,-18.596c3.583,-1.309 13.315,-3.855 29.201,-7.616l0.006,-0.002c0.908,-0.212 2.171,-0.695 3.783,-1.419c0.02,-0.254 0.018,-0.516 -0.003,-0.786c-1.209,-15.458 -4.83,-29.819 -8.927,-45.283c-2.657,-9.999 -6.776,-20.074 -10.775,-29.626c-1.948,1.218 -4.456,2.675 -7.525,4.367c2.95,6.959 5.904,14.358 8.863,22.194c1.24,3.275 2.057,5.918 2.466,7.923c1.458,7.094 3.179,16.828 5.16,29.199c0.309,1.934 -0.018,3.528 -0.809,4.809c-0.781,1.266 -2.053,2.282 -3.921,2.903l-0.009,0.003c-0.333,0.11 -0.582,0.131 -0.712,0.133Zm0.712,-0.133l-0.675,0.126c0.229,-0.012 0.456,-0.054 0.675,-0.126Zm-0.675,0.126c-0.047,0.003 -0.093,0.004 -0.139,0.004c-0,-0 0.036,0.004 0.102,0.003l0.037,-0.007Zm-145.18,-189.226c0.003,0.043 0.007,0.085 0.012,0.121c0.645,4.613 2.617,8.668 5.902,12.172c1.07,1.142 2.408,2.063 3.994,2.777c2.413,1.078 6.122,3.337 8.377,6.085c1.921,2.34 2.81,5.026 2.011,7.682l-0.303,0.739l-0.5,0.698l-0.658,0.556l-0.721,0.364c-2.956,1.119 -6.48,0.243 -9.017,-1.904c-0.519,-0.44 -0.897,-0.798 -1.276,-0.832c-0.006,-0.001 -0.012,-0.001 -0.018,-0.002c-0.907,-0.088 -2.152,-0.018 -3.267,0.3c-0.64,0.183 -1.322,0.321 -1.545,0.841l-0.001,0.004c-1.842,4.273 -0.544,9.554 4.177,11.179c3.084,1.053 5.88,2.296 8.24,5.348c1.578,2.035 1.926,4.047 1.49,5.853c-0.41,1.694 -1.581,3.304 -3.541,4.573c-0.716,0.468 -1.46,0.931 -2.101,1.474c-0.568,0.481 -1.079,1.017 -1.154,1.839c-0.397,4.358 0.755,8.454 3.413,12.298c2.405,-0.278 4.67,-0.527 6.679,0.243l0.008,0.002c2.599,1.006 4.572,2.534 5.956,4.534c0.003,0.004 0.006,0.008 0.009,0.012c0.781,1.143 2.449,3.726 5,7.749c1.494,2.353 2.412,4.347 3.285,6.518c3.472,-0.955 6.937,-1.985 10.394,-3.089l-0.25,-0.027l-1.125,-0.552c-0.325,-0.227 -0.704,-0.555 -1.12,-1.004l-0.004,-0.005c-2,-2.174 -3.264,-7.175 -3.673,-9.52l-0.001,-0.004c-1.935,-11.186 -5.867,-21.613 -11.796,-31.283l-0.002,-0.003c-1.397,-2.284 -2.737,-4.099 -4.042,-5.43c-0.08,-0.049 -0.712,-0.439 -1.311,-0.736l-0.006,-0.003l-1.086,-0.817l-0.722,-1.151l-0.262,-1.331l0.213,-1.29l0.643,-1.139c-0,-0 1.039,-0.872 1.039,-0.872c1.792,-1.018 3.694,-0.902 5.552,0.059c2.734,1.415 5.419,5.175 6.696,6.932l0.004,0.005c9.754,13.486 14.775,28.169 15.085,44.04c0.012,0.612 -0.034,1.111 -0.112,1.5l-0.428,1.178l-0.439,0.524c4.087,-1.356 8.164,-2.817 12.229,-4.382c-1.547,-3.408 -2.143,-6.95 -1.802,-10.624c0.146,-1.631 0.43,-5.166 0.852,-10.607c0.175,-2.332 0.573,-5.598 1.198,-9.798c0.517,-3.5 0.702,-6.545 0.537,-9.135c-0.295,-4.564 -0.557,-8.617 -0.784,-12.157c-0.27,-4.137 -0.882,-7.795 -1.852,-10.972c-0.614,-1.992 -2.148,-5.877 -4.589,-11.659c-0.915,-2.16 -2.312,-4.044 -4.179,-5.66c-0.415,-0.359 -0.865,-0.058 -1.285,0.206c-1.088,0.684 -2.034,1.846 -2.617,2.753l-0.001,0.002c-1.332,2.066 -3.168,3.17 -4.939,3.181c-0.06,0 -0.12,-0.001 -0.181,-0.002c4.627,8.208 8.762,17.481 12.399,27.822c0.905,2.571 1.443,5.185 1.616,7.842c0,0.006 0.001,0.012 0.001,0.018c0.022,0.368 0.009,0.712 -0.033,1.03l-0.27,1.073l-0.577,1.028l-0.85,0.826c-0.004,0.003 -0.008,0.005 -0.011,0.008l-0.341,0.216l-0.653,0.282l-0.678,0.143l-1.335,-0.109l-1.204,-0.602l-0.51,-0.48l-0.413,-0.59c-0,0 -0.182,-0.378 -0.183,-0.381c-4.092,-10.008 -8.621,-20.425 -13.589,-31.251c-1.421,-3.093 -2.917,-5.689 -4.5,-7.781c-3.392,-4.479 -7.025,-8.379 -10.905,-11.697l-0.001,-0.001l-0.515,-0.518l-0.462,-0.705l-0.345,-1.239l0.152,-1.283l0.354,-0.773l0.432,-0.585l1.085,-0.9l0.694,-0.312c-0,0 0.743,-0.17 0.743,-0.17c1.832,-0.238 3.355,0.238 4.599,1.322l0.003,0.003c4.051,3.544 7.444,6.994 10.186,10.343c-0.157,-2.156 -0.379,-5.374 -0.665,-9.654c-0.265,-3.889 -1.214,-7.85 -2.834,-11.889c-1.694,-4.211 -4.086,-7.378 -7.246,-9.444c-1.979,-1.294 -3.799,-1.756 -5.515,-1.085l-0.004,0.001c-2.445,0.951 -5.179,3.03 -8.268,6.145l-0.006,0.006c-2.55,2.555 -4.444,7.099 -5.643,10.361l-0.002,0.006c-0.327,0.882 -0.541,1.791 -0.644,2.725c1.893,-0.111 3.966,0.218 6.216,1.037c2.891,1.05 4.282,3.027 4.334,5.803l0.009,0.442c0,0.005 0,0.01 0,0.015c0.016,0.99 -0.173,1.77 -0.453,2.36l-0.516,0.812l-0.763,0.692l-0.915,0.447l-0.917,0.183c-0.636,0.052 -1.421,-0.037 -2.333,-0.362c-2.882,-1.022 -5.769,-0.916 -8.662,0.299l-0.006,0.003c-0.104,0.043 -0.236,0.111 -0.341,0.167Zm133.808,427.799c-1.83,4.581 -3.342,8.417 -4.537,11.509c-2.656,6.902 -10.342,21.451 -23.074,43.638c-3.233,5.639 -4.973,8.713 -5.214,9.227c-1.758,3.918 -7.667,7.671 -10.962,2.349c-0.473,-0.756 -0.668,-1.806 -0.43,-3.17c0.001,-0.003 0.001,-0.005 0.002,-0.008c0.148,-0.816 0.282,-1.481 0.401,-1.996c-8.176,-2.903 -14.074,-5.331 -17.696,-7.274c-14.303,-7.646 -27.664,-17.075 -40.083,-28.288c-4.771,-4.302 -10.001,-9.828 -15.684,-16.579c-2.931,-3.471 -6.132,-8.357 -9.592,-14.664c-2.535,-4.62 -5.529,-9.527 -8.982,-14.72l-0.002,-0.003c-2.982,-4.509 -5.182,-10.343 -7.673,-14.313c-5.858,-9.35 -10.778,-18.684 -14.76,-27.998c-7.416,-17.361 -13.544,-35.789 -18.381,-55.284c-1.681,-6.775 -2.605,-11.048 -2.786,-12.813c-0.536,-5.12 -1.157,-9.263 -1.867,-12.429l-0.001,-0.004c-0.108,-0.488 -0.15,-0.988 -0.127,-1.488c0.147,-3.09 2.804,-5.511 5.884,-5.365c0.5,0.024 0.996,0.115 1.471,0.27c6.848,2.223 12.723,4.024 17.628,5.402c7.337,2.05 13.333,3.151 17.99,3.286c4.899,0.14 8.671,-0.382 11.302,-1.638c6.281,-3.001 12.884,-5.544 19.808,-7.627c2.231,-0.671 3.835,-1.282 4.8,-1.857c1.638,-0.976 3.945,-2.617 6.277,-3.369c1.847,-0.596 3.709,-0.652 5.372,0.269l0.003,0.002c10.471,5.841 20.007,9.183 28.62,9.989l0.002,0.001c8.555,0.813 13.769,-0.835 22.764,-2.968l0.002,-0.001c4.708,-1.11 8.302,-2.39 10.771,-3.867c2.618,-1.577 6.062,-3.562 10.331,-5.955c2.65,-1.493 4.518,-4.037 6.591,-6.714c0.293,-0.383 0.661,-0.702 1.081,-0.939c1.51,-0.85 3.431,-0.484 4.518,0.857c3.636,4.445 5.431,7.768 6.662,13.692l0.001,0.003c0.418,2.037 0.792,3.794 1.122,5.269c5.561,-7.609 11.483,-14.957 17.765,-22.044c3.155,-3.561 5.658,-6.403 7.509,-8.524c0.889,-1.023 1.571,-2.418 2.106,-4.156c3.023,-9.82 4.731,-15.083 8.475,-22.882c1.479,-3.079 3.005,-5.858 4.576,-8.337l0.001,-0.002c6.616,-10.422 14.123,-19.378 22.516,-26.875c0.972,-0.872 1.107,-1.537 1.749,-2.513c0.007,-0.01 0.014,-0.021 0.021,-0.031l0.548,-0.642l0.737,-0.531l0.851,-0.327l0.848,-0.105l0.002,-0c5.171,-0.05 9.526,0.352 13.066,1.18c8.452,1.97 18.884,4.039 31.287,6.207c1.135,0.194 2.021,0.634 2.697,1.229l0.548,0.571l0.442,0.652c-0,0 0.533,1.419 0.533,1.42c0.09,0.435 0.066,1.681 -0.409,3.693l-0.002,0.005c-0.115,0.484 -0.078,1.006 0.065,1.567c0.001,0.004 0.002,0.009 0.003,0.013c2.317,9.287 6.197,18.221 13.439,23.622c11.489,8.554 24.976,6.696 37.136,0.756l0.004,-0.002l1.235,-0.388l1.298,-0.004l0.005,0.001c2.546,0.38 4.759,1.463 6.637,3.251c1.325,1.258 3.817,3.794 7.476,7.61c1.642,1.708 4.098,4.177 7.367,7.407l0.001,0.001c5.614,5.552 10.514,10.951 14.702,16.196l0.001,0.001c1.283,1.609 1.702,3.349 1.344,5.199l-0.001,0.002c-0.253,1.301 -0.437,2.337 -0.481,2.59c-0.085,5.537 -1.027,11.38 -2.839,17.526l-0.001,0.002c-3.671,12.403 -8.814,24.638 -15.432,36.703c-4.404,8.024 -9.768,15.147 -16.087,21.367c-1.425,1.407 -3.05,2.683 -4.851,3.809c0.088,0.744 0.025,1.478 -0.19,2.201l-0.002,0.006c-0.446,1.491 -1.277,3.748 -2.502,6.77l-0.001,0.002c-9.722,23.911 -23.249,47.164 -40.59,69.754c-11.164,14.545 -23.352,27.289 -36.561,38.234c-1.521,1.263 -3.07,2.772 -4.779,3.868c-2.183,1.4 -4.6,2.181 -7.413,1.616c-0.009,-0.002 -0.017,-0.003 -0.026,-0.005c-0.218,-0.046 -2.652,-0.692 -7.3,-1.945l-0.003,-0c-3.246,-0.879 -9.793,-3.747 -19.617,-8.656c-15.78,-7.893 -30.688,-17.187 -44.724,-27.882l-0.001,-0.001c-1.577,-1.203 -3.154,-2.406 -4.73,-3.611Zm3.843,-9.692c1.127,0.829 2.277,1.671 3.452,2.527c13.705,9.974 27.163,18.499 40.502,26.01c8.512,4.794 17.813,8.903 27.9,12.331c0.436,0.146 0.947,0.222 1.53,0.25c0.005,0 0.009,0 0.013,0.001c0.64,0.034 1.406,-0.413 2.237,-0.889c1.852,-1.061 3.765,-2.642 4.987,-3.708c8.42,-7.361 15.129,-13.848 20.119,-19.466c15.045,-16.937 28.077,-35.38 39.098,-55.328l0.001,-0.001c2.355,-4.258 7.132,-14.569 14.334,-30.914c-2.984,-1.275 -4.695,-3.765 -5.555,-6.798c-1.337,-4.711 -0.342,-10.929 0.555,-14.638c4.771,-19.685 13.382,-37.958 25.837,-54.813c3.492,-4.724 7.994,-9.963 13.252,-13.073c-2.261,-2.668 -4.65,-5.304 -7.168,-7.908c-5.465,-5.652 -8.41,-8.874 -14.193,-15.112c-1.022,0.44 -2.605,1.123 -4.749,2.049l-0.002,0.001c-12.574,5.415 -27.803,5.173 -39.068,-2.572c-11.221,-7.702 -17.635,-19.555 -19.481,-33.564c-7.244,-1.275 -14.754,-2.784 -23.274,-4.939l-0.004,-0.001c-3.516,-0.894 -6.901,-1.662 -10.155,-2.303c-0.718,1.133 -1.601,2.321 -2.226,3.018c-3.719,4.166 -7.647,8.751 -11.783,13.752c-9.614,11.64 -16.202,24.867 -19.766,39.679l-0.002,0.008c-0.163,0.669 -0.166,1.286 0.057,1.848l0.004,0.009c1.78,4.522 6.977,8.456 11.459,11.084l0.009,0.005c2.311,1.366 3.395,4.202 2.565,6.818l-0.271,0.6l-0.462,0.598c-0.232,0.244 -0.677,0.633 -1.356,1.142c-0.005,0.004 -0.011,0.008 -0.017,0.013l-1.023,0.577l-1.212,0.294l-1.245,-0.075l-1.109,-0.386c-0.004,-0.002 -0.008,-0.004 -0.012,-0.006c-5.946,-2.964 -11.834,-7.48 -15.321,-13.148c-3.99,4.849 -8.654,10.636 -13.992,17.362l-0.002,0.002c-4.277,5.377 -8.359,10.989 -12.246,16.838c-0.242,0.364 -0.48,0.723 -0.715,1.077c0.517,2.212 1.017,4.578 1.498,7.098c1.983,10.407 2.993,15.696 3.032,15.869c2.148,9.202 3.885,19.641 5.211,31.317c0.765,6.707 0.945,12.281 0.55,16.72c-0.316,3.608 -1.069,8.764 -2.264,15.466c-1.766,9.908 -4.429,18.399 -7.332,28.708c-0.529,1.877 -1.261,4.067 -2.197,6.571Zm83.825,-101.272l0.065,0.063l-0.001,0.001c0.006,0.006 0.011,0.012 0.017,0.018l0.001,-0.002c0.494,0.486 0.854,0.992 1.104,1.502l0.342,0.938l0.128,1.011c0.012,1.092 -0.371,2.276 -1.355,3.464c-4.232,5.121 -7.499,8.938 -9.794,11.45c-5.076,5.568 -10.334,13.155 -16.348,19.743c-1.665,1.829 -3.569,4.611 -5.737,8.328c-7.46,12.797 -11.531,19.877 -12.202,21.244c-4.109,8.359 -8.59,17.562 -13.439,27.598l-0.422,0.729l-0.614,0.705l-0.55,0.417l-0.657,0.322l-0.723,0.184l-0.721,0.031l-0.973,-0.179c0,-0 -0.795,-0.34 -0.802,-0.342l-0.35,-0.187c-0.006,-0.004 -0.012,-0.007 -0.018,-0.01l-0.691,-0.464l-0.583,-0.569l-0.466,-0.655l-0.34,-0.724l-0.205,-0.781l-0.058,-0.822l0.107,-0.842l0.283,-0.826c0.002,-0.005 0.004,-0.009 0.006,-0.014c2.321,-4.938 5.94,-12.471 10.859,-22.599c2.245,-4.624 4.882,-9.512 7.912,-14.663c2.439,-4.149 5.106,-8.915 7.998,-14.294c2.443,-4.56 7.809,-10.299 10.622,-13.869c6.292,-7.998 13.193,-16.546 20.701,-25.644l0.007,-0.008c0.204,-0.246 0.415,-0.46 0.629,-0.645l0.783,-0.551l0.94,-0.387l1.03,-0.148l0.811,0.066l0.75,0.201c0.579,0.209 1.197,0.56 1.827,1.095c0.044,0.037 0.086,0.076 0.127,0.115Zm22.416,98.597l-0.986,0.711l-1.13,0.321l-1.172,-0.075l-1.114,-0.487l-0.006,-0.004l-0.655,-0.54l-0.524,-0.641l-0.379,-0.698l-0.241,-0.72l-0.136,-1.07l0.088,-1.028c0.124,-0.657 0.377,-1.306 0.748,-1.888l0.004,-0.006c3.393,-5.293 7.003,-9.924 10.824,-13.9l0.003,-0.003c1.132,-1.174 2.109,-1.735 2.754,-1.922l0.601,-0.118l0.728,0.008l1.058,0.34l0.85,0.681l0.633,1.11c0.219,0.636 0.331,1.748 0.08,3.337l-0.002,0.007c-0.139,0.862 -0.774,2.36 -2.094,4.398c-2.361,3.64 -5.663,7.7 -9.918,12.172c-0.005,0.005 -0.009,0.01 -0.014,0.015Zm-11.059,7.575c1.19,1.837 1.299,4.12 -0.242,6.815c-1.289,2.276 -2.828,4.386 -4.617,6.33c-1.19,1.297 -2.46,3.13 -3.831,5.48c-1.861,3.205 -4.911,6.713 -9.17,10.468l-1.047,0.651l-0.691,0.196l-0.697,0.051l-1.31,-0.293l-1.1,-0.757l-0.434,-0.537l-0.327,-0.628l-0.248,-1.166l-0,-0.011c-0.04,-1.111 0.269,-2.481 0.875,-3.935c1.098,-2.635 3.188,-5.694 4.648,-7.704c3.876,-5.338 6.968,-9.512 9.275,-12.52c1.456,-1.899 3.035,-3.13 4.662,-3.784l1.195,-0.252l1.17,0.16l1.05,0.538l0.835,0.891l0.004,0.007Zm64.73,-86.763c1.291,-1.078 2.433,-2.243 3.425,-3.496c11.309,-14.323 20.039,-30.519 26.195,-48.586c1.632,-4.788 2.503,-9.443 2.599,-13.969c-3.509,2.859 -6.643,6.41 -9.41,10.644c-10.447,15.978 -17.837,32.832 -22.162,50.562l-0.001,0.002c-0.379,1.55 -0.593,3.166 -0.646,4.843Zm-169.667,-43.319c-1.43,-4.733 -2.61,-10.038 -3.538,-15.916c-3.913,3.326 -8.744,6.612 -14.496,9.852c-4.25,2.405 -8.279,4.111 -12.081,5.127c-6.013,1.604 -10.191,2.667 -12.532,3.19c-14.437,3.251 -31.917,-1.841 -44.757,-8.607c-0.066,-0.03 -0.132,-0.035 -0.198,-0.008c-0.704,0.318 -2.386,1.144 -5.047,2.475c-1.745,0.876 -3.593,1.6 -5.544,2.169c-4.284,1.257 -10.246,3.559 -17.888,6.898c-5.434,2.37 -11.797,3.22 -19.092,2.515c-8.582,-0.834 -18.722,-3.452 -30.407,-7.868c5.058,20.944 9.053,35.239 11.995,42.884c3.169,8.217 6.322,16.437 9.46,24.66c1.896,4.942 5.681,12.532 11.349,22.774c2.162,3.899 4.181,7.574 6.056,11.025l0.001,0.001c3.374,6.229 5.406,9.819 6.113,10.758c3.429,4.524 6.768,9.94 10.013,16.25c2.172,4.21 5.589,8.832 10.237,13.876c12.705,13.773 27.514,25.032 44.424,33.777c5.343,2.758 10.979,4.823 16.908,6.196l0.002,0c1.288,0.3 2.474,0.941 3.434,1.856l0.003,0.002c1.22,1.17 1.842,2.847 1.736,5.07c8.663,-13.315 16.505,-27.716 23.527,-43.203c1.407,-3.1 3.787,-9.046 7.141,-17.839c0.086,-0.224 0.172,-0.451 0.259,-0.679c1.188,-3.117 2.279,-6.148 3.274,-9.094c1.152,-3.414 2.176,-6.713 3.069,-9.897c3.28,-11.686 5.543,-23.103 6.788,-34.25l-0,-0.002c0.566,-5.01 0.357,-11.589 -0.61,-19.736c-1.183,-10.002 -2.74,-19.507 -4.669,-28.513c-0.731,-3.393 -1.217,-6.672 -1.691,-9.907c-0.747,-5.097 -1.464,-10.088 -3.062,-15.254c-0.059,-0.193 -0.119,-0.387 -0.177,-0.582Zm-31.198,59.067c-0.045,0.066 -0.091,0.132 -0.138,0.198c-2.1,2.939 -6.529,5.81 -8.969,7.234l-0.004,0.003c-3.677,2.128 -10.126,4.644 -19.357,7.526c-2.515,0.785 -5.801,1.745 -9.859,2.879c3.665,13.679 9.399,28.473 17.194,44.386c4.24,8.669 8.521,16.853 12.844,24.548c1.061,1.884 1.925,3.668 2.595,5.353c0.772,1.92 1.64,3.499 2.15,5c0.606,1.785 0.756,3.48 -0.043,5.403c-0.403,0.971 -1.121,1.781 -2.038,2.297c-1.556,0.877 -3.484,0.794 -4.96,-0.212c-1.708,-1.166 -3.172,-2.741 -4.381,-4.733l-0.002,-0.003c-15.337,-25.466 -26.787,-52.498 -34.346,-81.081c-6.049,0.372 -12.187,0.538 -18.413,0.495c-2.595,-0.015 -13.485,-0.888 -19.685,-3.599c-1.461,-0.639 -2.675,-1.386 -3.522,-2.223c-1.039,-1.026 -1.568,-2.202 -1.508,-3.498c0,-0.005 0,-0.009 0.001,-0.013c0.081,-1.45 1.232,-2.623 2.667,-2.731c2.789,-0.212 4.5,-0.246 5.133,-0.146l0.006,0.001c9.659,1.57 20.634,2.152 32.923,1.75c-3.113,-13.016 -5.297,-25.954 -6.55,-38.811c-0.451,-4.644 -0.363,-9.157 0.261,-13.537c0.278,-1.955 1.945,-3.437 3.919,-3.484l0.004,0c1.335,-0.028 2.393,0.39 3.199,1.189c0.606,0.589 1.025,1.536 1.093,2.896c0.845,16.608 3.827,33.61 8.942,51.008c12.881,-2.493 25.647,-6.428 36.481,-14.464l0.002,-0.002c0.115,-0.085 0.235,-0.162 0.359,-0.232c1.663,-0.937 3.802,-0.339 4.739,1.324c0.149,0.265 0.263,0.548 0.338,0.843c0.086,0.331 0.127,0.669 0.128,1.012c0.003,1.115 -0.428,2.281 -1.203,3.424Zm144.966,171.734c0.505,-7.118 0.382,-13.804 -0.999,-21.057c-1.593,-8.381 -2.576,-13.204 -2.96,-14.467c-0.337,-1.108 -1.176,-3.152 -2.506,-6.135c-0.698,-1.566 -0.885,-2.668 -0.782,-3.245l0.001,-0.005c0.347,-1.906 1.493,-2.969 3.454,-3.174c1.84,-0.198 3.559,0.669 5.016,2.844l0.004,0.006c1.51,2.28 2.491,4.889 4.173,7.413c1.917,2.864 3.209,5.261 3.894,7.18c1.581,4.431 3.144,8.841 4.689,13.23c2.309,6.551 3.728,13.457 4.253,20.718c7.506,1.15 16.484,3.323 26.933,6.525c0.75,0.228 2.357,0.527 4.819,0.909l0.006,0.001c0.029,0.004 0.056,-0.003 0.082,-0.016l0.002,-0.001c8.711,-4.488 17.819,-1.054 22.874,6.689c9.767,1.259 19.311,2.932 28.632,5.018c0.282,0.063 0.985,0.069 2.09,0.053c0.407,-0.809 0.81,-1.371 1.161,-1.698l0.411,-0.32l0.49,-0.228l0.531,-0.104c-0,0 0.496,0.018 0.509,0.017c1.265,0.168 3.575,0.261 6.928,0.289l0.002,0c2.689,0.026 6.121,0.609 8.858,2.02c1.978,1.019 3.594,2.469 4.437,4.391c0.36,0.808 0.614,2.163 0.693,4.075c0.071,1.721 0.343,4.611 0.815,8.67l0,0.003c0.192,1.678 -0.159,3.895 -1.124,6.637c-0.958,2.728 -2.608,4.423 -4.614,5.251c-1.966,0.811 -4.318,0.785 -6.795,-0.061c-3.216,-1.1 -5.634,-1.693 -7.261,-1.737l-0.006,0c-2.608,-0.082 -4.242,-1.042 -5.028,-2.662c-0.903,0.057 -1.682,-0.271 -2.348,-0.825c-0.851,-0.705 -1.491,-1.854 -1.947,-2.724c-1.862,-0.378 -31.845,-6.474 -31.846,-6.474c-0,0.001 -0.001,0.001 -0.002,0.001c-0.003,0.002 -0.007,0.004 -0.01,0.006c-4.115,2.112 -8.525,2.728 -13.232,1.839l-0.001,0c-2.168,-0.412 -3.97,-1.457 -5.406,-3.135c-3.381,-0.176 -7.645,-1.56 -11.044,-1.778c-3.238,-0.206 -6.851,-0.728 -10.838,-1.568c-0.449,-0.09 -1.165,-0.133 -2.145,-0.145c-1.308,-0.01 -2.217,0.094 -3.509,-0.284c-2.531,-0.728 -5.31,-1.079 -8.333,-1.061c-0.516,2.908 -1.716,5.542 -3.601,7.899c-0.741,0.928 -1.308,1.772 -1.693,2.536c-0.172,0.347 -0.49,1.017 -0.952,2.01c-0.001,0.002 -0.002,0.005 -0.004,0.007c-0.353,0.747 -0.761,1.452 -1.223,2.116l-0.003,0.005c-3.141,4.476 -5.91,10.811 -9.731,14.844c-2.923,3.082 -5.96,5.943 -9.111,8.585c-1.216,1.021 -2.345,1.34 -3.299,1.183c-0.993,-0.163 -1.933,-0.843 -2.654,-2.232c-0.01,-0.02 -0.02,-0.04 -0.029,-0.061c-0.004,-0.007 -0.008,-0.016 -0.012,-0.023c-1.336,-2.428 -1.073,-4.619 0.749,-6.577c3.254,-3.509 5.856,-7.797 7.818,-12.859c2.459,-6.343 4.374,-12.32 5.742,-17.93c-10.449,-1.157 -31.324,-3.71 -62.625,-7.66c-2.323,-0.294 -8.699,-1.049 -19.13,-2.264c-56.493,-6.593 -112.957,-13.422 -169.393,-20.487c-2.629,-0.33 -8.023,-0.912 -16.18,-1.747c-2.001,-0.202 -4.012,-0.746 -6.032,-1.638c-1.052,-0.465 -4.621,-1.905 -10.706,-4.324c-3.478,-1.38 -10.694,-4.909 -21.644,-10.591c-0.451,-0.234 -1.155,-0.818 -2.065,-1.806l-0.004,-0.005c-1.146,-1.256 -1.6,-2.515 -1.504,-3.717c0.093,-1.18 0.73,-2.372 2.041,-3.497c1.384,-1.196 3.404,-2.205 6.081,-2.983l0.001,-0c5.92,-1.712 12.347,-4.193 17.81,-5.18c5.542,-0.999 10.56,-1.199 15.052,-0.611l0.001,0c50.414,6.651 109.576,14.583 177.486,23.796c9.951,1.352 41.882,5.462 95.793,12.33Zm-302.949,-23.331c9.566,5.279 19.311,9.73 29.235,13.353c1.941,0.705 3.852,1.169 5.734,1.39c64.339,7.604 125.729,15.12 184.167,22.548c11.814,1.503 18.186,2.305 19.117,2.405l0.005,0.001c24.024,2.679 44.478,5.17 61.362,7.47l1.027,-5.037c-15.79,-1.836 -32.141,-4.08 -47.346,-5.896c-87.336,-10.464 -152.524,-18.203 -195.566,-23.214c-1.155,-0.132 -1.979,-0.305 -2.476,-0.491c-0.202,-0.075 -0.368,-0.157 -0.501,-0.238c0,-0 -0.323,-0.248 -0.338,-0.258c-1.216,-1.148 -1.682,-2.584 -1.363,-4.317l0,-0.003c0.178,-0.955 0.815,-1.723 1.698,-2.237c1.073,-0.625 2.508,-0.846 3.452,-0.711l0.003,-0c5.743,0.831 11.493,1.611 17.248,2.34c111.09,14.047 168.815,21.328 173.175,21.842c28.615,3.382 46.246,5.489 52.895,6.323l0.876,-5.819c-46.15,-6.058 -77.99,-10.176 -95.522,-12.356c-60.865,-7.567 -116.979,-14.585 -168.343,-21.054c-3.407,-0.424 -6.132,-0.635 -8.176,-0.626c-5.836,0.044 -11.365,-0.629 -17.205,0.781c-4.433,1.071 -8.819,2.339 -13.158,3.804Zm27.885,5.701l-0.533,-0.272l-0.398,-0.417l-0.242,-0.518c0,-0 -0.061,-0.568 -0.063,-0.575c0.022,-0.413 0.111,-0.767 0.248,-1.067l0.305,-0.499l0.428,-0.413c0.484,-0.361 1.175,-0.577 2.104,-0.507c5.829,0.444 10.776,1.367 14.842,2.757c1.244,0.42 2.233,1.054 2.981,1.878l0.004,0.004l0.333,0.511l0.159,0.573l-0.019,0.594l-0.202,0.575l-0.24,0.348l-0.304,0.287l-0.357,0.216l-0.4,0.137c-0.004,0.001 -0.007,0.002 -0.011,0.002c-1.346,0.293 -2.979,0.287 -4.894,-0.053c-4.152,-0.728 -8.733,-1.914 -13.741,-3.561Zm357.302,49.709c0.816,0.121 1.588,0.243 2.315,0.365c-0.005,-0.12 -0.004,-0.244 0.002,-0.372c0.066,-1.484 0.312,-3.081 0.739,-4.78l-0.32,-0.066l-0.538,2.634c-0.041,0.205 -0.105,0.404 -0.19,0.595c-0.381,0.856 -1.146,1.435 -2.008,1.624Zm6.991,1.301c3.983,0.924 7.792,1.748 11.425,2.471l1.081,-5.332l-11.225,-2.276c-0.27,2.169 -0.707,3.878 -1.281,5.137Zm-65.465,-19.463l0.09,0.027l-0.001,0.004c0.007,0.002 0.013,0.005 0.02,0.008l0.001,-0.006c1.518,0.488 2.566,1.49 3.094,3.045c0.613,-1.066 1.83,-1.649 3.05,-1.454c2.199,0.349 3.414,2.048 3.865,4.296c0.455,2.273 0.095,5.113 -0.399,6.961l1.514,0.311c0.087,-2.2 0.321,-8.151 0.321,-8.146l0.1,-0.617l0.193,-0.467l0.275,-0.407l0.341,-0.338l0.395,-0.264l0.437,-0.184l0.469,-0.099l0.49,-0.006l0.494,0.093l0.567,0.248c0.002,0.001 0.005,0.003 0.008,0.004c0.969,0.585 1.641,1.747 1.96,3.237c0.478,2.237 0.21,5.262 -0.121,7.105l3.681,0.748c-0.22,-1.393 -0.263,-2.897 0.026,-4.255c0.412,-1.936 1.468,-3.585 3.488,-4.418c0.889,-0.368 1.897,-0.317 2.745,0.139c1.036,0.558 1.684,1.643 1.686,2.819l-0,0.004c-0.004,1.589 0.296,3.176 0.892,4.76c0.441,1.163 0.522,2.398 0.661,3.718c2.514,0.74 4.587,0.232 7.455,-0.27c1.715,-0.3 3.384,-0.373 5.003,-0.222c5.366,0.491 9.931,0.994 13.693,1.506c-0.113,-0.062 -0.223,-0.131 -0.327,-0.208c-0.002,-0.002 -0.005,-0.004 -0.007,-0.005c-1.389,-1.037 -2.09,-3.056 -1.677,-6.162l-4.666,-0.949c-0.745,1.196 -1.588,1.853 -2.415,2.089c-1.06,0.301 -2.238,0.026 -3.442,-1.097c-0.003,-0.002 -0.005,-0.004 -0.007,-0.007c-0.635,-0.601 -1.021,-1.427 -1.074,-2.313c-0,-0.003 -0,-0.005 -0.001,-0.008c-0.073,-1.356 -0.116,-2.31 -1.254,-3.324l-0.001,-0.001c-4.514,-4.034 -9.446,-4.737 -14.796,-2.099c-0.93,0.461 -2.001,0.551 -2.997,0.252c-5.296,-1.588 -10.931,-3.822 -16.804,-5.067c-5.978,-1.269 -11.336,-2.523 -16.069,-3.76c-1.278,-0.331 -2.525,-0.824 -3.732,-1.473c-0.066,-0.036 -0.132,-0.073 -0.196,-0.114c-1.395,-0.875 -1.812,-2.69 -0.987,-4.004c0.041,-0.065 0.084,-0.128 0.13,-0.19l0.003,-0.003c0.441,-0.585 1.061,-0.998 1.888,-1.184c-0.609,-4.78 -1.524,-9.48 -2.745,-14.099c0.271,4.387 0.178,8.799 -0.277,13.236c-0.76,7.43 -1.849,15.036 -3.265,22.804l3.198,0.124l0.298,-7.684c0.016,-0.413 0.126,-0.816 0.321,-1.18c0.593,-1.101 1.876,-1.654 3.066,-1.334l0.537,0.179l-0.182,-0.08c1.731,0.614 2.598,1.823 2.621,3.607c0.042,2.271 -0.159,4.592 -0.603,6.963c1.174,0.045 3.066,0.119 4.018,0.155c0.477,-2.325 0.76,-5.035 0.853,-8.125c0.034,-1.292 0.52,-2.115 1.213,-2.577c0.645,-0.429 1.587,-0.597 2.845,-0.254c0.013,0.004 0.027,0.008 0.04,0.012Zm85.013,27.647c1.87,-0.059 3.514,0.032 5.56,0.626c2.664,0.767 4.199,1.192 4.608,1.263c0.003,0.001 0.006,0.001 0.008,0.002c0.04,0.007 0.094,0.011 0.136,0.012c0.015,-0.038 0.033,-0.085 0.042,-0.122c0.408,-1.65 0.834,-3.272 0.649,-4.84c-0.332,-2.793 -0.455,-5.407 -0.373,-7.842l0,-0.005c0.029,-0.765 -0.466,-1.459 -1.199,-1.685c-2.546,-0.786 -5.215,-1.401 -8,-1.847c-0.067,3.072 -0.054,6.117 -0.774,9.512c-0.381,1.801 -0.601,3.443 -0.657,4.926Zm-108,0.767c0.117,-0.154 0.238,-0.307 0.362,-0.458c0.957,-1.158 1.647,-2.189 2.053,-3.104c0.001,-0.003 0.002,-0.005 0.003,-0.008c0.389,-0.861 1.423,-3.841 3.11,-8.936l-2.058,-0.723c-0.641,2.198 -1.152,4.304 -1.531,6.318c-0.399,2.123 -1.044,4.426 -1.939,6.911Z"/>
</svg>
